<svg width="214" height="214" viewBox="0 0 214 214" fill="none" xmlns="http://www.w3.org/2000/svg">
<path d="M107 212C164.99 212 212 164.99 212 107C212 49.0101 164.99 2 107 2C49.0101 2 2 49.0101 2 107C2 164.99 49.0101 212 107 212Z" stroke="#DECA75" stroke-width="0" stroke-miterlimit="10"/>
<path d="M88.8 137.2C62 137.2 40.2 115.5 40.2 88.8C40.2 76 45.1999 63.9 54.2999 54.6C63.5 45.4 75.7999 40.3 88.6999 40.3C101.6 40.3 113.8 45.3 122.9 54.5C132 63.6 137 75.7 137.2 88.7C137.2 101.5 132.2 113.7 123.1 122.9C114 132.1 101.8 137.2 88.8 137.2ZM88.8 43.3C76.7 43.3 65.2 48.1 56.5 56.7C48 65.4 43.2999 76.8 43.2999 88.8C43.2999 113.8 63.7 134.2 88.9 134.2C101 134.2 112.5 129.4 121.2 120.8C129.8 112.1 134.5 100.7 134.5 88.7C134.3 76.5 129.6 65.1 121.1 56.6C112.4 48 101 43.3 88.8 43.3Z" fill="#192C53"/>
<path d="M88.7999 125.3C68.6999 125.3 52.3999 109 52.3999 88.9C52.3999 79.2 56.1999 70.1 62.9999 63.3C69.7999 56.3 78.9999 52.5 88.7999 52.5C98.3999 52.5 107.5 56.3 114.6 63.1C121.5 70 125.3 79.1 125.3 88.9C125.3 98.6 121.5 107.7 114.7 114.5C107.7 121.4 98.4999 125.3 88.7999 125.3ZM88.7999 55.4C79.7999 55.4 71.3999 58.9 65.1999 65.3C58.8999 71.6 55.3999 80 55.3999 88.8C55.3999 107.2 70.3999 122.2 88.7999 122.2C97.6999 122.2 106.1 118.7 112.5 112.3C118.8 106 122.3 97.7 122.3 88.8C122.3 79.8 118.8 71.4 112.5 65.1C106.1 58.9 97.5999 55.4 88.7999 55.4Z" fill="#192C53"/>
<path d="M91.3 92.8L82.7 89.5C79.6 87.5 79 85.4 79 83.9V80.2C79 76.3 82 73.3 85.9 73.3H90.2C94.1 73.3 97.1 76.3 97.1 80.2V82H94.1V80.2C94.1 78 92.4 76.3 90.2 76.3H86C83.8 76.3 82.1 78 82.1 80.2V83.9C82.1 85.1 83.3 86.2 84.3 86.9L92.4 90L91.3 92.8Z" fill="#192C53"/>
<path d="M90.0999 106.6H85.7999C81.8999 106.6 78.8999 103.6 78.8999 99.7V97.9H81.8999V99.7C81.8999 101.9 83.5999 103.6 85.7999 103.6H90.0999C92.2999 103.6 93.9999 101.9 93.9999 99.7V95.9C93.9999 94.7 92.6999 93.7 91.5999 92.9L83.7999 89.9L84.8999 87.1L93.0999 90.3C95.6999 91.9 96.9999 93.8 96.9999 95.9V99.7C96.9999 103.6 93.9999 106.6 90.0999 106.6Z" fill="#192C53"/>
<path d="M89.8999 66.2H86.8999V75.5H89.8999V66.2Z" fill="#192C53"/>
<path d="M89.8999 103.7H86.8999V111.8H89.8999V103.7Z" fill="#192C53"/>
<path d="M160.5 173.7C158.8 173.7 157.1 173.4 155.4 172.7L155.1 172.6L122.6 140L140 122.6L172.5 155.1L172.6 155.4C174.7 160.4 173.6 165.9 169.7 169.8C167.2 172.4 163.9 173.7 160.5 173.7ZM156.8 170C161.3 171.7 165.3 169.9 167.6 167.6C169.9 165.3 171.7 161.3 170 156.8L140 126.8L126.8 140L156.8 170Z" fill="#192C53"/>
<path d="M146.027 134.221L134.218 146.03L136.34 148.151L148.148 136.343L146.027 134.221Z" fill="#192C53"/>
<path d="M124.051 121.954L121.93 124.075L130.203 132.348L132.324 130.227L124.051 121.954Z" fill="#192C53"/>
</svg>
