<svg width="214" height="214" viewBox="0 0 214 214" fill="none" xmlns="http://www.w3.org/2000/svg">
<path d="M107 212C164.99 212 212 164.99 212 107C212 49.0101 164.99 2 107 2C49.0101 2 2 49.0101 2 107C2 164.99 49.0101 212 107 212Z" stroke="#DECA75" stroke-width="0" stroke-miterlimit="10"/>
<path d="M148.3 139.9C148 139.9 147.8 139.8 147.6 139.6C147.5 139.5 147.4 139.4 147.4 139.3C147.4 139.2 147.3 139.1 147.3 138.9C147.3 138.8 147.3 138.8 147.3 138.7C147.3 138.6 147.3 138.6 147.4 138.5C147.4 138.4 147.5 138.4 147.5 138.3C147.5 138.3 147.6 138.2 147.6 138.1C147.8 137.9 148.2 137.8 148.5 137.8C148.6 137.8 148.6 137.8 148.7 137.9C148.8 137.9 148.8 137.9 148.9 138C148.9 138 149 138.1 149.1 138.1C149.3 138.3 149.4 138.5 149.4 138.8C149.4 138.9 149.4 139.1 149.3 139.2C149.2 139.3 149.2 139.4 149.1 139.5C149 139.6 148.9 139.7 148.8 139.7C148.7 139.7 148.4 139.9 148.3 139.9Z" fill="#192C53"/>
<path d="M74.2 70.5999C74.1 70.5999 73.9 70.5999 73.8 70.4999C73.7 70.3999 73.6 70.3999 73.5 70.2999C73.3 70.0999 73.2 69.8999 73.2 69.5999C73.2 69.2999 73.3 69.0999 73.5 68.8999C73.6 68.7999 73.7 68.6999 73.8 68.6999C74.2 68.5999 74.6 68.5999 74.9 68.8999C75.1 69.0999 75.2 69.2999 75.2 69.5999C75.2 69.8999 75.1 70.0999 74.9 70.2999C74.8 70.3999 74.7 70.4999 74.6 70.4999C74.4 70.5999 74.3 70.5999 74.2 70.5999Z" fill="#192C53"/>
<path d="M158 122.6C157.7 122.6 157.5 122.5 157.3 122.3C157.2 122.2 157.1 122.1 157.1 122C157 121.9 157 121.8 157 121.6C157 121.4 157 121.3 157.1 121.2C157.1 121.1 157.2 121 157.3 120.9C157.7 120.5 158.3 120.5 158.7 120.9C158.8 121 158.9 121.1 158.9 121.2C158.9 121.3 159 121.4 159 121.6C159 121.8 159 121.9 158.9 122C158.8 122.1 158.8 122.2 158.7 122.3C158.6 122.5 158.3 122.6 158 122.6Z" fill="#192C53"/>
<path d="M102.4 143.1C102.1 143.1 101.9 143 101.7 142.8C101.6 142.7 101.5 142.6 101.5 142.5C101.4 142.4 101.4 142.3 101.4 142.1C101.4 141.9 101.4 141.8 101.5 141.7C101.5 141.6 101.6 141.5 101.7 141.4L101.8 141.3C101.9 141.3 101.9 141.2 102 141.2C102.1 141.2 102.1 141.2 102.2 141.2C102.4 141.1 102.6 141.2 102.8 141.2C102.9 141.2 103 141.3 103.1 141.4C103.2 141.5 103.3 141.6 103.3 141.7C103.3 141.8 103.4 142 103.4 142.1C103.4 142.2 103.4 142.4 103.3 142.5C103.2 142.6 103.2 142.7 103.1 142.8C102.9 143 102.6 143.1 102.4 143.1Z" fill="#192C53"/>
<path d="M74.7 126.2C74.4 126.2 74.2 126.1 74 125.9C73.9 125.8 73.8 125.7 73.8 125.6C73.7 125.5 73.7 125.4 73.7 125.2C73.7 124.9 73.8 124.7 74 124.5C74.4 124.1 75 124.1 75.4 124.5C75.6 124.7 75.7 124.9 75.7 125.2C75.7 125.5 75.6 125.7 75.4 125.9C75.2 126.1 75 126.2 74.7 126.2Z" fill="#192C53"/>
<path d="M72.8999 112.8C72.5999 112.8 72.3999 112.7 72.1999 112.5C71.9999 112.3 71.8999 112.1 71.8999 111.8C71.8999 111.7 71.8999 111.5 71.9999 111.4C72.0999 111.3 72.0999 111.2 72.1999 111.1C72.2999 111 72.3999 110.9 72.4999 110.9C72.8999 110.7 73.2999 110.8 73.5999 111.1C73.6999 111.2 73.7999 111.3 73.7999 111.4C73.7999 111.5 73.8999 111.6 73.8999 111.8C73.8999 112.1 73.7999 112.3 73.5999 112.5C73.3999 112.7 73.1999 112.8 72.8999 112.8Z" fill="#192C53"/>
<path d="M105.5 160.6C103.8 160.6 102.1 160.4 100.5 159.9C81.3001 154.3 64.9001 140.9 55.4001 123.2C50.8001 114.7 54.0001 104 62.6001 99.4C65.1001 98 68.0001 97.3 70.9001 97.3C77.4001 97.3 83.3001 100.9 86.4001 106.6C91.5001 116 100.3 123.2 110.5 126.2C115 127.5 118.7 130.5 121 134.7C123.3 138.8 123.8 143.6 122.4 148.1C120.2 155.4 113.3 160.6 105.5 160.6ZM70.9001 99.3C68.3001 99.3 65.8001 99.9 63.5001 101.2C55.9001 105.3 53.1001 114.7 57.2001 122.3C66.5001 139.5 82.5001 152.5 101.1 158C102.5 158.4 104 158.6 105.5 158.6C112.4 158.6 118.5 154 120.5 147.4C121.7 143.4 121.2 139.2 119.2 135.5C117.2 131.8 113.9 129.2 109.9 128C99.2001 124.9 90.0001 117.4 84.6001 107.5C81.9001 102.4 76.6001 99.3 70.9001 99.3Z" fill="#192C53"/>
<path d="M125 107.4C113.4 107.4 103.9 97.9 103.9 86.3C103.9 74.7 113.4 65.2 125 65.2C136.6 65.2 146.1 74.7 146.1 86.3C146.1 98 136.6 107.4 125 107.4ZM125 67.3C114.5 67.3 105.9 75.9 105.9 86.4C105.9 96.9 114.5 105.5 125 105.5C135.5 105.5 144.1 96.9 144.1 86.4C144.1 75.8 135.5 67.3 125 67.3Z" fill="#192C53"/>
<path d="M129.2 82.7C128.9 82.7 128.7 82.6 128.5 82.4C128.4 82.3 128.3 82.2 128.3 82.1C128.3 82 128.2 81.9 128.2 81.7C128.2 81.4 128.3 81.2 128.5 81C128.7 80.8 129.1 80.7 129.4 80.7C129.5 80.7 129.5 80.7 129.6 80.8C129.7 80.8 129.7 80.9 129.8 80.9L129.9 81C130.1 81.2 130.2 81.4 130.2 81.7C130.2 81.8 130.2 81.9 130.1 82.1C130 82.2 130 82.3 129.9 82.4C129.9 82.5 129.8 82.5 129.8 82.5C129.7 82.5 129.7 82.6 129.6 82.6C129.5 82.6 129.5 82.6 129.4 82.7C129.3 82.7 129.3 82.7 129.2 82.7Z" fill="#192C53"/>
<path d="M126.5 94.3C126.2 94.3 126 94.2 125.8 94C125.6 93.8 125.5 93.6 125.5 93.3C125.5 93.2 125.5 93 125.6 92.9C125.7 92.8 125.7 92.7 125.8 92.6C126 92.4 126.4 92.3 126.7 92.3C126.8 92.3 126.8 92.3 126.9 92.4C127 92.4 127 92.5 127.1 92.5C127.1 92.5 127.2 92.6 127.3 92.6C127.4 92.7 127.5 92.8 127.5 92.9C127.6 93 127.6 93.1 127.6 93.3C127.6 93.6 127.5 93.8 127.3 94C127.3 94 127.2 94.1 127.1 94.1C127 94.1 127 94.2 126.9 94.2C126.8 94.2 126.8 94.2 126.7 94.3C126.6 94.3 126.5 94.3 126.5 94.3Z" fill="#192C53"/>
<path d="M117.5 87.3C117.2 87.3 117 87.1999 116.8 86.9999C116.6 86.7999 116.5 86.6 116.5 86.3C116.5 86 116.6 85.7999 116.8 85.5999C117.1 85.2999 117.5 85.2 117.9 85.4C118 85.4 118.1 85.4999 118.2 85.5999C118.4 85.7999 118.5 86 118.5 86.3C118.5 86.6 118.4 86.7999 118.2 86.9999C118 87.1999 117.8 87.3 117.5 87.3Z" fill="#192C53"/>
<path d="M125 65.2C124.4 65.2 124 64.8 124 64.2V57.4C124 56.8 124.4 56.4 125 56.4C125.6 56.4 126 56.8 126 57.4V64.2C126 64.8 125.6 65.2 125 65.2Z" fill="#192C53"/>
<path d="M109.4 71.8C109.1 71.8 108.9 71.7 108.7 71.5L103.8 66.6C103.4 66.2 103.4 65.6 103.8 65.2C104.2 64.8 104.8 64.8 105.2 65.2L110.1 70.1C110.5 70.5 110.5 71.1 110.1 71.5C110 71.7 109.7 71.8 109.4 71.8Z" fill="#192C53"/>
<path d="M101.2 87.4H96C95.4 87.4 95 87 95 86.4C95 85.8 95.4 85.4 96 85.4H101.2C101.8 85.4 102.2 85.8 102.2 86.4C102.2 87 101.8 87.4 101.2 87.4Z" fill="#192C53"/>
<path d="M104.5 107.8C104.2 107.8 104 107.7 103.8 107.5C103.4 107.1 103.4 106.5 103.8 106.1L108.7 101.2C109.1 100.8 109.7 100.8 110.1 101.2C110.5 101.6 110.5 102.2 110.1 102.6L105.2 107.5C105.1 107.7 104.8 107.8 104.5 107.8Z" fill="#192C53"/>
<path d="M125 116.3C124.4 116.3 124 115.9 124 115.3V110.1C124 109.5 124.4 109.1 125 109.1C125.6 109.1 126 109.5 126 110.1V115.3C126 115.9 125.6 116.3 125 116.3Z" fill="#192C53"/>
<path d="M145.5 107.8C145.2 107.8 145 107.7 144.8 107.5L139.6 102.3C139.2 101.9 139.2 101.3 139.6 100.9C140 100.5 140.6 100.5 141 100.9L146.2 106.1C146.6 106.5 146.6 107.1 146.2 107.5C146 107.7 145.7 107.8 145.5 107.8Z" fill="#192C53"/>
<path d="M154 87.4H148.8C148.2 87.4 147.8 87 147.8 86.4C147.8 85.8 148.2 85.4 148.8 85.4H154C154.6 85.4 155 85.8 155 86.4C155 86.9 154.5 87.4 154 87.4Z" fill="#192C53"/>
<path d="M140.9 71.5C140.6 71.5 140.4 71.4 140.2 71.2C139.8 70.8 139.8 70.2 140.2 69.8L144.8 65.2C145.2 64.8 145.8 64.8 146.2 65.2C146.6 65.6 146.6 66.2 146.2 66.6L141.6 71.2C141.4 71.4 141.1 71.5 140.9 71.5Z" fill="#192C53"/>
<path d="M96.1001 87.4C95.5001 87.4 95.1001 87 95.1001 86.4C95.1001 85.8 95.5001 85.4 96.1001 85.4H102.8C103.4 85.4 103.8 85.8 103.8 86.4C103.8 87 103.4 87.4 102.8 87.4H96.1001Z" fill="#192C53"/>
<path d="M125 116.3C124.4 116.3 124 115.9 124 115.3V108.4C124 107.8 124.4 107.4 125 107.4C125.6 107.4 126 107.8 126 108.4V115.3C126 115.9 125.6 116.3 125 116.3Z" fill="#192C53"/>
<path d="M154 87.4H146.8C146.2 87.4 145.8 87 145.8 86.4C145.8 85.8 146.2 85.4 146.8 85.4H154C154.6 85.4 155 85.8 155 86.4C155 87 154.5 87.4 154 87.4Z" fill="#192C53"/>
<path d="M107 180C66.7 180 34 147.3 34 107C34 66.7 66.7 34 107 34C147.3 34 180 66.8 180 107C180 147.3 147.3 180 107 180ZM107 36C67.9 36 36 67.9 36 107C36 146.1 67.9 178 107 178C146.1 178 178 146.2 178 107C178 67.9 146.1 36 107 36Z" fill="#192C53"/>
</svg>
