<svg width="201" height="88" viewBox="0 0 201 88" fill="none" xmlns="http://www.w3.org/2000/svg">
<path d="M10.5982 10.8806C5.69497 10.8806 1.71484 15.0147 1.71484 20.1185C1.71484 25.2223 5.69098 29.3524 10.5982 29.3524C15.5054 29.3524 19.4816 25.2183 19.4816 20.1185C19.4816 15.0187 15.5094 10.8806 10.5982 10.8806ZM10.5982 24.7355C8.14859 24.7355 6.15852 22.6684 6.15852 20.1185C6.15852 17.5686 8.14859 15.5016 10.5982 15.5016C13.0478 15.5016 15.0419 17.5686 15.0419 20.1185C15.0419 22.6684 13.0558 24.7355 10.5982 24.7355Z" fill="#192C53"/>
<path d="M12.1122 0.621224C12.1122 0.621224 12.0962 0.609253 12.0843 0.597282C11.2611 -0.168884 9.99828 -0.228741 9.10715 0.597282C9.09915 0.605262 9.09116 0.609253 9.07917 0.621224C5.147 4.44008 0.067934 6.6069 0 6.63882L1.75429 10.8807C2.45761 10.5774 6.66152 8.68592 10.5977 5.36986C14.5379 8.68991 18.7418 10.5774 19.4451 10.8807L21.1994 6.63882C21.1355 6.6069 16.0524 4.44008 12.1122 0.625215V0.621224Z" fill="#192C53"/>
<path d="M21.5986 9.8992C21.5986 9.18092 22.1901 8.59033 22.9134 8.59033C23.6367 8.59033 24.2241 9.18092 24.2241 9.8992C24.2241 10.6175 23.6367 11.2121 22.9134 11.2121C22.1901 11.2121 21.5986 10.6215 21.5986 9.8992ZM24.0163 9.8992C24.0163 9.26073 23.5567 8.80183 22.9173 8.80183C22.278 8.80183 21.8104 9.26073 21.8104 9.8992C21.8104 10.5377 22.274 11.0046 22.9173 11.0046C23.5607 11.0046 24.0163 10.5457 24.0163 9.8992ZM22.6176 10.6414H22.4258V9.14101H23.0732C23.4648 9.14101 23.5967 9.28866 23.5967 9.55602C23.5967 9.84333 23.3929 9.95506 23.1331 9.97502L23.5807 10.6414H23.3649L22.9413 9.97502H22.6216V10.6414H22.6176ZM22.8814 9.79944C23.0892 9.79944 23.3849 9.83535 23.3849 9.55203C23.3849 9.34453 23.2091 9.31659 23.0292 9.31659H22.6176V9.79944H22.8814Z" fill="#192C53"/>
<path d="M11.6087 40.5138C11.3609 38.7022 9.79446 37.9639 8.1041 37.9639C4.29181 37.9639 3.13693 41.4196 3.13693 44.4683C3.13693 47.517 4.29181 50.9728 8.1041 50.9728C9.7545 50.9728 11.4009 50.1507 11.7725 48.2992H13.2151C12.7836 50.7892 10.4938 52.2098 8.1041 52.2098C3.59249 52.2098 1.69434 48.5865 1.69434 44.4723C1.69434 40.3582 3.61247 36.7349 8.1041 36.7349C10.5377 36.7349 12.8435 37.8442 13.0513 40.5218H11.6087V40.5138Z" fill="#192C53"/>
<path d="M15.6044 47.0179C15.6444 49.2206 16.6554 51.0722 19.1889 51.0722C20.6515 51.0722 21.8663 50.0227 22.178 48.6021H23.4768C22.8374 51.0722 21.2909 52.2015 18.7973 52.2015C15.7043 52.2015 14.2617 49.5478 14.2617 46.7266C14.2617 43.9054 15.8082 41.2517 18.8772 41.2517C22.3379 41.2517 23.5966 43.7817 23.5966 47.0139H15.6004L15.6044 47.0179ZM22.2619 45.8846C22.1181 43.8894 21.0471 42.385 18.9012 42.385C16.8832 42.385 15.8082 44.073 15.6444 45.8846H22.2579H22.2619Z" fill="#192C53"/>
<path d="M27.0457 51.8944H25.8109V43.8896C25.8109 43.0875 25.751 42.2654 25.707 41.5631H26.9858L27.0457 43.0875L27.0857 43.1274C27.805 41.8504 28.9798 41.2559 30.3225 41.2559C33.7033 41.2559 33.971 44.2407 33.971 45.4339V51.8944H32.7362V45.2264C32.7362 43.4346 31.7052 42.3852 30.0148 42.3852C27.9728 42.3852 27.0457 44.0931 27.0457 45.9446V51.8904V51.8944Z" fill="#192C53"/>
<path d="M37.6157 42.6967H35.5537V41.5634H37.6157V39.3606L38.8505 38.8259V41.5634H41.2002V42.6967H38.8505V49.6121C38.8305 50.5578 39.326 51.0726 40.2731 51.0726C40.6448 51.0726 41.0164 51.0527 41.3441 50.9489V52.0183C40.9525 52.1221 40.5009 52.2019 40.0853 52.2019C37.4678 52.2019 37.6117 50.5339 37.6117 49.1372V42.6967H37.6157Z" fill="#192C53"/>
<path d="M43.7773 47.0179C43.8172 49.2206 44.8282 51.0722 47.3618 51.0722C48.8244 51.0722 50.0392 50.0227 50.3509 48.6021H51.6496C51.0102 51.0722 49.4637 52.2015 46.9702 52.2015C43.8772 52.2015 42.4346 49.5478 42.4346 46.7266C42.4346 43.9054 43.9811 41.2517 47.0501 41.2517C50.5107 41.2517 51.7695 43.7817 51.7695 47.0139H43.7733L43.7773 47.0179ZM50.4348 45.8846C50.2909 43.8894 49.22 42.385 47.0741 42.385C45.056 42.385 43.9811 44.073 43.8172 45.8846H50.4308H50.4348Z" fill="#192C53"/>
<path d="M55.2147 51.8941H53.9799V43.8893C53.9999 43.0872 53.9199 42.2652 53.876 41.5628H55.1547L55.2147 43.0872H55.2546C55.6263 42.0377 56.5534 41.2955 57.5844 41.2556C57.996 41.2356 58.4076 41.2556 58.8192 41.2755V42.4687C58.5714 42.4487 58.3037 42.3849 58.0559 42.3849C56.2217 42.3849 55.2546 43.7017 55.2107 45.677V51.8901L55.2147 51.8941Z" fill="#192C53"/>
<path d="M66.3876 51.8942V42.6962H64.3057V41.5629H66.3876V39.3602C66.3876 37.5885 67.1109 36.7864 68.8812 36.7864C69.2728 36.7864 69.6844 36.93 70.0561 37.0138V38.0035C69.8083 37.9636 69.5406 37.9197 69.2928 37.9197C67.6025 37.9197 67.5625 38.7616 67.6224 40.2461V41.5629H69.9722V42.6962H67.6224V51.8942H66.3876Z" fill="#192C53"/>
<path d="M80.3175 46.7308C80.3175 49.4482 78.791 52.2057 75.4942 52.2057C72.1974 52.2057 70.6709 49.4482 70.6709 46.7308C70.6709 44.0133 72.1974 41.2559 75.4942 41.2559C78.791 41.2559 80.3175 44.0133 80.3175 46.7308ZM75.4942 42.3891C73.0006 42.3891 72.0096 44.8193 72.0096 46.7308C72.0096 48.6422 73.0006 51.0724 75.4942 51.0724C77.9878 51.0724 78.9788 48.6422 78.9788 46.7308C78.9788 44.8193 77.9878 42.3891 75.4942 42.3891Z" fill="#192C53"/>
<path d="M83.575 51.8941H82.3402V43.8893C82.3602 43.0872 82.2803 42.2652 82.2363 41.5628H83.5151L83.575 43.0872H83.615C83.9866 42.0377 84.9137 41.2955 85.9447 41.2556C86.3563 41.2356 86.7679 41.2556 87.1795 41.2755V42.4687C86.9318 42.4487 86.664 42.3849 86.4163 42.3849C84.582 42.3849 83.615 43.7017 83.571 45.677V51.8901L83.575 51.8941Z" fill="#192C53"/>
<path d="M4.91096 73.9695H3.57227V59.113H8.43554C9.73427 59.113 10.8052 59.1968 11.9401 59.8952C12.9711 60.5137 13.4666 61.5831 13.4666 63.0037C13.4666 64.6079 12.3317 65.7611 10.6014 66.1921V66.232C12.4956 66.5393 12.9112 67.8162 13.095 69.5441C13.3627 71.9503 13.2788 73.0636 13.8782 73.9695H12.3317C11.9801 72.9798 11.9002 71.9304 11.8162 70.8809C11.5085 67.485 11.3008 66.8904 8.60337 66.8904H4.91096V73.9695ZM7.77618 65.6574C9.67034 65.6574 12.0201 65.5337 12.0201 63.0037C12.0201 60.1426 9.34265 60.3501 7.92004 60.3501H4.91096V65.6614H7.77618V65.6574Z" fill="#192C53"/>
<path d="M16.6161 69.0933C16.6561 71.2961 17.6671 73.1476 20.2006 73.1476C21.6632 73.1476 22.878 72.0982 23.1897 70.6776H24.4885C23.8491 73.1476 22.3026 74.2769 19.809 74.2769C16.716 74.2769 15.2734 71.6233 15.2734 68.802C15.2734 65.9808 16.8199 63.3271 19.8889 63.3271C23.3496 63.3271 24.6084 65.8571 24.6084 69.0894H16.6121L16.6161 69.0933ZM23.2737 67.9601C23.1298 65.9648 22.0588 64.4604 19.9129 64.4604C17.8949 64.4604 16.8199 66.1484 16.6561 67.9601H23.2697H23.2737Z" fill="#192C53"/>
<path d="M27.8485 77.9199H26.6137V65.9645C26.6336 65.1624 26.5537 64.3404 26.5098 63.6381H27.7885L27.8485 65.1624L27.8884 65.2023C28.6077 63.9892 30.0503 63.3308 31.433 63.3308C34.502 63.3308 35.6769 66.0882 35.6769 68.7618C35.6769 71.4354 34.502 74.2766 31.4929 74.2766C29.9904 74.2766 28.7316 73.5982 27.8884 72.3612H27.8485V77.9159V77.9199ZM31.373 73.1473C33.7427 73.1473 34.3422 70.5336 34.3422 68.6182C34.3422 66.7027 33.5389 64.4601 31.1892 64.4601C28.8395 64.4601 27.8525 66.4553 27.8525 68.5543C27.8525 70.9007 28.6757 73.1433 31.377 73.1433L31.373 73.1473Z" fill="#192C53"/>
<path d="M38.9783 73.9696H37.7435V65.9647C37.7635 65.1626 37.6836 64.3406 37.6396 63.6383H38.9184L38.9783 65.1626H39.0183C39.3899 64.1131 40.317 63.3709 41.348 63.331C41.7596 63.3111 42.1712 63.331 42.5828 63.351V64.5441C42.3351 64.5242 42.0673 64.4603 41.8196 64.4603C39.9854 64.4603 39.0183 65.7772 38.9743 67.7524V73.9656L38.9783 73.9696Z" fill="#192C53"/>
<path d="M52.9689 68.8057C52.9689 71.5232 51.4424 74.2806 48.1456 74.2806C44.8488 74.2806 43.3223 71.5232 43.3223 68.8057C43.3223 66.0882 44.8488 63.3308 48.1456 63.3308C51.4424 63.3308 52.9689 66.0882 52.9689 68.8057ZM48.1456 64.4641C45.652 64.4641 44.661 66.8943 44.661 68.8057C44.661 70.7171 45.652 73.1473 48.1456 73.1473C50.6391 73.1473 51.6302 70.7171 51.6302 68.8057C51.6302 66.8943 50.6391 64.4641 48.1456 64.4641Z" fill="#192C53"/>
<path d="M62.1194 72.449L62.0794 72.3652C61.2363 73.5983 59.9775 74.2806 58.5349 74.2806C55.4659 74.2806 54.291 71.3596 54.291 68.7658C54.291 66.1721 55.4659 63.3348 58.5349 63.3348C59.9175 63.3348 61.3601 63.9933 62.0794 65.2064L62.1194 65.1665V59.1169H63.3542V71.6509C63.3542 72.453 63.4142 73.275 63.4581 73.9774H62.1794L62.1194 72.453V72.449ZM58.7387 64.4641C56.389 64.4641 55.6257 66.6469 55.6257 68.6222C55.6257 70.5975 56.1812 73.1513 58.5509 73.1513C61.2523 73.1513 62.0754 70.9087 62.0754 68.5623C62.0754 66.4634 61.1484 64.4681 58.7387 64.4681V64.4641Z" fill="#192C53"/>
<path d="M72.8374 63.6382H74.0722V71.643C74.0722 72.4451 74.1321 73.2671 74.1761 73.9694H72.8973L72.8374 72.4451L72.7974 72.4052C72.0741 73.6821 70.9033 74.2767 69.5606 74.2767C66.1799 74.2767 65.9121 71.2919 65.9121 70.0987V63.6382H67.1469V70.3062C67.1469 72.0979 68.1779 73.1474 69.8683 73.1474C71.9103 73.1474 72.8374 71.4395 72.8374 69.5879V63.6422V63.6382Z" fill="#192C53"/>
<path d="M83.3668 66.8105C83.2629 65.2263 82.2559 64.4641 80.5456 64.4641C78.6514 64.4641 77.4766 66.4394 77.4766 68.7857C77.4766 71.1321 78.6514 73.1473 80.5456 73.1473C82.152 73.1473 83.2669 72.1577 83.3668 70.7411H84.7055C84.3739 73.1074 83.0152 74.2806 80.6655 74.2806C77.5725 74.2806 76.1299 71.6269 76.1299 68.8057C76.1299 65.9845 77.6764 63.3308 80.7454 63.3308C82.8673 63.3308 84.5977 64.6078 84.7015 66.8105H83.3628H83.3668Z" fill="#192C53"/>
<path d="M87.4907 64.7714H85.4287V63.6381H87.4907V61.4354L88.7255 60.9006V63.6381H91.0752V64.7714H88.7255V71.6868C88.7055 72.6325 89.201 73.1473 90.1481 73.1473C90.5198 73.1473 90.8914 73.1274 91.2191 73.0236V74.0931C90.8275 74.1968 90.3759 74.2766 89.9603 74.2766C87.3428 74.2766 87.4867 72.6086 87.4867 71.2119V64.7714H87.4907Z" fill="#192C53"/>
<path d="M94.2922 60.6573H92.8496V59.113H94.2922V60.6573ZM94.1883 63.6422V73.9735H92.9535V63.6422H94.1883Z" fill="#192C53"/>
<path d="M96.9701 63.6382L100.535 72.2615L103.975 63.6382H105.334L101.234 73.9694H99.8313L95.6074 63.6382H96.9661H96.9701Z" fill="#192C53"/>
<path d="M107.048 69.0933C107.088 71.2961 108.099 73.1476 110.632 73.1476C112.095 73.1476 113.31 72.0982 113.621 70.6776H114.92C114.281 73.1476 112.734 74.2769 110.241 74.2769C107.148 74.2769 105.705 71.6233 105.705 68.802C105.705 65.9808 107.252 63.3271 110.321 63.3271C113.781 63.3271 115.04 65.8571 115.04 69.0894H107.044L107.048 69.0933ZM113.705 67.9601C113.561 65.9648 112.49 64.4604 110.345 64.4604C108.327 64.4604 107.252 66.1484 107.088 67.9601H113.701H113.705Z" fill="#192C53"/>
<path d="M122.793 73.9695V59.113H124.935L130.521 72.0581L136.228 59.113H138.27V73.9695H136.931V60.2423H136.891L131.205 73.9695H129.866L124.18 60.3062H124.14V73.9695H122.801H122.793Z" fill="#192C53"/>
<path d="M142.082 69.0933C142.122 71.2961 143.133 73.1476 145.666 73.1476C147.129 73.1476 148.344 72.0982 148.656 70.6776H149.954C149.315 73.1476 147.768 74.2769 145.275 74.2769C142.182 74.2769 140.739 71.6233 140.739 68.802C140.739 65.9808 142.286 63.3271 145.355 63.3271C148.815 63.3271 150.074 65.8571 150.074 69.0894H142.078L142.082 69.0933ZM148.739 67.9601C148.596 65.9648 147.525 64.4604 145.379 64.4604C143.361 64.4604 142.286 66.1484 142.122 67.9601H148.735H148.739Z" fill="#192C53"/>
<path d="M159.413 72.449L159.373 72.3652C158.53 73.5983 157.271 74.2806 155.829 74.2806C152.76 74.2806 151.585 71.3596 151.585 68.7658C151.585 66.1721 152.76 63.3348 155.829 63.3348C157.211 63.3348 158.654 63.9933 159.373 65.2064L159.413 65.1665V59.1169H160.648V71.6509C160.648 72.453 160.708 73.275 160.752 73.9774H159.473L159.413 72.453V72.449ZM156.033 64.4641C153.683 64.4641 152.92 66.6469 152.92 68.6222C152.92 70.5975 153.475 73.1513 155.845 73.1513C158.546 73.1513 159.369 70.9087 159.369 68.5623C159.369 66.4634 158.442 64.4681 156.033 64.4681V64.4641Z" fill="#192C53"/>
<path d="M164.568 60.6573H163.125V59.113H164.568V60.6573ZM164.464 63.6422V73.9735H163.229V63.6422H164.464Z" fill="#192C53"/>
<path d="M173.779 66.8105C173.675 65.2263 172.668 64.4641 170.958 64.4641C169.064 64.4641 167.889 66.4394 167.889 68.7857C167.889 71.1321 169.064 73.1473 170.958 73.1473C172.564 73.1473 173.679 72.1577 173.779 70.7411H175.118C174.786 73.1074 173.427 74.2806 171.078 74.2806C167.985 74.2806 166.542 71.6269 166.542 68.8057C166.542 65.9845 168.088 63.3308 171.157 63.3308C173.279 63.3308 175.01 64.6078 175.114 66.8105H173.775H173.779Z" fill="#192C53"/>
<path d="M178.374 60.6573H176.932V59.113H178.374V60.6573ZM178.27 63.6422V73.9735H177.036V63.6422H178.27Z" fill="#192C53"/>
<path d="M182.291 73.9693H181.056V65.9645C181.056 65.1624 180.996 64.3404 180.952 63.6381H182.231L182.291 65.1624L182.331 65.2023C183.05 63.9254 184.225 63.3308 185.568 63.3308C188.948 63.3308 189.216 66.3157 189.216 67.5088V73.9693H187.981V67.3013C187.981 65.5096 186.95 64.4601 185.26 64.4601C183.218 64.4601 182.291 66.168 182.291 68.0196V73.9654V73.9693Z" fill="#192C53"/>
<path d="M192.697 69.0933C192.737 71.2961 193.748 73.1476 196.282 73.1476C197.744 73.1476 198.959 72.0982 199.271 70.6776H200.57C199.93 73.1476 198.384 74.2769 195.89 74.2769C192.797 74.2769 191.354 71.6233 191.354 68.802C191.354 65.9808 192.901 63.3271 195.97 63.3271C199.431 63.3271 200.689 65.8571 200.689 69.0894H192.693L192.697 69.0933ZM199.355 67.9601C199.211 65.9648 198.14 64.4604 195.994 64.4604C193.976 64.4604 192.901 66.1484 192.737 67.9601H199.351H199.355Z" fill="#192C53"/>
<path d="M5.37059 87.9001V82.4651H3.30859V81.8386H8.08795V82.4651H6.02595V87.9001H5.37059Z" fill="#192C53"/>
<path d="M12.5631 85.0548V87.9H11.9317V85.2105C11.9317 84.4164 11.4522 84.0492 10.9407 84.0492C10.3053 84.0492 9.606 84.6119 9.606 85.6813V87.9H8.97461V81.8425H9.606V84.3286C9.9057 83.718 10.4891 83.4227 11.0646 83.4227C11.8358 83.4227 12.5631 83.9495 12.5631 85.0548Z" fill="#192C53"/>
<path d="M16.9077 85.4142C16.8957 84.4485 16.2603 84.0295 15.6409 84.0295C14.9656 84.0295 14.3661 84.5083 14.2942 85.4142H16.9077ZM17.4991 87.0782C17.0116 87.7007 16.3562 88 15.7008 88C14.5939 88 13.6309 87.174 13.6309 85.7055C13.6309 84.237 14.6499 83.4189 15.7288 83.4189C16.9476 83.4189 17.571 84.4046 17.571 85.5179C17.571 85.6576 17.563 85.8412 17.5351 86.0167H14.3222C14.4381 86.9744 15.0495 87.3815 15.7648 87.3815C16.2843 87.3815 16.7558 87.17 17.0835 86.6712L17.4991 87.0742V87.0782Z" fill="#192C53"/>
<path d="M22.0267 84.584C22.8938 84.584 23.2495 84.0333 23.2495 83.4906C23.2495 82.9479 22.9218 82.465 22.0906 82.465H20.9757V84.584H22.0267ZM22.1345 81.8425C23.3574 81.8425 23.9048 82.6686 23.9048 83.4826C23.9048 84.3565 23.2774 85.2145 22.0626 85.2145H20.9757V87.904H20.3203V81.8465H22.1345V81.8425Z" fill="#192C53"/>
<path d="M27.1377 83.5986L26.9978 84.2411C26.838 84.1653 26.6622 84.1214 26.4943 84.1214C25.9189 84.1214 25.5113 84.5643 25.5113 85.3584V87.9003H24.8799V83.5348H25.5113V84.1254C25.743 83.6665 26.1427 83.4829 26.5463 83.4829C26.7581 83.4829 26.9699 83.5188 27.1377 83.6026V83.5986Z" fill="#192C53"/>
<path d="M30.77 85.4142C30.762 84.4485 30.1226 84.0295 29.5032 84.0295C28.8279 84.0295 28.2284 84.5083 28.1565 85.4142H30.77ZM31.3654 87.0782C30.8779 87.7007 30.2225 88 29.5671 88C28.4602 88 27.4932 87.174 27.4932 85.7055C27.4932 84.237 28.5122 83.4189 29.5911 83.4189C30.8139 83.4189 31.4333 84.4046 31.4333 85.5179C31.4333 85.6576 31.4213 85.8412 31.3974 86.0167H28.1845C28.3004 86.9744 28.9078 87.3815 29.6271 87.3815C30.1506 87.3815 30.6181 87.17 30.9458 86.6712L31.3614 87.0742L31.3654 87.0782Z" fill="#192C53"/>
<path d="M34.3541 87.8044C34.1423 87.9241 33.8866 87.988 33.6348 87.988C33.0594 87.988 32.5039 87.6249 32.5039 86.6592V81.8347H33.1313V86.6671C33.1313 87.2098 33.407 87.4134 33.7347 87.4134C33.8666 87.4134 33.9985 87.3774 34.1343 87.3216L34.3541 87.8004V87.8044Z" fill="#192C53"/>
<path d="M37.823 87.9002V87.1181C37.5233 87.7167 36.9918 87.992 36.4323 87.992C35.6691 87.992 34.9258 87.4573 34.9258 86.3639V83.5347H35.5572V86.2043C35.5572 87.0143 36.0247 87.3735 36.5322 87.3735C37.1516 87.3735 37.823 86.8228 37.823 85.7534V83.5347H38.4504V87.9002H37.823Z" fill="#192C53"/>
<path d="M43.0781 85.7454C43.0781 84.6121 42.3149 84.0414 41.5836 84.0414C40.8523 84.0414 40.149 84.5761 40.149 85.6695C40.149 86.7629 40.9282 87.3655 41.6635 87.3655C42.3988 87.3655 43.0821 86.8188 43.0821 85.7454H43.0781ZM43.0781 87.9002V87.2537C42.7584 87.7126 42.211 87.98 41.6355 87.98C40.5885 87.98 39.5176 87.1979 39.5176 85.6775C39.5176 84.1572 40.6045 83.4189 41.6275 83.4189C42.175 83.4189 42.7345 83.6783 43.0781 84.1731V81.8347H43.7055V87.8922H43.0781V87.9002Z" fill="#192C53"/>
<path d="M48.0493 85.4142C48.0413 84.4485 47.4019 84.0295 46.7825 84.0295C46.1112 84.0295 45.5077 84.5083 45.4358 85.4142H48.0493ZM48.6447 87.0782C48.1572 87.7007 47.5018 88 46.8464 88C45.7395 88 44.7725 87.174 44.7725 85.7055C44.7725 84.237 45.7915 83.4189 46.8704 83.4189C48.0932 83.4189 48.7126 84.4046 48.7126 85.5179C48.7126 85.6576 48.7006 85.8412 48.6767 86.0167H45.4638C45.5797 86.9744 46.1871 87.3815 46.9064 87.3815C47.4299 87.3815 47.8974 87.17 48.2251 86.6712L48.6407 87.0742L48.6447 87.0782Z" fill="#192C53"/>
<path d="M52.1173 81.8386L55.466 86.6551V81.8386H56.1214V87.9001H55.466L52.1173 83.0278V87.9001H51.4619V81.8386H52.1173Z" fill="#192C53"/>
<path d="M60.5532 85.4142C60.5452 84.4485 59.9098 84.0295 59.2864 84.0295C58.6111 84.0295 58.0117 84.5083 57.9397 85.4142H60.5492H60.5532ZM61.1486 87.0782C60.6611 87.7007 60.0097 88 59.3504 88C58.2434 88 57.2764 87.174 57.2764 85.7055C57.2764 84.237 58.2954 83.4189 59.3743 83.4189C60.5971 83.4189 61.2165 84.4046 61.2165 85.5179C61.2165 85.6576 61.2046 85.8412 61.1806 86.0167H57.9677C58.0796 86.9744 58.691 87.3815 59.4103 87.3815C59.9378 87.3815 60.4013 87.17 60.729 86.6712L61.1446 87.0742L61.1486 87.0782Z" fill="#192C53"/>
<path d="M64.665 87.613C64.4173 87.8524 64.0896 87.9921 63.7379 87.9921C63.1265 87.9921 62.5511 87.601 62.5511 86.6632V84.1413H61.7559V83.5347H62.5511V82.4214H63.1825V83.5347H64.2255V84.1413H63.1825V86.6752C63.1825 87.182 63.4382 87.4214 63.7819 87.4214C63.9777 87.4214 64.2175 87.3296 64.3773 87.182L64.669 87.617L64.665 87.613Z" fill="#192C53"/>
<path d="M69.7039 87.9001L68.5171 84.3885L67.3223 87.9001H66.6469L65.1084 83.5305H65.8237L66.9866 86.9982L68.1534 83.5305H68.8727L70.0436 86.9982L71.2025 83.5305H71.9178L70.3753 87.9001H69.7039Z" fill="#192C53"/>
<path d="M72.9926 85.6974C72.9926 86.6751 73.62 87.3854 74.5072 87.3854C75.3943 87.3854 76.0217 86.6751 76.0217 85.6974C76.0217 84.7197 75.3943 84.0214 74.5072 84.0214C73.62 84.0214 72.9926 84.7317 72.9926 85.6974ZM76.6491 85.7094C76.6491 87.0182 75.7459 87.9959 74.5072 87.9959C73.2684 87.9959 72.3652 87.0182 72.3652 85.7094C72.3652 84.4005 73.2684 83.4229 74.5072 83.4229C75.7459 83.4229 76.6491 84.4005 76.6491 85.7094Z" fill="#192C53"/>
<path d="M79.9736 83.5986L79.8338 84.2411C79.6739 84.1653 79.4981 84.1214 79.3303 84.1214C78.7548 84.1214 78.3472 84.5643 78.3472 85.3584V87.9003H77.7158V83.5348H78.3472V84.1254C78.579 83.6665 78.9746 83.4829 79.3822 83.4829C79.594 83.4829 79.8058 83.5188 79.9736 83.6026V83.5986Z" fill="#192C53"/>
<path d="M81.4008 87.9001H80.7734V81.8386H81.4008V85.4859L83.3349 83.5306H84.1901L82.1041 85.6136L84.4579 87.9001H83.5188L81.4008 85.7971V87.9001Z" fill="#192C53"/>
<path d="M84.5977 82.8963C84.5977 82.4295 84.9813 82.0464 85.4528 82.0464C85.9244 82.0464 86.304 82.4295 86.304 82.8963C86.304 83.3632 85.9244 83.7503 85.4528 83.7503C84.9813 83.7503 84.5977 83.3672 84.5977 82.8963ZM86.1681 82.8963C86.1681 82.4813 85.8684 82.1821 85.4528 82.1821C85.0372 82.1821 84.7335 82.4813 84.7335 82.8963C84.7335 83.3114 85.0332 83.6146 85.4528 83.6146C85.8724 83.6146 86.1681 83.3153 86.1681 82.8963ZM85.257 83.3792H85.1331V82.4055H85.5527C85.8085 82.4055 85.8924 82.5013 85.8924 82.6769C85.8924 82.8644 85.7605 82.9363 85.5927 82.9482L85.8844 83.3792H85.7445L85.4688 82.9482H85.261V83.3792H85.257ZM85.4288 82.8325C85.5647 82.8325 85.7565 82.8564 85.7565 82.6729C85.7565 82.5372 85.6446 82.5173 85.5248 82.5173H85.257V82.8325H85.4288Z" fill="#192C53"/>
</svg>
