<svg width="214" height="214" viewBox="0 0 214 214" fill="none" xmlns="http://www.w3.org/2000/svg">
<path d="M107 212C164.99 212 212 164.99 212 107C212 49.0101 164.99 2 107 2C49.0101 2 2 49.0101 2 107C2 164.99 49.0101 212 107 212Z" stroke="#DECA75" stroke-width="0" stroke-miterlimit="10"/>
<path d="M153.7 178.6H124.7C121.9 178.6 119.6 176.3 119.6 173.5V150.9C119.6 148.7 120.6 145.4 121.9 143.6L125.9 137.9C127 136.4 127.6 134.7 127.6 134.3C127.6 132.4 129.7 131.1 132.7 131.1H145.7C148.7 131.1 150.8 132.5 150.8 134.4C150.8 134.8 151.4 136.4 152.5 138L156.5 143.7C157.8 145.5 158.8 148.7 158.8 151V173.7C158.8 176.3 156.5 178.6 153.7 178.6ZM130.7 134.6C130.5 136 129.5 138.2 128.4 139.7L124.4 145.4C123.5 146.7 122.7 149.3 122.7 150.8V173.5C122.7 174.5 123.6 175.4 124.6 175.4H153.6C154.6 175.4 155.5 174.5 155.5 173.5V150.9C155.5 149.3 154.7 146.8 153.8 145.5L149.8 139.8C148.7 138.3 147.7 136.2 147.5 134.7C147.2 134.5 146.6 134.3 145.6 134.3H132.6C131.7 134.2 131 134.5 130.7 134.6Z" fill="#192C53"/>
<path d="M150.1 134.6H128.2C124.6 134.6 121.6 131.6 121.6 128V125.5C121.6 121.9 124.6 118.9 128.2 118.9H150.1C153.7 118.9 156.7 121.9 156.7 125.5V128C156.7 131.6 153.7 134.6 150.1 134.6ZM128.2 122.7C126.7 122.7 125.4 123.9 125.4 125.5V128C125.4 129.5 126.6 130.8 128.2 130.8H150.1C151.6 130.8 152.9 129.6 152.9 128V125.5C152.9 124 151.7 122.7 150.1 122.7H128.2Z" fill="#192C53"/>
<path d="M99.1999 123.4C97.1999 123.4 95.1999 122.7 93.6999 121.4C91.8999 122.3 89.7999 122.5 87.8999 122C85.8999 121.5 84.1999 120.2 83.0999 118.6C81.0999 119 78.9999 118.6 77.2999 117.6C75.4999 116.6 74.1999 115 73.4999 113.1C71.4999 112.9 69.5999 112.1 68.1999 110.6C66.6999 109.1 65.8999 107.3 65.6999 105.3C63.7999 104.6 62.1999 103.3 61.1999 101.5C60.1999 99.8 59.7999 97.7 60.1999 95.7C58.4999 94.5 57.2999 92.8 56.7999 90.9C56.2999 88.9 56.4999 86.9 57.3999 85C56.0999 83.5 55.3999 81.5 55.3999 79.5C55.3999 77.5 56.0999 75.5 57.3999 74C56.4999 72.2 56.2999 70.1 56.7999 68.2C57.2999 66.2 58.4999 64.5 60.1999 63.4C59.7999 61.4 60.1999 59.3 61.1999 57.6C62.1999 55.8 63.7999 54.5 65.6999 53.8C65.8999 51.8 66.6999 49.9 68.1999 48.5C69.6999 47 71.4999 46.2 73.4999 46C74.1999 44.1 75.4999 42.5 77.2999 41.5C79.0999 40.5 81.0999 40.1 83.0999 40.5C84.2999 38.8 85.9999 37.6 87.8999 37.1C89.8999 36.6 91.8999 36.8 93.7999 37.7C95.2999 36.4 97.2999 35.7 99.2999 35.7C101.3 35.7 103.3 36.4 104.8 37.7C106.6 36.8 108.7 36.6 110.6 37.1C112.6 37.6 114.3 38.8 115.4 40.5C117.4 40.1 119.5 40.5 121.2 41.5C123 42.5 124.3 44.1 125 46C127 46.2 128.9 47 130.3 48.5C131.8 50 132.6 51.8 132.8 53.8C134.7 54.5 136.3 55.8 137.3 57.6C138.3 59.3 138.7 61.4 138.3 63.4C140 64.6 141.2 66.3 141.7 68.2C142.2 70.2 142 72.2 141.1 74.1C142.4 75.6 143.1 77.6 143.1 79.6C143.1 81.6 142.4 83.6 141.1 85.1C142 86.9 142.2 89 141.7 90.9C141.2 92.9 140 94.6 138.3 95.7C138.7 97.7 138.3 99.8 137.3 101.5C136.3 103.3 134.7 104.6 132.8 105.3C132.6 107.3 131.8 109.2 130.3 110.6C128.8 112.1 127 112.9 125 113.1C124.3 115 123 116.6 121.2 117.6C119.4 118.6 117.4 119 115.4 118.6C114.2 120.3 112.5 121.5 110.6 122C108.6 122.5 106.6 122.3 104.7 121.4C103.2 122.7 101.2 123.4 99.1999 123.4ZM93.8999 118C94.2999 118 94.6999 118.2 94.9999 118.5C96.0999 119.7 97.5999 120.4 99.0999 120.4C100.6 120.4 102.2 119.7 103.2 118.5C103.7 117.9 104.5 117.8 105.2 118.2C106.6 119.1 108.2 119.4 109.7 119C111.2 118.6 112.5 117.5 113.2 116.1C113.5 115.4 114.3 115.1 115 115.4C116.5 115.9 118.2 115.8 119.5 115C120.9 114.2 121.8 112.8 122.2 111.3C122.3 110.6 123.1 110.1 123.8 110.1C125.4 110.2 126.9 109.6 128.1 108.5C129.2 107.4 129.8 105.8 129.7 104.2C129.7 103.5 130.2 102.8 130.9 102.6C132.5 102.3 133.8 101.3 134.6 99.9C135.4 98.5 135.5 96.9 135 95.4C134.8 94.7 135.1 93.9 135.7 93.6C137.2 92.9 138.2 91.6 138.6 90.1C139 88.6 138.7 87 137.8 85.6C137.4 85 137.5 84.1 138.1 83.6C139.3 82.5 140 81 140 79.4C140 77.8 139.3 76.3 138.1 75.3C137.5 74.8 137.4 74 137.8 73.3C138.7 71.9 139 70.3 138.6 68.8C138.2 67.3 137.1 66 135.7 65.3C135 65 134.7 64.2 135 63.5C135.5 62 135.4 60.3 134.6 59C133.8 57.6 132.5 56.7 130.9 56.3C130.2 56.2 129.7 55.5 129.7 54.7C129.8 53.1 129.2 51.6 128.1 50.4C127 49.3 125.4 48.7 123.8 48.8C123.1 48.8 122.4 48.3 122.2 47.6C121.9 46 120.9 44.7 119.5 43.9C118.1 43.1 116.5 43 115 43.5C114.3 43.7 113.5 43.4 113.2 42.8C112.5 41.3 111.2 40.3 109.7 39.9C108.2 39.5 106.6 39.8 105.2 40.7C104.6 41.1 103.7 41 103.2 40.4C102.1 39.2 100.6 38.5 99.0999 38.5C97.5999 38.5 95.9999 39.2 94.9999 40.4C94.4999 41 93.6999 41.1 92.9999 40.7C91.5999 39.8 89.9999 39.5 88.4999 39.9C86.9999 40.3 85.6999 41.4 84.9999 42.8C84.6999 43.5 83.8999 43.8 83.1999 43.5C81.6999 43 79.9999 43.1 78.6999 43.9C77.2999 44.7 76.3999 46.1 75.9999 47.6C75.8999 48.3 75.1999 48.8 74.3999 48.8C72.7999 48.7 71.2999 49.3 70.0999 50.4C68.9999 51.5 68.3999 53.1 68.4999 54.7C68.4999 55.4 67.9999 56.1 67.2999 56.3C65.6999 56.6 64.3999 57.6 63.5999 59C62.7999 60.4 62.6999 62 63.1999 63.5C63.3999 64.2 63.0999 65 62.4999 65.3C60.9999 66 59.9999 67.3 59.5999 68.8C59.1999 70.3 59.4999 71.9 60.3999 73.3C60.7999 73.9 60.6999 74.8 60.0999 75.3C58.8999 76.4 58.1999 77.9 58.1999 79.4C58.1999 80.9 58.8999 82.5 60.0999 83.6C60.6999 84.1 60.7999 84.9 60.3999 85.6C59.4999 87 59.1999 88.6 59.5999 90.1C59.9999 91.6 61.0999 92.9 62.4999 93.6C63.1999 93.9 63.4999 94.7 63.1999 95.4C62.6999 96.9 62.7999 98.6 63.5999 99.9C64.3999 101.3 65.6999 102.2 67.2999 102.6C67.9999 102.7 68.4999 103.4 68.4999 104.2C68.3999 105.8 68.9999 107.3 70.0999 108.5C71.1999 109.6 72.7999 110.2 74.3999 110.1C75.0999 110.1 75.7999 110.6 75.9999 111.3C76.2999 112.9 77.2999 114.2 78.6999 115C80.0999 115.8 81.6999 115.9 83.1999 115.4C83.8999 115.2 84.6999 115.5 84.9999 116.1C85.6999 117.6 86.9999 118.6 88.4999 119C89.9999 119.4 91.5999 119.1 92.9999 118.2C93.3999 118.1 93.5999 118 93.8999 118Z" fill="#192C53"/>
<path d="M99.2 116.1C79 116.1 62.5 99.6 62.5 79.4C62.5 71.7 64.9 64.3 69.3 58.1C69.8 57.4 70.7 57.3 71.4 57.8C72.1 58.3 72.2 59.2 71.7 59.9C67.6 65.6 65.5 72.4 65.5 79.4C65.5 98 80.6 113.1 99.2 113.1C117.8 113.1 132.9 98 132.9 79.4C132.9 60.8 117.8 45.7 99.2 45.7C92.3 45.7 85.6 47.8 79.9 51.7C79.2 52.2 78.3 52 77.8 51.3C77.3 50.6 77.5 49.7 78.2 49.2C84.4 44.9 91.6 42.6 99.2 42.6C119.4 42.6 135.9 59.1 135.9 79.3C135.9 99.6 119.4 116.1 99.2 116.1Z" fill="#192C53"/>
<path d="M74.3 56.1C73.9 56.1 73.5 56 73.2 55.7C72.6 55.1 72.6 54.2 73.2 53.6L73.4 53.4C74 52.8 74.9 52.8 75.5 53.4C76.1 54 76.1 54.9 75.5 55.5L75.3 55.7C75.1 55.9 74.7 56.1 74.3 56.1Z" fill="#192C53"/>
<path d="M106.5 76.5C100.8 76.5 96.2 71.9 96.2 66.2C96.2 60.5 100.8 55.9 106.5 55.9C112.2 55.9 116.8 60.5 116.8 66.2C116.8 71.9 112.2 76.5 106.5 76.5ZM106.5 58.9C102.5 58.9 99.2 62.2 99.2 66.2C99.2 70.2 102.5 73.5 106.5 73.5C110.5 73.5 113.8 70.2 113.8 66.2C113.8 62.2 110.6 58.9 106.5 58.9Z" fill="#192C53"/>
<path d="M91.9001 56H91.6001C90.8001 56 90.1001 55.3 90.1001 54.5C90.1001 53.7 90.8001 53 91.6001 53H91.9001C92.7001 53 93.4001 53.7 93.4001 54.5C93.4001 55.3 92.7001 56 91.9001 56Z" fill="#192C53"/>
<path d="M88.9001 79.5H88.6001C87.8001 79.5 87.1001 78.8 87.1001 78C87.1001 77.2 87.8001 76.5 88.6001 76.5H88.9001C89.7001 76.5 90.4001 77.2 90.4001 78C90.4001 78.8 89.8001 79.5 88.9001 79.5Z" fill="#192C53"/>
<path d="M77.5 67.7H77.2C76.4 67.7 75.7 67 75.7 66.2C75.7 65.4 76.4 64.7 77.2 64.7H77.5C78.3 64.7 79 65.4 79 66.2C79 67 78.3 67.7 77.5 67.7Z" fill="#192C53"/>
<path d="M127.1 79.5H126.8C126 79.5 125.3 78.8 125.3 78C125.3 77.2 126 76.5 126.8 76.5H127.1C127.9 76.5 128.6 77.2 128.6 78C128.6 78.8 127.9 79.5 127.1 79.5Z" fill="#192C53"/>
<path d="M109.5 105.8H109.2C108.4 105.8 107.7 105.1 107.7 104.3C107.7 103.5 108.4 102.8 109.2 102.8H109.5C110.3 102.8 111 103.5 111 104.3C111 105.1 110.3 105.8 109.5 105.8Z" fill="#192C53"/>
<path d="M115.6 94.1H115.3C114.5 94.1 113.8 93.4 113.8 92.6C113.8 91.8 114.5 91.1 115.3 91.1H115.6C116.4 91.1 117.1 91.8 117.1 92.6C117.1 93.4 116.4 94.1 115.6 94.1Z" fill="#192C53"/>
<path d="M98 91.2H97.7C96.9 91.2 96.2 90.5 96.2 89.7C96.2 88.9 96.9 88.2 97.7 88.2H98C98.8 88.2 99.5 88.9 99.5 89.7C99.5 90.5 98.9 91.2 98 91.2Z" fill="#192C53"/>
<path d="M83.4001 100H83.1001C82.3001 100 81.6001 99.3 81.6001 98.5C81.6001 97.7 82.3001 97 83.1001 97H83.4001C84.2001 97 84.9001 97.7 84.9001 98.5C84.9001 99.3 84.2001 100 83.4001 100Z" fill="#192C53"/>
<path d="M74.3 88.2H74C73.2 88.2 72.5 87.5 72.5 86.7C72.5 85.9 73.2 85.2 74 85.2H74.3C75.1 85.2 75.8 85.9 75.8 86.7C75.8 87.5 75.1 88.2 74.3 88.2Z" fill="#192C53"/>
</svg>
