<svg width="214" height="214" viewBox="0 0 214 214" fill="none" xmlns="http://www.w3.org/2000/svg">
<path d="M107 212C164.99 212 212 164.99 212 107C212 49.0101 164.99 2 107 2C49.0101 2 2 49.0101 2 107C2 164.99 49.0101 212 107 212Z" stroke="#DECA75" stroke-width="0" stroke-miterlimit="10"/>
<path d="M114.6 94.2C119.9 90.9 124.8 85.2 124.8 73.9C124.8 73.3 124.3 72.8 123.7 72.8H119.3C118.7 72.8 118.2 73.3 118.2 73.9C118.2 75.1 118.1 76.2 118 77.2H96.3C96.2 76.2 96.1 75.1 96.1 73.9C96.1 73.3 95.6 72.8 95 72.8H90.6C90 72.8 89.5 73.3 89.5 73.9C89.5 83.2 92.9 89.8 99.6 94.1C94.1 97.7 89.5 103.9 89.5 115.8C89.5 116.4 90 116.9 90.6 116.9H95C95.6 116.9 96.1 116.4 96.1 115.8C96.1 114.6 96.2 113.5 96.3 112.5H118C118.1 113.5 118.2 114.6 118.2 115.8C118.2 116.4 118.7 116.9 119.3 116.9H123.7C124.3 116.9 124.8 116.4 124.8 115.8C124.8 105.8 121.4 98.8 114.6 94.2ZM117.6 79.5C117.2 81.2 116.7 82.6 115.9 83.9H98.3C97.6 82.6 97 81.2 96.6 79.5H117.6ZM107.1 90.5C104.2 89.4 101.8 88 100 86.1H114.3C112.6 87.9 110.2 89.3 107.1 90.5ZM91.7 75.1H93.9C94.1 83.4 97.2 88.4 104.2 91.7C103.4 92.1 102.5 92.4 101.7 92.9C95.2 89.2 92 83.5 91.7 75.1ZM91.7 114.7C92.1 100.2 100.2 95.4 107.3 92.8C116.2 89.5 120.1 84.3 120.3 75H122.5C122.2 85.2 117.7 91.3 108 94.8C98.3 98.4 94.1 104.1 93.9 114.6H91.7V114.7ZM107.1 97.6C110.7 99.1 113.3 101.1 115.1 103.7H99.2C101.1 100.9 103.8 99 107.1 97.6ZM96.6 110.3C96.9 108.6 97.4 107.2 97.9 105.9H116.3C116.9 107.2 117.3 108.7 117.6 110.3H96.6ZM120.4 114.7C120.2 105.7 117 100.1 110 96.5C110.8 96.2 111.7 95.8 112.5 95.4C119.1 99.4 122.4 105.5 122.6 114.7H120.4Z" fill="#192C53"/>
<path d="M155.1 167.7H58.8999V46.3H155.2V167.7H155.1ZM60.8999 165.7H153.2V48.3H60.8999V165.7Z" fill="#192C53"/>
<path d="M125.2 61H90.2V47H125.2V61ZM92.2 59H123.2V49H92.2V59Z" fill="#192C53"/>
<path d="M135.3 128.3H77.2998V130.3H135.3V128.3Z" fill="#192C53"/>
<path d="M135.3 137.6H77.2998V139.6H135.3V137.6Z" fill="#192C53"/>
<path d="M135.3 146.9H77.2998V148.9H135.3V146.9Z" fill="#192C53"/>
</svg>
