<svg width="214" height="214" viewBox="0 0 214 214" fill="none" xmlns="http://www.w3.org/2000/svg">
<path d="M107 212C164.99 212 212 164.99 212 107C212 49.0101 164.99 2 107 2C49.0101 2 2 49.0101 2 107C2 164.99 49.0101 212 107 212Z" stroke="#DECA75" stroke-width="0" stroke-miterlimit="10"/>
<path d="M126.9 165.6H87.1C86.5 165.6 86 165.1 86 164.5V153.4C86 152.8 86.5 152.3 87.1 152.3H126.9C127.5 152.3 128 152.8 128 153.4V164.5C128 165.1 127.5 165.6 126.9 165.6ZM88.2 163.4H125.8V154.5H88.2V163.4Z" fill="#192C53"/>
<path d="M160.1 154.6H53.9C50.8 154.6 48.4 152.1 48.4 149.1V140.2C48.4 139.6 48.9 139.1 49.5 139.1H164.6C165.2 139.1 165.7 139.6 165.7 140.2V149.1C165.6 152.1 163.2 154.6 160.1 154.6ZM50.6 141.3V149C50.6 150.8 52.1 152.3 53.9 152.3H160.1C161.9 152.3 163.4 150.8 163.4 149V141.3H50.6Z" fill="#192C53"/>
<path d="M164.5 141.3H49.5C48.9 141.3 48.4 140.8 48.4 140.2V53.9C48.4 50.8 50.9 48.4 53.9 48.4H160.1C163.2 48.4 165.6 50.9 165.6 53.9V140.2C165.6 140.8 165.1 141.3 164.5 141.3ZM50.6 139.1H163.5V53.9C163.5 52.1 162 50.6 160.2 50.6H53.9C52.1 50.6 50.6 52.1 50.6 53.9V139.1Z" fill="#192C53"/>
<path d="M142.4 165.6H71.6C71 165.6 70.5 165.1 70.5 164.5C70.5 163.9 71 163.4 71.6 163.4H142.4C143 163.4 143.5 163.9 143.5 164.5C143.5 165.1 143 165.6 142.4 165.6Z" fill="#192C53"/>
<path d="M113.6 147.9H100.3C99.7 147.9 99.2 147.4 99.2 146.8C99.2 146.2 99.7 145.7 100.3 145.7H113.6C114.2 145.7 114.7 146.2 114.7 146.8C114.7 147.4 114.2 147.9 113.6 147.9Z" fill="#192C53"/>
<path d="M53.9 115.4H49.5C48.9 115.4 48.4 114.9 48.4 114.3C48.4 113.7 48.9 113.2 49.5 113.2H53.9C54.5 113.2 55 113.7 55 114.3C55 114.9 54.5 115.4 53.9 115.4Z" fill="#192C53"/>
<path d="M53.9 102.4H49.5C48.9 102.4 48.4 101.9 48.4 101.3C48.4 100.7 48.9 100.2 49.5 100.2H53.9C54.5 100.2 55 100.7 55 101.3C55 101.9 54.5 102.4 53.9 102.4Z" fill="#192C53"/>
<path d="M53.9 128.3H49.5C48.9 128.3 48.4 127.8 48.4 127.2C48.4 126.6 48.9 126.1 49.5 126.1H53.9C54.5 126.1 55 126.6 55 127.2C55 127.8 54.5 128.3 53.9 128.3Z" fill="#192C53"/>
<path d="M53.9 89.5H49.5C48.9 89.5 48.4 89 48.4 88.4C48.4 87.8 48.9 87.3 49.5 87.3H53.9C54.5 87.3 55 87.8 55 88.4C55 89 54.5 89.5 53.9 89.5Z" fill="#192C53"/>
<path d="M53.9 76.5H49.5C48.9 76.5 48.4 76 48.4 75.4C48.4 74.8 48.9 74.3 49.5 74.3H53.9C54.5 74.3 55 74.8 55 75.4C55 76 54.5 76.5 53.9 76.5Z" fill="#192C53"/>
<path d="M53.9 63.5H49.5C48.9 63.5 48.4 63 48.4 62.4C48.4 61.8 48.9 61.3 49.5 61.3H53.9C54.5 61.3 55 61.8 55 62.4C55 63 54.5 63.5 53.9 63.5Z" fill="#192C53"/>
<path d="M107 117C91.3 117 76.6 110.9 65.5 99.8C65.1 99.4 65.1 98.7 65.5 98.2L89.8 74C90.2 73.6 90.9 73.6 91.4 74C100 82.6 114.1 82.6 122.7 74C123.1 73.6 123.8 73.6 124.3 74L148.6 98.3C149 98.7 149 99.4 148.6 99.9C137.4 110.9 122.7 117 107 117ZM67.9 99C78.5 109.2 92.3 114.8 107 114.8C121.7 114.8 135.5 109.2 146.1 99L123.4 76.3C114.1 84.8 99.8 84.8 90.6 76.3L67.9 99Z" fill="#192C53"/>
<path d="M155.7 59.4H146.8C146.2 59.4 145.7 58.9 145.7 58.3C145.7 57.7 146.2 57.2 146.8 57.2H155.7C156.3 57.2 156.8 57.7 156.8 58.3C156.8 58.9 156.3 59.4 155.7 59.4Z" fill="#192C53"/>
<path d="M140.2 59.4H133.6C133 59.4 132.5 58.9 132.5 58.3C132.5 57.7 133 57.2 133.6 57.2H140.2C140.8 57.2 141.3 57.7 141.3 58.3C141.3 58.9 140.8 59.4 140.2 59.4Z" fill="#192C53"/>
<path d="M151.3 66.1H133.6C133 66.1 132.5 65.6 132.5 65C132.5 64.4 133 63.9 133.6 63.9H151.3C151.9 63.9 152.4 64.4 152.4 65C152.4 65.6 151.9 66.1 151.3 66.1Z" fill="#192C53"/>
<path d="M155.7 119.2H146.8C146.2 119.2 145.7 118.7 145.7 118.1C145.7 117.5 146.2 117 146.8 117H155.7C156.3 117 156.8 117.5 156.8 118.1C156.8 118.7 156.3 119.2 155.7 119.2Z" fill="#192C53"/>
<path d="M140.2 119.2H133.6C133 119.2 132.5 118.7 132.5 118.1C132.5 117.5 133 117 133.6 117H140.2C140.8 117 141.3 117.5 141.3 118.1C141.3 118.7 140.8 119.2 140.2 119.2Z" fill="#192C53"/>
<path d="M155.7 125.8H133.6C133 125.8 132.5 125.3 132.5 124.7C132.5 124.1 133 123.6 133.6 123.6H155.7C156.3 123.6 156.8 124.1 156.8 124.7C156.8 125.3 156.3 125.8 155.7 125.8Z" fill="#192C53"/>
<path d="M146.8 132.4H133.5C132.9 132.4 132.4 131.9 132.4 131.3C132.4 130.7 132.9 130.2 133.5 130.2H146.8C147.4 130.2 147.9 130.7 147.9 131.3C147.9 131.9 147.4 132.4 146.8 132.4Z" fill="#192C53"/>
<path d="M100.6 105.5C100.5 105.5 100.5 105.5 100.4 105.5C93.9 104.6 87.7 102.4 82.1 99C81.6 98.7 81.4 98 81.7 97.5C82 97 82.7 96.8 83.2 97.1C88.5 100.4 94.4 102.5 100.6 103.3C101.2 103.4 101.6 103.9 101.5 104.5C101.6 105.1 101.2 105.5 100.6 105.5Z" fill="#192C53"/>
<path d="M125.5 102.1C125.1 102.1 124.7 101.9 124.5 101.4C124.3 100.8 124.5 100.2 125.1 99.9C130.3 97.6 135 94.4 139.1 90.4C139.5 90 140.2 90 140.7 90.4C141.2 90.8 141.1 91.5 140.7 92C136.4 96.3 131.5 99.6 126 102C125.8 102 125.7 102.1 125.5 102.1Z" fill="#192C53"/>
<path d="M92.3 91.7C92.1 91.7 92 91.7 91.8 91.6C87.8 89.8 84.2 87.3 81.1 84.2C80.7 83.8 80.7 83.1 81.1 82.6C81.5 82.2 82.2 82.2 82.7 82.6C85.6 85.5 89 87.9 92.8 89.6C93.4 89.9 93.6 90.5 93.3 91.1C93.2 91.4 92.8 91.7 92.3 91.7Z" fill="#192C53"/>
<path d="M110.4 94.7C109.8 94.7 109.4 94.3 109.3 93.7C109.2 93.1 109.7 92.6 110.3 92.5C115.9 92 121.4 90 126.1 86.9C126.6 86.6 127.3 86.7 127.6 87.2C127.9 87.7 127.8 88.4 127.3 88.7C122.3 92 116.5 94.1 110.4 94.7C110.4 94.7 110.5 94.7 110.4 94.7Z" fill="#192C53"/>
</svg>
