<svg width="214" height="214" viewBox="0 0 214 214" fill="none" xmlns="http://www.w3.org/2000/svg">
<path d="M107 212C164.99 212 212 164.99 212 107C212 49.0101 164.99 2 107 2C49.0101 2 2 49.0101 2 107C2 164.99 49.0101 212 107 212Z" stroke="#DECA75" stroke-width="0" stroke-miterlimit="10"/>
<path d="M152.4 90.4C147.4 90.4 142.4 88.7 138.4 85.7C137.7 85.2 137.6 84.3 138.1 83.6C138.6 82.9 139.5 82.8 140.2 83.3C143.7 85.9 148 87.4 152.4 87.4C163.5 87.4 172.5 78.4 172.5 67.3V60.1C172.5 55.1 168.4 51.1 163.5 51.1C160.5 51.1 157.7 52.6 156 55.1L152.7 60C148.1 67 138.9 68.9 131.8 64.5L120.9 57.7C112.5 52.4 101.5 52.4 93.1 57.7L82.2 64.5C75.2 69 66 67 61.3 60L58 55.1C56.3 52.6 53.5 51.1 50.5 51.1C45.5 51.1 41.5 55.2 41.5 60.1V67.3C41.5 78.4 50.5 87.4 61.6 87.4C66.1 87.4 70.5 85.9 74 83.1C74.7 82.6 75.6 82.7 76.1 83.4C76.6 84.1 76.5 85 75.8 85.5C71.8 88.7 66.7 90.4 61.6 90.4C48.9 90.4 38.5 80.1 38.5 67.3V60.1C38.5 53.5 43.9 48.1 50.5 48.1C54.5 48.1 58.3 50.1 60.5 53.5L63.8 58.4C67.5 64 74.9 65.6 80.6 62L91.5 55.2C100.9 49.3 113.1 49.3 122.5 55.2L133.4 62C139.1 65.6 146.5 64 150.2 58.4L153.5 53.5C155.7 50.1 159.5 48.1 163.5 48.1C170.1 48.1 175.5 53.5 175.5 60.1V67.3C175.5 80.1 165.2 90.4 152.4 90.4Z" fill="#192C53"/>
<path d="M95.4 175.9C94.6 175.9 93.9 175.2 93.9 174.4V164.7C93.9 160.5 93.5001 156.3 92.8001 152.2L85.8001 125.8V125.7C85.0001 121.2 85.3001 116.5 86.8001 112.3C87.6 109.7 88.1 107.2 88.1 104.6C88.1 102.4 87.8 100.2 87.1 97.8C87.1 97.7 83.6001 85.2 68.8001 66.1C68.3001 65.4 68.4 64.5 69.1 64C69.8 63.5 70.7 63.6 71.2 64.3C86.4 83.8 89.9 96.4 90.1 97C90.8 99.6 91.2 102.1 91.2 104.5C91.2 107.4 90.7001 110.3 89.8001 113.1C88.5001 116.9 88.2 121 88.9 125L95.9 151.4V151.5C96.7 155.8 97 160.2 97 164.6V174.3C96.9 175.2 96.3 175.9 95.4 175.9Z" fill="#192C53"/>
<path d="M118.6 175.9C117.8 175.9 117.1 175.2 117.1 174.4V164.7C117.1 160.3 117.5 155.9 118.2 151.6V151.5L125.2 125.1C125.9 121.1 125.6 116.9 124.3 113.2C123.4 110.3 122.9 107.4 122.9 104.5C122.9 102.1 123.3 99.5 124 96.9C124.1 96.4 127.6 83.8 142.9 64.2C143.4 63.5 144.4 63.4 145 63.9C145.7 64.4 145.8 65.4 145.3 66C130.5 85 127 97.5 127 97.6C126.4 99.9 126 102.2 126 104.4C126 107 126.4 109.5 127.3 112.1C128.7 116.3 129.1 121 128.3 125.5V125.6L121.3 152C120.6 156.1 120.2 160.3 120.2 164.5V174.2C120.1 175.2 119.4 175.9 118.6 175.9Z" fill="#192C53"/>
<path d="M102.4 175.9C101.6 175.9 100.9 175.3 100.9 174.5L100.3 159.3C99.9 149.3 98.6 139.3 96.5 129.5L94.8 121.7C94.6 120.3 94.9 118.9 95.8 117.9C96.7 116.8 98 116.2 99.4 116.2C99.8 116.2 100.1 116.2 100.3 116.3H100.4H100.5C101 116.4 101.6 116.3 102 115.9C102.4 115.5 102.6 115 102.6 114.4L100.4 98C99.1 88.7 93.7 80 85.5 74.3C84.8 73.8 84.7 72.9 85.1 72.2C85.6 71.5 86.5 71.4 87.2 71.8C96 78.1 101.9 87.5 103.3 97.6V97.9L105.5 114C105.7 115.6 105.1 117.1 104 118.1C102.9 119.1 101.3 119.5 99.8 119.1H99.7C99.1 119 98.4 119.2 98 119.7C97.8 119.9 97.5 120.4 97.6 121L99.3 128.7C101.5 138.7 102.8 148.9 103.2 159L103.8 174.2C103.9 175.1 103.3 175.8 102.4 175.9Z" fill="#192C53"/>
<path d="M107 70.9C102 70.9 97.1 70.6 92.1 69.9L72.1 67.2C71.3 67.1 70.7 66.3 70.8 65.5C70.9 64.7 71.7 64.1 72.5 64.2L92.5 66.9C102.1 68.2 111.8 68.2 121.4 66.9L141.4 64.2C142.2 64.1 143 64.7 143.1 65.5C143.2 66.3 142.6 67.1 141.8 67.2L121.8 69.9C116.9 70.6 112 70.9 107 70.9Z" fill="#192C53"/>
<path d="M111.6 175.9C110.7 175.9 110.1 175.2 110.1 174.3L110.7 159.4C111.1 149.4 112.4 139.3 114.5 129.2L116.3 121.1C116.4 120.6 116.2 120.1 115.8 119.7C115.4 119.3 114.8 119.2 114.2 119.3H114.1C113.8 119.4 113.4 119.4 113.1 119.4C111.8 119.4 110.5 118.8 109.6 117.8C108.7 116.8 108.3 115.5 108.5 114.1L110.7 97.6999C112.1 87.5999 117.9 78.1999 126.7 71.9999C127.4 71.4999 128.3 71.6999 128.8 72.2999C129.3 72.8999 129.1 73.8999 128.5 74.3999C120.4 80.1999 115 88.7999 113.7 98.0999V98.2999V98.3999L111.5 114.5C111.4 115 111.6 115.4 111.9 115.8C112.2 116.2 112.7 116.4 113.1 116.4C113.3 116.4 113.4 116.4 113.6 116.3C115 115.9 116.6 116.4 117.8 117.4C119 118.5 119.5 120 119.3 121.6L117.5 129.8C115.4 139.7 114.1 149.7 113.7 159.5L113.1 174.4C113.1 175.2 112.4 175.9 111.6 175.9Z" fill="#192C53"/>
<path d="M63.1 90.3999C49.5 90.3999 38.5 79.3999 38.5 65.7999C38.5 64.9999 39.2 64.2999 40 64.2999C46.5 64.2999 52.7 66.7999 57.4 71.4999C62 76.1999 64.6 82.3999 64.6 88.8999C64.6 89.6999 63.9 90.3999 63.1 90.3999ZM41.6 67.2999C42.4 77.9999 50.9 86.4999 61.6 87.2999C61.2 82.0999 59 77.2999 55.3 73.5999C51.6 69.8999 46.7 67.6999 41.6 67.2999Z" fill="#192C53"/>
<path d="M150.9 90.3999C150.1 90.3999 149.4 89.6999 149.4 88.8999C149.4 82.3999 151.9 76.1999 156.6 71.4999C161.3 66.8999 167.5 64.2999 174 64.2999C174.8 64.2999 175.5 64.9999 175.5 65.7999C175.5 79.3999 164.5 90.3999 150.9 90.3999ZM172.4 67.2999C167.2 67.6999 162.4 69.8999 158.7 73.5999C155 77.2999 152.8 82.1999 152.5 87.2999C163.1 86.5999 171.7 77.9999 172.4 67.2999Z" fill="#192C53"/>
</svg>
