<svg width="214" height="214" viewBox="0 0 214 214" fill="none" xmlns="http://www.w3.org/2000/svg">
<path d="M107 212C164.99 212 212 164.99 212 107C212 49.0101 164.99 2 107 2C49.0101 2 2 49.0101 2 107C2 164.99 49.0101 212 107 212Z" stroke="#DECA75" stroke-width="0" stroke-miterlimit="10"/>
<path d="M100.6 158.1H67.1V77.8C67.1 74.7 69.6 72.1 72.8 72.1H95C98.1 72.1 100.7 74.6 100.7 77.8L100.6 158.1ZM70.3 154.8H97.4V77.8C97.4 76.5 96.3 75.4 95 75.4H72.7C71.4 75.4 70.3 76.5 70.3 77.8V154.8Z" fill="#192C53"/>
<path d="M61.4 160.5C61.1 160.5 60.8 160.4 60.5 160.2C59.8 159.7 59.6 158.7 60.1 158C61.4 156 63.7 154.9 66.1 154.9H101.5C103.9 154.9 106.2 156.1 107.5 158C108 158.7 107.8 159.7 107.1 160.2C106.4 160.7 105.4 160.5 104.9 159.8C104.2 158.7 102.9 158.1 101.5 158.1H66.1C64.7 158.1 63.5 158.7 62.7 159.8C62.4 160.2 61.9 160.5 61.4 160.5Z" fill="#192C53"/>
<path d="M100.2 176.7H67.5C66.6 176.7 65.9 176 65.9 175.1C65.9 174.2 66.6 173.5 67.5 173.5H100.2C101.1 173.5 101.8 174.2 101.8 175.1C101.8 176 101.1 176.7 100.2 176.7Z" fill="#192C53"/>
<path d="M94.8 73.8H91.6V70C91.6 65.7 88.1 62.3 83.9 62.3C79.7 62.3 76.2 65.8 76.2 70V73.8H73V70C73 64 77.9 59.1 83.9 59.1C89.9 59.1 94.8 64 94.8 70V73.8Z" fill="#192C53"/>
<path d="M88.3 61.4H85V37.7C85 37 84.5 36.5 83.8 36.5C83.1 36.5 82.6 37 82.6 37.7V61.5H79.4V37.7C79.4 35.3 81.4 33.3 83.8 33.3C86.2 33.3 88.2 35.3 88.2 37.7L88.3 61.4Z" fill="#192C53"/>
<path d="M99 95.5H86.1C85.2 95.5 84.5 94.8 84.5 93.9C84.5 93 85.2 92.3 86.1 92.3H99C99.9 92.3 100.6 93 100.6 93.9C100.6 94.8 99.9 95.5 99 95.5Z" fill="#192C53"/>
<path d="M99 116.8H86.1C85.2 116.8 84.5 116.1 84.5 115.2C84.5 114.3 85.2 113.6 86.1 113.6H99C99.9 113.6 100.6 114.3 100.6 115.2C100.6 116.1 99.9 116.8 99 116.8Z" fill="#192C53"/>
<path d="M99 138.2H86.1C85.2 138.2 84.5 137.5 84.5 136.6C84.5 135.7 85.2 135 86.1 135H99C99.9 135 100.6 135.7 100.6 136.6C100.6 137.5 99.9 138.2 99 138.2Z" fill="#192C53"/>
<path d="M94.8 176.7H72.9V154.8H94.8V176.7ZM76.1 173.5H91.6V158H76.1V173.5Z" fill="#192C53"/>
<path d="M149.1 176.7H120.1C117.3 176.7 115 174.4 115 171.6V149C115 146.8 116 143.5 117.3 141.7L121.3 136C122.4 134.5 123 132.8 123 132.4C123 130.5 125.1 129.2 128.1 129.2H141.1C144.1 129.2 146.2 130.6 146.2 132.5C146.2 132.9 146.8 134.5 147.9 136.1L151.9 141.8C153.2 143.6 154.2 146.8 154.2 149.1V171.8C154.2 174.4 151.9 176.7 149.1 176.7ZM126.1 132.7C125.9 134.1 124.9 136.3 123.8 137.8L119.8 143.5C118.9 144.8 118.1 147.4 118.1 148.9V171.6C118.1 172.6 119 173.5 120 173.5H149C150 173.5 150.9 172.6 150.9 171.6V149C150.9 147.4 150.1 144.9 149.2 143.6L145.2 137.9C144.1 136.4 143.1 134.3 142.9 132.8C142.6 132.6 142 132.4 141 132.4H128C127.1 132.3 126.4 132.6 126.1 132.7Z" fill="#192C53"/>
<path d="M145.5 132.7H123.6C120 132.7 117 129.7 117 126.1V123.6C117 120 120 117 123.6 117H145.5C149.1 117 152.1 120 152.1 123.6V126.1C152.1 129.7 149.1 132.7 145.5 132.7ZM123.6 120.8C122.1 120.8 120.8 122 120.8 123.6V126.1C120.8 127.6 122 128.9 123.6 128.9H145.5C147 128.9 148.3 127.7 148.3 126.1V123.6C148.3 122.1 147.1 120.8 145.5 120.8H123.6Z" fill="#192C53"/>
</svg>
