<svg width="214" height="214" viewBox="0 0 214 214" fill="none" xmlns="http://www.w3.org/2000/svg">
<path d="M107 212C164.99 212 212 164.99 212 107C212 49.0101 164.99 2 107 2C49.0101 2 2 49.0101 2 107C2 164.99 49.0101 212 107 212Z" stroke="#DECA75" stroke-width="0" stroke-miterlimit="10"/>
<path d="M120.6 167H50.4C48.5 167 47 165.5 47 163.6V50.4C47 48.5 48.5 47 50.4 47H136.4C138.3 47 139.8 48.5 139.8 50.4V147.8C139.8 148.1 139.7 148.4 139.5 148.6L121.4 166.7C121.2 166.9 120.9 167 120.6 167ZM50.4 49.3C49.8 49.3 49.3 49.8 49.3 50.4V163.6C49.3 164.2 49.8 164.7 50.4 164.7H120.1L137.5 147.3V50.4C137.5 49.8 137 49.3 136.4 49.3H50.4Z" fill="#192C53"/>
<path d="M120.6 167C120.5 167 120.3 167 120.2 166.9C119.8 166.7 119.5 166.3 119.5 165.9V150C119.5 148.1 121 146.6 122.9 146.6H138.7C139.2 146.6 139.6 146.9 139.7 147.3C139.9 147.7 139.8 148.2 139.5 148.5L121.4 166.6C121.2 166.9 120.9 167 120.6 167ZM122.8 148.9C122.2 148.9 121.7 149.4 121.7 150V163.1L135.9 148.9H122.8Z" fill="#192C53"/>
<path d="M163.6 167H156.8C156.2 167 155.7 166.5 155.7 165.9C155.7 165.3 156.2 164.8 156.8 164.8H163.6C164.2 164.8 164.7 164.3 164.7 163.7V50.4C164.7 49.8 164.2 49.3 163.6 49.3H156.8C156.2 49.3 155.7 48.8 155.7 48.2C155.7 47.6 156.2 47.1 156.8 47.1H163.6C165.5 47.1 167 48.6 167 50.5V163.7C167 165.5 165.5 167 163.6 167Z" fill="#192C53"/>
<path d="M150 167H127.4C126.8 167 126.3 166.5 126.3 165.9C126.3 165.3 126.8 164.8 127.4 164.8H150C150.6 164.8 151.1 164.3 151.1 163.7V50.4C151.1 49.8 150.6 49.3 150 49.3H143.2C142.6 49.3 142.1 48.8 142.1 48.2C142.1 47.6 142.6 47.1 143.2 47.1H150C151.9 47.1 153.4 48.6 153.4 50.5V163.7C153.4 165.5 151.9 167 150 167Z" fill="#192C53"/>
<path d="M127.4 108.1H109.3C108.7 108.1 108.2 107.6 108.2 107C108.2 106.4 108.7 105.9 109.3 105.9H127.4C128 105.9 128.5 106.4 128.5 107C128.5 107.6 128 108.1 127.4 108.1Z" fill="#192C53"/>
<path d="M102.5 108.1H79.8C79.2 108.1 78.7 107.6 78.7 107C78.7 106.4 79.2 105.9 79.8 105.9H102.4C103 105.9 103.5 106.4 103.5 107C103.5 107.6 103.1 108.1 102.5 108.1Z" fill="#192C53"/>
<path d="M73 108.1H59.5C58.9 108.1 58.4 107.6 58.4 107C58.4 106.4 58.9 105.9 59.5 105.9H73C73.6 105.9 74.1 106.4 74.1 107C74.1 107.6 73.7 108.1 73 108.1Z" fill="#192C53"/>
<path d="M113.8 117.2H91.2C90.6 117.2 90.1 116.7 90.1 116.1C90.1 115.5 90.6 115 91.2 115H113.8C114.4 115 114.9 115.5 114.9 116.1C114.9 116.7 114.4 117.2 113.8 117.2Z" fill="#192C53"/>
<path d="M84.4 117.2H59.5C58.9 117.2 58.4 116.7 58.4 116.1C58.4 115.5 58.9 115 59.5 115H84.4C85 115 85.5 115.5 85.5 116.1C85.5 116.7 85 117.2 84.4 117.2Z" fill="#192C53"/>
<path d="M127.4 126.2H107C106.4 126.2 105.9 125.7 105.9 125.1C105.9 124.5 106.4 124 107 124H127.4C128 124 128.5 124.5 128.5 125.1C128.5 125.7 128 126.2 127.4 126.2Z" fill="#192C53"/>
<path d="M100.2 126.2H70.8C70.2 126.2 69.7 125.7 69.7 125.1C69.7 124.5 70.2 124 70.8 124H100.2C100.8 124 101.3 124.5 101.3 125.1C101.3 125.7 100.8 126.2 100.2 126.2Z" fill="#192C53"/>
<path d="M64 126.2H59.5C58.9 126.2 58.4 125.7 58.4 125.1C58.4 124.5 58.9 124 59.5 124H64C64.6 124 65.1 124.5 65.1 125.1C65.1 125.7 64.6 126.2 64 126.2Z" fill="#192C53"/>
<path d="M127.4 135.3H93.4C92.8 135.3 92.3 134.8 92.3 134.2C92.3 133.6 92.8 133.1 93.4 133.1H127.4C128 133.1 128.5 133.6 128.5 134.2C128.5 134.8 128 135.3 127.4 135.3Z" fill="#192C53"/>
<path d="M86.6 135.3H70.8C70.2 135.3 69.7 134.8 69.7 134.2C69.7 133.6 70.2 133.1 70.8 133.1H86.6C87.2 133.1 87.7 133.6 87.7 134.2C87.7 134.8 87.2 135.3 86.6 135.3Z" fill="#192C53"/>
<path d="M64 135.3H59.5C58.9 135.3 58.4 134.8 58.4 134.2C58.4 133.6 58.9 133.1 59.5 133.1H64C64.6 133.1 65.1 133.6 65.1 134.2C65.1 134.8 64.6 135.3 64 135.3Z" fill="#192C53"/>
<path d="M109.3 144.4H70.8C70.2 144.4 69.7 143.9 69.7 143.3C69.7 142.7 70.2 142.2 70.8 142.2H109.3C109.9 142.2 110.4 142.7 110.4 143.3C110.4 143.9 109.9 144.4 109.3 144.4Z" fill="#192C53"/>
<path d="M64 144.4H59.5C58.9 144.4 58.4 143.9 58.4 143.3C58.4 142.7 58.9 142.2 59.5 142.2H64C64.6 142.2 65.1 142.7 65.1 143.3C65.1 143.9 64.6 144.4 64 144.4Z" fill="#192C53"/>
<path d="M67.2 157.9C64.7 157.9 63.4 156.1 62.4 154.6C61.4 153.2 60.7 152.3 59.5 152.3C58.9 152.3 58.4 151.8 58.4 151.2C58.4 150.6 58.9 150.1 59.5 150.1C62 150.1 63.3 151.9 64.3 153.4C65.3 154.8 66 155.7 67.2 155.7C68.5 155.7 69.2 155 70.2 153.8C71.2 152.6 72.5 151.1 74.9 151.1C77.3 151.1 78.5 152.2 79.5 153.1C80.4 153.9 81.1 154.5 82.6 154.5C84.2 154.5 84.9 154.1 85.9 153.5C86.9 152.9 88.1 152.2 90.3 152.2C92.4 152.2 93.5 152.5 94.5 152.8C95.4 153.1 96.3 153.3 98 153.3C98.6 153.3 99.1 153.8 99.1 154.4C99.1 155 98.6 155.5 98 155.5C95.9 155.5 94.8 155.2 93.8 154.9C92.9 154.6 92 154.4 90.3 154.4C88.7 154.4 88 154.8 87 155.4C86 156 84.8 156.7 82.6 156.7C80.2 156.7 79 155.6 78 154.7C77.1 153.9 76.4 153.3 74.9 153.3C73.6 153.3 72.9 154 71.9 155.2C70.9 156.5 69.6 157.9 67.2 157.9Z" fill="#192C53"/>
<path d="M93.4 99.1C81.5 99.1 71.9 89.5 71.9 77.6C71.9 65.7 81.5 56.1 93.4 56.1C105.3 56.1 114.9 65.7 114.9 77.6C114.9 89.5 105.3 99.1 93.4 99.1ZM93.4 58.3C82.8 58.3 74.2 66.9 74.2 77.5C74.2 88.1 82.8 96.7 93.4 96.7C104 96.7 112.6 88.1 112.6 77.5C112.6 66.9 104 58.3 93.4 58.3Z" fill="#192C53"/>
<path d="M97.9 90H88.8C88.2 90 87.7 89.5 87.7 88.9V83.2H82C81.4 83.2 80.9 82.7 80.9 82.1V73C80.9 72.4 81.4 71.9 82 71.9H87.7V66.2C87.7 65.6 88.2 65.1 88.8 65.1H97.9C98.5 65.1 99 65.6 99 66.2V71.9H104.7C105.3 71.9 105.8 72.4 105.8 73V82.1C105.8 82.7 105.3 83.2 104.7 83.2H99V88.9C99.1 89.5 98.6 90 97.9 90ZM90 87.8H96.8V82.1C96.8 81.5 97.3 81 97.9 81H103.6V74.2H97.9C97.3 74.2 96.8 73.7 96.8 73.1V67.4H90V73C90 73.6 89.5 74.1 88.9 74.1H83.2V81H88.9C89.5 81 90 81.5 90 82.1V87.8Z" fill="#192C53"/>
</svg>
