<svg width="214" height="214" viewBox="0 0 214 214" fill="none" xmlns="http://www.w3.org/2000/svg">
<path d="M107 212C164.99 212 212 164.99 212 107C212 49.0101 164.99 2 107 2C49.0101 2 2 49.0101 2 107C2 164.99 49.0101 212 107 212Z" stroke="#DECA75" stroke-width="0" stroke-miterlimit="10"/>
<path d="M148.6 164.2C148.6 168.8 144.8 172.7 140.1 172.7H76.8C72.2 172.7 68.3 168.9 68.3 164.2V51.2C68.3 46.6 72.1 42.7 76.8 42.7H140.2C144.8 42.7 148.7 46.5 148.7 51.2V164.2H148.6Z" stroke="#192C53" stroke-width="2.5975" stroke-miterlimit="10"/>
<path d="M139.7 81.6C139.7 83.7 137.9 85.5 135.8 85.5H81.2C79.1 85.5 77.3 83.7 77.3 81.6V53.8C77.3 51.7 79.1 49.9 81.2 49.9H135.8C137.9 49.9 139.7 51.7 139.7 53.8V81.6V81.6Z" stroke="#192C53" stroke-width="2.5975" stroke-miterlimit="10"/>
<path d="M108.5 136.1C117.502 136.1 124.8 128.802 124.8 119.8C124.8 110.798 117.502 103.5 108.5 103.5C99.4978 103.5 92.2001 110.798 92.2001 119.8C92.2001 128.802 99.4978 136.1 108.5 136.1Z" stroke="#192C53" stroke-width="2.75" stroke-miterlimit="10"/>
<path d="M103 125.2L113.9 114.3" stroke="#192C53" stroke-width="2.75" stroke-miterlimit="10" stroke-linecap="round"/>
<path d="M81.2001 158.7H92.8001" stroke="#192C53" stroke-width="2.5975" stroke-miterlimit="10" stroke-linecap="round"/>
<path d="M102.6 158.7H114.3" stroke="#192C53" stroke-width="2.5975" stroke-miterlimit="10" stroke-linecap="round"/>
<path d="M124.1 158.7H135.8" stroke="#192C53" stroke-width="2.5975" stroke-miterlimit="10" stroke-linecap="round"/>
</svg>
