<svg width="214" height="214" viewBox="0 0 214 214" fill="none" xmlns="http://www.w3.org/2000/svg">
<path d="M107 212C164.99 212 212 164.99 212 107C212 49.0101 164.99 2 107 2C49.0101 2 2 49.0101 2 107C2 164.99 49.0101 212 107 212Z" stroke="#DECA75" stroke-width="0" stroke-miterlimit="10"/>
<path d="M107 178.6C103.7 178.6 100.5 177.3 98 175C95.0999 176.6 91.7 177 88.4 176.2C85.1 175.3 82.3999 173.3 80.6999 170.4C77.3999 171.2 74 170.7 71.0999 169C68.1999 167.3 66.0999 164.6 65.0999 161.4C61.7999 161.3 58.6999 160 56.2999 157.6C53.9 155.2 52.6 152.1 52.5 148.8C49.3 147.8 46.6 145.7 44.9 142.8C43.2 139.9 42.8 136.5 43.5 133.3C40.6 131.5 38.6 128.8 37.7 125.6C36.9 122.4 37.2999 119 38.7999 116C36.4999 113.6 35.2 110.4 35.2 107C35.2 103.7 36.4999 100.5 38.7999 98C37.1999 95.1 36.7999 91.6 37.5999 88.4C38.4999 85.2 40.5 82.4 43.4 80.7C42.6 77.4 43.0999 74 44.7999 71.1C46.4999 68.2 49.2 66.1 52.4 65.1C52.5 61.8 53.8 58.7 56.2 56.3C58.6 53.9 61.7 52.6 65 52.5C66 49.3 68.0999 46.6 71 44.9C73.9 43.2 77.2999 42.8 80.5999 43.5C82.3999 40.6 85.1 38.6 88.3 37.7C91.5 36.9 94.9 37.3 97.9 38.8C100.3 36.5 103.5 35.2 106.9 35.2C110.2 35.2 113.4 36.5 115.9 38.8C118.8 37.2 122.3 36.8 125.5 37.6C128.8 38.5 131.5 40.5 133.2 43.4C136.5 42.6 139.9 43.1 142.7 44.8C145.6 46.5 147.7 49.2 148.7 52.4C152 52.5 155.1 53.8 157.5 56.2C159.9 58.6 161.2 61.7 161.3 65C164.5 66 167.2 68.1 168.9 71C170.6 73.9 171 77.3 170.3 80.6C173.1 82.4 175.2 85.1 176.1 88.3C176.9 91.5 176.5 94.9 175 97.9C177.3 100.3 178.6 103.5 178.6 106.9C178.6 110.2 177.3 113.4 175 115.9C176.6 118.8 177 122.3 176.2 125.5C175.3 128.7 173.3 131.5 170.4 133.2C171.2 136.5 170.7 139.9 169 142.8C167.3 145.7 164.6 147.8 161.4 148.8C161.3 152.1 160 155.2 157.6 157.6C155.2 160 152.1 161.3 148.8 161.4C147.8 164.6 145.7 167.3 142.8 169C139.9 170.7 136.5 171.1 133.2 170.4C131.4 173.2 128.7 175.3 125.5 176.2C122.3 177 118.9 176.6 115.9 175.1C113.5 177.3 110.3 178.6 107 178.6ZM98.3 171.6C98.7 171.6 99.0999 171.8 99.3999 172.1C101.3 174.3 104.1 175.6 107 175.6C109.9 175.6 112.6 174.3 114.6 172.1C115.1 171.5 115.9 171.4 116.6 171.8C119.1 173.4 122 173.9 124.8 173.2C127.6 172.4 129.9 170.6 131.2 167.9C131.5 167.2 132.3 166.9 133 167.2C135.8 168.1 138.8 167.8 141.3 166.4C143.8 164.9 145.6 162.5 146.1 159.6C146.2 158.9 146.9 158.4 147.7 158.4C150.6 158.6 153.4 157.5 155.5 155.5C157.6 153.4 158.6 150.7 158.5 147.7C158.5 147 159 146.3 159.7 146.1C162.6 145.5 165 143.8 166.5 141.3C167.9 138.8 168.2 135.8 167.3 133C167.1 132.3 167.4 131.5 168 131.2C170.7 129.8 172.6 127.5 173.3 124.7C174 121.9 173.5 118.9 171.9 116.5C171.5 115.9 171.6 115 172.2 114.5C174.4 112.6 175.7 109.8 175.7 106.9C175.7 104 174.4 101.3 172.2 99.3C171.6 98.8 171.5 98 171.9 97.3C173.5 94.9 174 91.9 173.3 89.1C172.5 86.3 170.7 84 168 82.7C167.3 82.4 167 81.6 167.3 80.9C168.2 78.1 167.9 75.1 166.5 72.6C165 70.1 162.6 68.3 159.7 67.8C159 67.7 158.5 67 158.5 66.2C158.7 63.3 157.6 60.5 155.5 58.4C153.4 56.3 150.7 55.3 147.7 55.5C146.9 55.5 146.3 55 146.1 54.3C145.5 51.4 143.8 49 141.3 47.5C138.8 46.1 135.8 45.8 133 46.7C132.3 46.9 131.5 46.6 131.2 46C129.8 43.3 127.5 41.4 124.7 40.7C121.9 40 119 40.5 116.5 42.1C115.9 42.5 115 42.4 114.5 41.8C112.6 39.6 109.8 38.3 106.9 38.3C104 38.3 101.3 39.6 99.3 41.8C98.8 42.4 98 42.5 97.3 42.1C94.8 40.5 91.8999 40 89.0999 40.7C86.2999 41.5 83.9999 43.3 82.6999 46C82.3999 46.7 81.6 47 80.9 46.7C78.1 45.8 75.0999 46.1 72.5999 47.5C70.0999 49 68.3 51.4 67.8 54.3C67.7 55 66.9999 55.5 66.1999 55.5C63.2999 55.3 60.5 56.4 58.4 58.4C56.3 60.5 55.2999 63.2 55.5 66.2C55.5 66.9 55 67.6 54.2999 67.8C51.4 68.4 49 70.1 47.5 72.6C46.1 75.1 45.8 78.1 46.7 80.9C46.9 81.6 46.6 82.4 46 82.7C43.3 84.1 41.4 86.4 40.7 89.2C40 92 40.4999 95 42.0999 97.4C42.4999 98 42.3999 98.9 41.7999 99.4C39.5999 101.3 38.2999 104.1 38.2999 107C38.2999 109.9 39.5999 112.6 41.7999 114.6C42.3999 115.1 42.4999 115.9 42.0999 116.6C40.4999 119 40 122 40.7 124.8C41.5 127.6 43.3 129.9 46 131.2C46.7 131.5 47 132.3 46.7 133C45.8 135.8 46.1 138.8 47.5 141.3C49 143.8 51.4 145.6 54.2999 146.1C55 146.2 55.5 146.9 55.5 147.7C55.2999 150.6 56.4 153.4 58.4 155.5C60.5 157.6 63.1999 158.6 66.1999 158.4C66.8999 158.3 67.6 158.9 67.8 159.6C68.4 162.5 70.0999 164.9 72.5999 166.4C75.0999 167.8 78.1 168.1 80.9 167.2C81.6 167 82.3999 167.3 82.6999 167.9C84.0999 170.6 86.3999 172.5 89.1999 173.2C91.9999 173.9 94.9 173.4 97.4 171.8C97.7 171.7 98 171.6 98.3 171.6Z" fill="#192C53"/>
<path d="M107 166.5C74.2 166.5 47.5 139.8 47.5 107C47.5 94.5 51.3 82.6 58.5 72.4C59 71.7 59.9 71.6 60.6 72.1C61.3 72.6 61.4 73.5 60.9 74.2C54 83.8 50.4 95.2 50.4 107C50.4 138.2 75.8 163.5 106.9 163.5C138 163.5 163.4 138.1 163.4 107C163.4 75.9 138.2 50.5 107 50.5C95.4 50.5 84.2 54 74.7 60.7C74 61.2 73.1 61 72.6 60.3C72.1 59.6 72.3 58.7 73 58.2C83 51.2 94.8 47.5 107.1 47.5C139.9 47.5 166.6 74.2 166.6 107C166.6 139.8 139.8 166.5 107 166.5Z" fill="#192C53"/>
<path d="M65.9 67.5C65.5 67.5 65.1 67.4 64.8 67.1C64.2 66.5 64.2 65.6 64.8 65L65.1 64.6C65.7 64 66.6 64 67.2 64.6C67.8 65.2 67.8 66.1 67.2 66.7L67 67.1C66.7 67.4 66.3 67.5 65.9 67.5Z" fill="#192C53"/>
<path d="M119.1 101.2C110.3 101.2 103.1 94 103.1 85.2C103.1 76.4 110.3 69.2 119.1 69.2C127.9 69.2 135.1 76.4 135.1 85.2C135.1 94 127.9 101.2 119.1 101.2ZM119.1 72.2C111.9 72.2 106.1 78 106.1 85.2C106.1 92.4 111.9 98.2 119.1 98.2C126.3 98.2 132.1 92.4 132.1 85.2C132.1 78 126.3 72.2 119.1 72.2Z" fill="#192C53"/>
<path d="M94.8999 67.4H94.3999C93.5999 67.4 92.8999 66.7 92.8999 65.9C92.8999 65.1 93.5999 64.4 94.3999 64.4H94.8999C95.6999 64.4 96.3999 65.1 96.3999 65.9C96.3999 66.7 95.6999 67.4 94.8999 67.4Z" fill="#192C53"/>
<path d="M90.0999 106.1H89.5999C88.7999 106.1 88.0999 105.4 88.0999 104.6C88.0999 103.8 88.7999 103.1 89.5999 103.1H90.0999C90.8999 103.1 91.5999 103.8 91.5999 104.6C91.5999 105.4 90.8999 106.1 90.0999 106.1Z" fill="#192C53"/>
<path d="M71.2 86.7H70.7C69.9 86.7 69.2 86 69.2 85.2C69.2 84.4 69.9 83.7 70.7 83.7H71.2C72 83.7 72.7 84.4 72.7 85.2C72.7 86 72 86.7 71.2 86.7Z" fill="#192C53"/>
<path d="M152.9 106.1H152.4C151.6 106.1 150.9 105.4 150.9 104.6C150.9 103.8 151.6 103.1 152.4 103.1H152.9C153.7 103.1 154.4 103.8 154.4 104.6C154.4 105.4 153.8 106.1 152.9 106.1Z" fill="#192C53"/>
<path d="M123.9 149.6H123.4C122.6 149.6 121.9 148.9 121.9 148.1C121.9 147.3 122.6 146.6 123.4 146.6H123.9C124.7 146.6 125.4 147.3 125.4 148.1C125.4 148.9 124.8 149.6 123.9 149.6Z" fill="#192C53"/>
<path d="M134.1 130.3H133.6C132.8 130.3 132.1 129.6 132.1 128.8C132.1 128 132.8 127.3 133.6 127.3H134.1C134.9 127.3 135.6 128 135.6 128.8C135.6 129.6 134.9 130.3 134.1 130.3Z" fill="#192C53"/>
<path d="M105.1 125.4H104.6C103.8 125.4 103.1 124.7 103.1 123.9C103.1 123.1 103.8 122.4 104.6 122.4H105.1C105.9 122.4 106.6 123.1 106.6 123.9C106.6 124.7 105.9 125.4 105.1 125.4Z" fill="#192C53"/>
<path d="M80.8999 139.9H80.3999C79.5999 139.9 78.8999 139.2 78.8999 138.4C78.8999 137.6 79.5999 136.9 80.3999 136.9H80.8999C81.6999 136.9 82.3999 137.6 82.3999 138.4C82.3999 139.2 81.6999 139.9 80.8999 139.9Z" fill="#192C53"/>
<path d="M65.8999 120.6H65.3999C64.5999 120.6 63.8999 119.9 63.8999 119.1C63.8999 118.3 64.5999 117.6 65.3999 117.6H65.8999C66.6999 117.6 67.3999 118.3 67.3999 119.1C67.3999 119.9 66.6999 120.6 65.8999 120.6Z" fill="#192C53"/>
</svg>
