<svg width="214" height="214" viewBox="0 0 214 214" fill="none" xmlns="http://www.w3.org/2000/svg">
<path d="M107 212C164.99 212 212 164.99 212 107C212 49.0101 164.99 2 107 2C49.0101 2 2 49.0101 2 107C2 164.99 49.0101 212 107 212Z" stroke="#DECA75" stroke-width="0" stroke-miterlimit="10"/>
<path d="M39.9 174C39.6 174 39.2 173.9 38.9 173.7C38.3 173.2 38.2 172.2 38.7 171.6C43.4 166 49.8 166.5 55.5 166.9C60.9 167.3 66 167.7 69.7 163.3C73.4 158.9 72.1 153.9 70.7 148.6C69.2 143.1 67.6 136.9 72.3 131.2C77 125.6 83.4 126.1 89.1 126.5C94.5 126.9 99.6 127.3 103.4 122.9C103.9 122.3 104.9 122.2 105.5 122.7C106.1 123.2 106.2 124.2 105.7 124.8C101 130.4 94.6 129.9 88.9 129.5C83.5 129.1 78.4 128.7 74.6 133.1C70.9 137.5 72.2 142.5 73.6 147.8C75.1 153.3 76.7 159.5 72 165.2C67.3 170.8 60.9 170.3 55.2 169.9C49.8 169.5 44.7 169.1 41 173.5C40.7 173.8 40.3 174 39.9 174Z" fill="#192C53"/>
<path d="M118.6 154.1C116 154.1 113.5 153.1 111.5 151.3C109.1 152.5 106.4 152.8 103.8 152.1C101.3 151.4 99.1 149.8 97.6 147.6C95 148.1 92.3 147.7 90 146.4C87.7 145.1 86 143 85.2 140.4C83.9 140.3 82.6 140 81.4 139.5C80.6 139.2 80.3 138.3 80.6 137.5C80.9 136.7 81.8 136.4 82.6 136.7C83.7 137.2 85 137.4 86.3 137.4C87.1 137.4 87.7 137.9 87.9 138.6C88.4 140.8 89.7 142.6 91.6 143.8C93.5 144.9 95.8 145.1 97.9 144.4C98.6 144.2 99.4 144.5 99.7 145.1C100.7 147.1 102.5 148.6 104.6 149.1C106.8 149.7 109 149.3 110.9 148.1C111.5 147.7 112.4 147.8 112.9 148.3C114.4 150 116.5 151 118.7 151C120.9 151 122.9 150.1 124.5 148.3C125 147.7 125.8 147.6 126.5 148.1C128.4 149.4 130.6 149.7 132.8 149.1C134.9 148.6 136.7 147.1 137.7 145.1C138 144.4 138.8 144.1 139.5 144.4C141.7 145.1 143.9 144.9 145.8 143.8C147.7 142.7 149 140.9 149.5 138.6C149.6 137.9 150.3 137.4 151.1 137.4C153.4 137.5 155.5 136.7 157.1 135.2C158.6 133.6 159.4 131.5 159.3 129.2C159.3 128.5 159.8 127.8 160.5 127.6C162.7 127.1 164.6 125.8 165.7 123.9C166.8 122 167 119.7 166.3 117.6C166.1 116.9 166.4 116.1 167 115.8C169 114.8 170.5 113 171 110.9C171.6 108.7 171.2 106.5 170 104.6C169.6 104 169.7 103.1 170.2 102.6C171.9 101.1 172.9 99 172.9 96.8C172.9 94.6 172 92.6 170.2 91C169.6 90.5 169.5 89.7 170 89C171.3 87.1 171.6 84.9 171 82.7C170.5 80.6 169 78.8 167 77.8C166.3 77.5 166 76.7 166.3 76C167 73.8 166.8 71.6 165.7 69.7C164.6 67.8 162.8 66.5 160.5 66C159.8 65.9 159.3 65.2 159.3 64.4C159.4 62.1 158.6 60 157.1 58.4C155.5 56.9 153.4 56.1 151.1 56.2C150.4 56.2 149.7 55.7 149.5 55C149 52.8 147.7 51 145.8 49.8C143.9 48.7 141.6 48.5 139.5 49.2C138.8 49.4 138 49.1 137.7 48.5C136.7 46.5 134.9 45 132.8 44.5C130.6 43.9 128.4 44.3 126.5 45.5C125.9 45.9 125 45.8 124.5 45.3C123 43.6 120.9 42.6 118.7 42.6C116.5 42.6 114.5 43.5 112.9 45.3C112.4 45.9 111.6 46 110.9 45.5C109 44.2 106.8 43.9 104.6 44.5C102.5 45 100.7 46.5 99.7 48.5C99.4 49.2 98.6 49.5 97.9 49.2C95.7 48.5 93.5 48.7 91.6 49.8C89.7 50.9 88.4 52.7 87.9 55C87.8 55.7 87.1 56.2 86.3 56.2C84 56.1 81.9 56.9 80.3 58.4C78.8 60 78 62.1 78.1 64.4C78.1 65.1 77.6 65.8 76.9 66C74.7 66.5 72.9 67.8 71.7 69.7C70.6 71.6 70.4 73.9 71.1 76C71.3 76.7 71 77.5 70.4 77.8C68.4 78.8 66.9 80.6 66.4 82.7C65.8 84.9 66.2 87.1 67.4 89C67.8 89.6 67.7 90.5 67.2 91C65.5 92.5 64.5 94.6 64.5 96.8C64.5 99 65.4 101 67.2 102.6C67.8 103.1 67.9 103.9 67.4 104.6C66.1 106.5 65.8 108.7 66.4 110.9C66.9 113 68.4 114.8 70.4 115.8C71.1 116.1 71.4 116.9 71.1 117.6C70.6 119.1 70.6 120.7 71 122.2C71.2 123 70.8 123.8 70 124.1C69.2 124.3 68.4 123.9 68.1 123.1C67.6 121.4 67.6 119.6 67.9 117.9C65.7 116.4 64 114.2 63.4 111.7C62.7 109.2 63 106.4 64.2 104.1C62.4 102.1 61.4 99.6 61.4 97C61.4 94.4 62.4 91.9 64.2 89.9C63 87.5 62.7 84.8 63.4 82.2C64.1 79.7 65.7 77.5 67.9 76C67.3 73.4 67.8 70.7 69.1 68.4C70.4 66.1 72.5 64.4 75.1 63.6C75.2 60.9 76.3 58.5 78.2 56.6C80.1 54.7 82.6 53.7 85.2 53.5C86 51 87.7 48.9 90 47.5C92.3 46.2 95 45.8 97.6 46.3C99.1 44.1 101.3 42.4 103.8 41.8C106.4 41.1 109.1 41.4 111.4 42.6C113.4 40.8 115.9 39.8 118.5 39.8C121.1 39.8 123.6 40.8 125.6 42.6C128 41.4 130.7 41.1 133.3 41.8C135.8 42.5 138 44.1 139.5 46.3C142.1 45.8 144.8 46.2 147.1 47.5C149.4 48.8 151.1 50.9 151.9 53.5C154.6 53.6 157 54.7 158.9 56.6C160.8 58.5 161.8 61 162 63.6C164.5 64.4 166.6 66.1 168 68.4C169.3 70.7 169.7 73.4 169.2 76C171.4 77.5 173.1 79.7 173.7 82.2C174.4 84.8 174.1 87.5 172.9 89.8C174.7 91.8 175.7 94.3 175.7 96.9C175.7 99.5 174.7 102 172.9 104C174.1 106.4 174.4 109.1 173.7 111.7C173 114.2 171.4 116.4 169.2 117.9C169.8 120.5 169.3 123.2 168 125.5C166.7 127.8 164.6 129.5 162 130.3C161.9 133 160.8 135.4 158.9 137.3C157 139.2 154.5 140.2 151.9 140.4C151.1 142.9 149.4 145 147.1 146.4C144.8 147.7 142.1 148.1 139.5 147.6C138 149.8 135.8 151.5 133.3 152.1C130.7 152.8 128 152.5 125.7 151.3C123.7 153.1 121.2 154.1 118.6 154.1Z" fill="#192C53"/>
<path d="M118.6 142.5C111.9 142.5 105.5 141.1 99.5 138.3C98.7 138 98.4 137.1 98.8 136.3C99.1 135.5 100 135.2 100.8 135.6C106.4 138.2 112.4 139.5 118.6 139.5C142 139.5 161.1 120.4 161.1 97C161.1 73.6 142 54.5 118.6 54.5C95.2 54.5 76.1 73.6 76.1 97C76.1 104.1 77.9 111.1 81.2 117.3C81.6 118 81.3 118.9 80.6 119.3C79.9 119.7 79 119.4 78.6 118.7C75 112.1 73.1 104.6 73.1 97C73.1 71.9 93.5 51.5 118.6 51.5C143.7 51.5 164.1 72 164.1 97C164.1 122.1 143.7 142.5 118.6 142.5Z" fill="#192C53"/>
<path d="M132.5 93.9C125.3 93.9 119.4 88 119.4 80.8C119.4 73.6 125.3 67.7 132.5 67.7C139.7 67.7 145.6 73.6 145.6 80.8C145.5 88 139.7 93.9 132.5 93.9ZM132.5 70.8C126.9 70.8 122.4 75.3 122.4 80.9C122.4 86.5 126.9 91 132.5 91C138.1 91 142.6 86.5 142.6 80.9C142.5 75.3 138 70.8 132.5 70.8Z" fill="#192C53"/>
<path d="M112.5 127C110.1 127 107.6 125.8 105.5 123.7C101.6 119.8 101.2 114.8 104.6 111.4C109.6 106.4 117.7 103.7 121.6 107.7C123.4 109.5 124 112.5 123 116C122.2 119.1 120.3 122.3 117.8 124.7C116.4 126.2 114.6 127 112.5 127C112.6 127 112.5 127 112.5 127ZM116.5 108.7C113.6 108.7 109.7 110.5 106.7 113.4C104.1 116.1 105.5 119.3 107.6 121.5C109.1 123 110.9 123.9 112.5 123.9C113.7 123.9 114.8 123.4 115.7 122.4C117.8 120.3 119.4 117.6 120.1 115C120.7 112.6 120.5 110.7 119.4 109.6C118.8 109.1 117.8 108.7 116.5 108.7Z" fill="#192C53"/>
</svg>
