<svg width="214" height="214" viewBox="0 0 214 214" fill="none" xmlns="http://www.w3.org/2000/svg">
<path d="M107 212C164.99 212 212 164.99 212 107C212 49.0101 164.99 2 107 2C49.0101 2 2 49.0101 2 107C2 164.99 49.0101 212 107 212Z" stroke="#DECA75" stroke-width="0" stroke-miterlimit="10"/>
<path d="M106.6 184.1C64.1 184.1 29.5 149.5 29.5 107C29.5 64.5 64.1 29.9 106.6 29.9C149.1 29.9 183.7 64.5 183.7 107C183.7 110.2 183.4 113.5 183 117L180 116.7C180.4 113.4 180.7 110.1 180.7 107.1C180.7 66.2 147.4 33 106.6 33C65.7 33 32.5 66.3 32.5 107.1C32.5 147.9 65.8 181.2 106.6 181.2C110.1 181.2 113.6 180.9 117.8 180.3L118.2 183.3C113.9 183.9 110.2 184.1 106.6 184.1Z" fill="#192C53"/>
<path d="M106.6 171.8C70.9001 171.8 41.8 142.7 41.8 107C41.8 71.3 70.9001 42.2 106.6 42.2C142.3 42.2 171.4 71.3 171.4 107H168.4C168.4 72.9 140.7 45.2 106.6 45.2C72.5001 45.2 44.8 72.9 44.8 107C44.8 141.1 72.5001 168.8 106.6 168.8V171.8Z" fill="#192C53"/>
<path d="M108.1 50.4H105.1V62.2H108.1V50.4Z" fill="#192C53"/>
<path d="M133.554 57.3345L127.641 67.5463L130.237 69.0496L136.15 58.8378L133.554 57.3345Z" fill="#192C53"/>
<path d="M154.863 77.5021L144.652 83.4163L146.156 86.0122L156.366 80.098L154.863 77.5021Z" fill="#192C53"/>
<path d="M163 102.5H151.4V105.5H163V102.5Z" fill="#192C53"/>
<path d="M105.1 151.8H102.1V163.6H105.1V151.8Z" fill="#192C53"/>
<path d="M82.8661 144.967L76.9519 155.178L79.5478 156.681L85.462 146.471L82.8661 144.967Z" fill="#192C53"/>
<path d="M66.9443 127.983L56.8191 133.845L58.3224 136.442L68.4476 130.579L66.9443 127.983Z" fill="#192C53"/>
<path d="M61.9001 105.5H50.1001V108.5H61.9001V105.5Z" fill="#192C53"/>
<path d="M58.3688 77.4983L56.8655 80.0945L67.0772 86.0075L68.5805 83.4113L58.3688 77.4983Z" fill="#192C53"/>
<path d="M79.5393 57.3556L76.9431 58.8586L82.8549 69.0704L85.4511 67.5674L79.5393 57.3556Z" fill="#192C53"/>
<path d="M106.7 112.1C105.5 112.1 104.3 111.7 103.3 110.8C102.3 110 101.7 108.9 101.6 107.5C101.5 106.1 101.9 104.7 102.8 103.6C104.6 101.5 107.9 101.3 109.9 103.1C110.9 103.9 111.5 105 111.6 106.4C111.7 107.8 111.3 109.2 110.4 110.3C109.6 111.3 108.5 111.9 107.1 112C107 112.1 106.9 112.1 106.7 112.1ZM106.6 105C106 105 105.4 105.2 105 105.7C104.6 106.1 104.4 106.7 104.5 107.3C104.5 107.6 104.7 108.1 105.2 108.5C105.7 108.9 106.3 109.1 106.9 109.1C107.2 109.1 107.7 108.9 108.1 108.4C108.5 107.9 108.7 107.3 108.7 106.7C108.7 106.4 108.5 105.9 108 105.5C107.6 105.2 107.1 105 106.6 105Z" fill="#192C53"/>
<path d="M132.463 75.8667L107.839 103.35L110.074 105.352L134.697 77.8686L132.463 75.8667Z" fill="#192C53"/>
<path d="M81.7358 82.8431L79.7417 85.0844L104.022 106.687L106.017 104.446L81.7358 82.8431Z" fill="#192C53"/>
<path d="M149.3 183.8C129.9 183.8 114.1 168 114.1 148.6C114.1 129.2 129.9 113.4 149.3 113.4C158.6 113.3 167.4 116.9 174.1 123.5C180.8 130.2 184.6 139.1 184.6 148.6C184.5 168 168.7 183.8 149.3 183.8ZM149.6 116.3C149.5 116.3 149.4 116.3 149.3 116.3C131.5 116.3 117.1 130.8 117.1 148.5C117.1 166.3 131.6 180.7 149.3 180.7C167.1 180.7 181.5 166.2 181.5 148.5C181.5 139.8 178.1 131.6 171.9 125.5C165.9 119.6 158 116.3 149.6 116.3Z" fill="#192C53"/>
<path d="M150.4 133.9H147.4V163H150.4V133.9Z" fill="#192C53"/>
<path d="M163.4 147.1H134.3V150.1H163.4V147.1Z" fill="#192C53"/>
</svg>
