<svg width="214" height="214" viewBox="0 0 214 214" fill="none" xmlns="http://www.w3.org/2000/svg">
<path d="M107 212C164.99 212 212 164.99 212 107C212 49.0101 164.99 2 107 2C49.0101 2 2 49.0101 2 107C2 164.99 49.0101 212 107 212Z" stroke="#DECA75" stroke-width="0" stroke-miterlimit="10"/>
<path d="M132.3 116.6C131.5 116.6 130.8 116.1 130.5 115.3C127.1 105.5 112.4 108.2 106.2 109.9C100.8 111.4 95.5001 110.7 91.3001 108.1C87.6001 105.8 85.0001 102 84.1001 97.7C82.3001 88.5 92.4001 79.4 103.5 71C115.4 62 124.3 31 124.4 30.7C124.7 29.7 125.7 29.1 126.7 29.4C127.7 29.7 128.3 30.7 128 31.7C127.6 33 118.6 64.2 105.8 74C92.1001 84.4 86.7001 91.3 87.8001 97C88.4001 100.2 90.4001 103.1 93.3001 104.9C95.6001 106.3 99.5001 107.8 105.2 106.2C117.1 103 126.2 104.1 131 109.1C131.4 102.5 130.5 96.3 129.7 91.1C129.1 86.7 128.5 83 128.9 80.1C129.9 72.8 137.1 53.3 145.7 43C146.4 42.2 147.6 42.1 148.4 42.8C149.2 43.5 149.3 44.7 148.6 45.5C140.6 55 133.6 73.9 132.7 80.7C132.4 83 132.9 86.5 133.5 90.6C134.5 97.5 135.8 106 134.1 115.2C133.9 116.1 133.2 116.7 132.4 116.8C132.4 116.6 132.3 116.6 132.3 116.6ZM93.1001 183.3C93.2001 183.1 98.5001 162.7 110.4 153.7C121.5 145.3 131.6 136.2 129.8 127C129 122.7 126.4 118.9 122.6 116.6C118.4 114 113.2 113.4 107.7 114.8C101.5 116.4 86.8001 119.2 83.4001 109.4C83.1001 108.6 82.3001 108.1 81.5001 108.1C80.6001 108.2 79.9001 108.8 79.8001 109.7C78.2001 118.8 79.4001 127.4 80.4001 134.3C81.0001 138.4 81.5001 141.9 81.2001 144.2C80.2001 150.9 73.3001 169.8 65.3001 179.4C64.6001 180.2 64.7001 181.4 65.5001 182.1C66.3001 182.8 67.5001 182.7 68.2001 181.9C76.8001 171.7 84.0001 152.1 85.0001 144.8C85.4001 141.9 84.9001 138.2 84.2001 133.8C83.4001 128.6 82.5001 122.4 82.9001 115.8C87.7001 120.8 96.8001 121.8 108.7 118.7C114.4 117.2 118.3 118.6 120.6 120C123.4 121.8 125.4 124.7 126.1 127.9C127.2 133.6 121.8 140.5 108.1 150.9C95.2001 160.7 89.7001 181.6 89.4001 182.5C89.1001 183.5 89.7001 184.5 90.8001 184.8C91.0001 184.8 91.1001 184.9 91.3001 184.9C92.1001 184.7 92.9001 184.1 93.1001 183.3Z" fill="#192C53"/>
</svg>
