<svg width="214" height="214" viewBox="0 0 214 214" fill="none" xmlns="http://www.w3.org/2000/svg">
<path d="M107 212C164.99 212 212 164.99 212 107C212 49.0101 164.99 2 107 2C49.0101 2 2 49.0101 2 107C2 164.99 49.0101 212 107 212Z" stroke="#DECA75" stroke-width="0" stroke-miterlimit="10"/>
<path d="M87.9001 40.4C84.8001 40.4 81.5001 41 78.8001 42.2C71.9001 45.1 65.8001 51.4 63.4001 57.9C58.9001 59.5 49.6001 63.2 45.0001 72.9C41.0001 81.3 41.4001 92.2 46.1001 105.6C46.0001 105.9 45.8001 106.2 45.7001 106.5V106.6C41.6001 115.2 40.9001 123.1 43.7001 129.1C45.7001 133.3 49.3001 136.3 54.3001 137.9C52.0001 142.9 51.9001 148.4 54.1001 152.8C56.7001 158 62.1001 161.4 69.5001 162.4C73.0001 169.6 79.7001 173.6 87.9001 173.6C91.7001 173.6 95.5001 172.7 98.4001 171C101.6 169.1 103.4 166.6 103.4 163.9V54C103.2 44 95.3001 40.4 87.9001 40.4ZM100 163.8C100 165.3 98.8001 166.9 96.6001 168.1C94.2001 169.5 91.0001 170.3 87.8001 170.3C84.4001 170.3 76.0001 169.3 72.0001 160.2L71.6001 159.3L70.7001 159.2C63.9001 158.4 59.2001 155.7 57.0001 151.3C55.0001 147.3 55.4001 142.2 58.1001 137.6L59.3001 135.6L57.1001 135.1C52.1001 134 48.6001 131.4 46.8001 127.6C44.4001 122.5 45.2001 115.6 48.9001 107.8C60.9001 93.4 76.0001 104.1 76.6001 104.6C77.3001 105.1 78.4001 105 78.9001 104.3C79.4001 103.6 79.3001 102.5 78.6001 102C78.4001 101.9 62.5001 90.4 49.0001 103C45.1001 91.2 44.9001 81.5 48.3001 74.3C52.5001 65.4 61.3001 62.3 65.6001 60.8L66.4001 60.5L66.7001 59.7C68.6001 53.7 74.2001 47.9 80.5001 45.2C82.8001 44.2 85.6001 43.7 88.3001 43.7C91.1001 43.7 100.3 44.4 100.3 53.9V163.8H100ZM167.9 105.6C172.6 92.3 172.9 81.3 169 72.9C164.4 63.3 155.3 59.6 150.6 57.9C148.2 51.4 142.1 45.1 135.2 42.2C132.5 41 129.3 40.4 126.1 40.4C118.7 40.4 110.8 44 110.8 53.9V163.7C110.8 169 117.9 173.5 126.3 173.5C134.6 173.5 141.2 169.4 144.7 162.3C152.1 161.3 157.5 157.9 160.1 152.7C162.3 148.2 162.2 142.8 159.9 137.8C164.8 136.3 168.5 133.3 170.5 129C173.2 122.9 172.4 114.6 167.9 105.6ZM167.4 127.6C165.6 131.5 162 134.1 157.1 135.1L154.9 135.6L156.1 137.6C158.8 142.2 159.2 147.3 157.2 151.3C155 155.7 150.3 158.4 143.6 159.2C138.8 159.1 135.1 157.7 132.7 155.1C129.1 151.2 129.5 145.7 129.5 145.6C129.6 144.7 128.9 143.9 128 143.8C127.1 143.7 126.3 144.4 126.2 145.3C126.2 145.6 125.7 152.2 130.2 157.2C132.8 160 136.4 161.7 141 162.2C136.7 169.4 129.4 170.2 126.3 170.2C119.3 170.2 114.1 166.8 114.1 163.7V54C114.1 44.5 123.3 43.8 126.1 43.8C128.8 43.8 131.6 44.3 133.9 45.3C140.2 48 145.8 53.8 147.7 59.8L148.1 60.6L148.9 60.9C153.1 62.4 161.8 65.5 166.1 74.4C169.7 82.1 169.3 92.4 164.7 105.1C157 119.2 138.6 119.1 138.4 119.2C137.6 119.2 136.7 119.9 136.7 120.8C136.7 121.7 137.4 122.5 138.3 122.5H138.4C140.2 122.5 157 122.1 165.9 109.2C169.1 116.4 169.6 122.8 167.4 127.6ZM82.3001 145.5C82.3001 146.4 81.5001 147.1 80.7001 147.1C79.8001 147.1 79.1001 146.3 79.1001 145.4C79.7001 126.7 64.1001 124.9 63.4001 124.8C62.5001 124.7 61.8001 123.9 61.9001 123C62.0001 122.1 62.8001 121.4 63.7001 121.5C63.9001 121.6 83.0001 123.8 82.3001 145.5ZM86.8001 69.8C86.3001 74.3 84.5001 77.7 81.5001 79.9C78.4001 82.2 74.6001 82.7 71.7001 82.7C69.4001 82.7 67.8001 82.4 67.7001 82.3C66.8001 82.1 66.3001 81.2 66.4001 80.4C66.6001 79.5 67.4001 78.9 68.3001 79.1C68.4001 79.1 75.1001 80.5 79.5001 77.2C81.8001 75.5 83.1001 72.9 83.5001 69.4C83.6001 68.5 84.4001 67.9 85.3001 67.9C86.3001 68.1 86.9001 68.9 86.8001 69.8ZM151.7 94.4C143.4 94.4 137.1 92.1 132.9 87.6C126.8 81 127.6 72.2 127.6 71.9C127.7 71 128.5 70.3 129.4 70.4C130.3 70.5 131 71.3 130.9 72.2C130.9 72.3 130.3 79.9 135.4 85.4C139 89.3 144.6 91.2 152.2 91.2C153.1 91.2 153.9 91.9 153.9 92.8C153.9 93.7 153.2 94.5 152.3 94.5C152 94.4 151.8 94.4 151.7 94.4Z" fill="#192C53"/>
</svg>
