<svg width="214" height="214" viewBox="0 0 214 214" fill="none" xmlns="http://www.w3.org/2000/svg">
<path d="M107 212C164.99 212 212 164.99 212 107C212 49.0101 164.99 2 107 2C49.0101 2 2 49.0101 2 107C2 164.99 49.0101 212 107 212Z" stroke="#DECA75" stroke-width="0" stroke-miterlimit="10"/>
<path d="M91.1 182.1C90.7 182.1 90.2 181.9 89.9 181.6C89.2 180.9 89.2 179.9 89.9 179.2C101.4 167.7 107.3 151.9 106.2 135.7L102.3 76.7C101.2 59.6 107.5 42.8 119.6 30.6C120.3 29.9 121.3 29.9 122 30.6C122.7 31.3 122.7 32.3 122 33C110.5 44.5 104.6 60.3 105.7 76.5L109.6 135.5C110.7 152.6 104.4 169.4 92.3 181.6C92 181.9 91.6 182.1 91.1 182.1Z" fill="#192C53"/>
<path d="M31.7001 122.6C31.3001 122.6 30.8001 122.4 30.5001 122.1C29.8001 121.4 29.8001 120.4 30.5001 119.7C42.6001 107.5 59.5001 101.2 76.6001 102.4L135.6 106.3C151.7 107.4 167.6 101.4 179.1 90C179.8 89.3 180.8 89.3 181.5 90C182.2 90.7 182.2 91.7 181.5 92.4C169.3 104.5 152.5 110.8 135.4 109.7L76.4001 105.8C60.2001 104.7 44.4001 110.7 32.9001 122.1C32.6001 122.5 32.1001 122.6 31.7001 122.6Z" fill="#192C53"/>
<path d="M175.6 88.2C175.2 88.2 174.7 88 174.4 87.7L124.3 37.6C123.6 36.9 123.6 35.9 124.3 35.2C125 34.5 126 34.5 126.7 35.2L176.8 85.3C177.5 86 177.5 87 176.8 87.7C176.5 88.1 176 88.2 175.6 88.2Z" fill="#192C53"/>
<path d="M157.4 99.7C157 99.7 156.5 99.5 156.2 99.2L130.6 73.6C129.9 72.9 129.9 71.9 130.6 71.2C131.3 70.5 132.3 70.5 133 71.2L158.6 96.8C159.3 97.5 159.3 98.5 158.6 99.2C158.2 99.5 157.8 99.7 157.4 99.7Z" fill="#192C53"/>
<path d="M122.2 64.5C121.8 64.5 121.3 64.3 121 64L112.2 55.2C111.5 54.5 111.5 53.5 112.2 52.8C112.9 52.1 113.9 52.1 114.6 52.8L123.4 61.6C124.1 62.3 124.1 63.3 123.4 64C123 64.4 122.6 64.5 122.2 64.5Z" fill="#192C53"/>
<path d="M131.4 103.4C131 103.4 130.5 103.2 130.2 102.9L109.2 81.9C108.5 81.2 108.5 80.2 109.2 79.5C109.9 78.8 110.9 78.8 111.6 79.5L132.6 100.5C133.3 101.2 133.3 102.2 132.6 102.9C132.2 103.3 131.8 103.4 131.4 103.4Z" fill="#192C53"/>
<path d="M101.6 133.1C101.2 133.1 100.7 132.9 100.4 132.6L79.4 111.6C78.7 110.9 78.7 109.9 79.4 109.2C80.1 108.5 81.1 108.5 81.8 109.2L102.8 130.2C103.5 130.9 103.5 131.9 102.8 132.6C102.5 133 102.1 133.1 101.6 133.1Z" fill="#192C53"/>
<path d="M98.5002 159.7C98.1002 159.7 97.6002 159.5 97.3002 159.2L88.6002 150.5C87.9002 149.8 87.9002 148.8 88.6002 148.1C89.3002 147.4 90.3002 147.4 91.0002 148.1L99.7002 156.8C100.4 157.5 100.4 158.5 99.7002 159.2C99.4002 159.6 98.9002 159.7 98.5002 159.7Z" fill="#192C53"/>
<path d="M80.3003 141.5C79.9003 141.5 79.4003 141.3 79.1003 141L53.2003 115.1C52.5003 114.4 52.5003 113.4 53.2003 112.7C53.9003 112 54.9003 112 55.6003 112.7L81.5003 138.6C82.2003 139.3 82.2003 140.3 81.5003 141C81.1003 141.3 80.7003 141.5 80.3003 141.5Z" fill="#192C53"/>
<path d="M86.5003 177.4C86.1003 177.4 85.6003 177.2 85.3003 176.9L35.2003 126.8C34.5003 126.1 34.5003 125.1 35.2003 124.4C35.9003 123.7 36.9003 123.7 37.6003 124.4L87.7003 174.5C88.4003 175.2 88.4003 176.2 87.7003 176.9C87.3003 177.2 86.9003 177.4 86.5003 177.4Z" fill="#192C53"/>
<path d="M127 76.1C124.8 76.1 122.7 75.3 121 73.6C119.4 72 118.5 69.9 118.5 67.6C118.5 65.3 119.4 63.2 121 61.6C124.3 58.3 129.6 58.3 132.9 61.6C134.5 63.2 135.4 65.3 135.4 67.6C135.4 69.9 134.5 72 132.9 73.6C131.3 75.2 129.1 76.1 127 76.1ZM127 62.6C125.7 62.6 124.4 63.1 123.4 64.1C122.4 65.1 121.9 66.3 121.9 67.7C121.9 69.1 122.4 70.3 123.4 71.3C125.4 73.3 128.6 73.3 130.6 71.3C131.6 70.3 132.1 69.1 132.1 67.7C132.1 66.3 131.6 65.1 130.6 64.1C129.6 63.1 128.3 62.6 127 62.6Z" fill="#192C53"/>
<path d="M85.0001 153C80.3001 153 76.6001 149.2 76.6001 144.6C76.6001 139.9 80.4001 136.2 85.0001 136.2C89.7001 136.2 93.4001 140 93.4001 144.6C93.5001 149.2 89.7001 153 85.0001 153ZM85.0001 139.5C82.2001 139.5 79.9001 141.8 79.9001 144.6C79.9001 147.4 82.2001 149.7 85.0001 149.7C87.8001 149.7 90.1001 147.4 90.1001 144.6C90.1001 141.8 87.8001 139.5 85.0001 139.5Z" fill="#192C53"/>
</svg>
