<svg width="214" height="214" viewBox="0 0 214 214" fill="none" xmlns="http://www.w3.org/2000/svg">
<path d="M107 212C164.99 212 212 164.99 212 107C212 49.0101 164.99 2 107 2C49.0101 2 2 49.0101 2 107C2 164.99 49.0101 212 107 212Z" stroke="#DECA75" stroke-width="0" stroke-miterlimit="10"/>
<path d="M164.7 122.4C163.8 117.6 163 113 162.9 109.2C162.7 103.7 162.1 97.7 161.6 92C160.7 82.1 159.8 72.8 160.6 65.8C162.8 62.5 164.2 59.2 164.1 56.1C164 53.1 162.4 50.6 159.6 48.7C157.2 47.1 154.9 46.3 152.8 46.3C147.8 46.3 144.6 50.4 141.7 54C141 54.9 140.3 55.7 139.7 56.5C135.4 61.3 128.8 66.9 114.8 69.8V52.6C114.8 51.6 114 50.9 113.1 50.9C112.1 50.9 111.4 51.7 111.4 52.6V70.3C110.5 70.5 109.5 70.6 108.5 70.7C107.3 70.9 106 70.9 104.8 70.9C104.1 70.9 103.4 70.8 102.6 70.8V52.6C102.6 51.6 101.8 50.9 100.9 50.9C99.9001 50.9 99.2001 51.7 99.2001 52.6V70.4C85.2001 67.8 75.1001 56.5 75.0001 56.4C75.0001 56.3 74.9001 56.3 74.9001 56.3C69.3001 51.3 63.4001 51.3 59.2001 56.2C57.5001 58.1 54.0001 62.1 56.6001 67.8C55.3001 72.5 47.7001 100.4 47.5001 118.7C47.2001 139.1 55.5001 159.9 65.3001 163.2C66.5001 163.6 67.7001 163.8 68.9001 163.8C72.6001 163.8 76.1001 161.9 78.2001 158.6C80.9001 154.2 80.2001 148.8 76.2001 144.8C69.0001 137.6 68.5001 129 70.1001 115.7C71.4001 105.1 74.2001 90.9 75.4001 85.3C82.2001 89.7 90.3001 93.5 98.6001 94.2C100.4 94.4 102.2 94.4 104.1 94.4C116.7 94.4 129.6 90.9 140 84.7C140.9 88.9 142.6 98.5 142.8 109.6C142.9 115.3 143.6 120.4 144.2 124.4C145.2 131 145.8 135.4 143.4 137.5C141.3 139.4 137 138.3 131.6 136.9C127 135.7 121.8 134.3 116.1 134.3C106.1 134.3 94.2001 139.8 94.2001 165.9C94.2001 166.9 95.0001 167.6 95.9001 167.6C96.9001 167.6 97.6001 166.8 97.6001 165.9C97.6001 147 103.6 137.8 116 137.8C121.3 137.8 126.3 139.1 130.7 140.3C136.8 141.9 142.1 143.3 145.7 140.2C149.5 136.8 148.8 131.4 147.7 124C147.1 119.8 146.4 115.1 146.3 109.6C146.1 96.9 143.9 86.3 143.1 82.8C144.6 81.8 146 80.8 147.3 79.7C150.6 77 154.1 73.9 157.1 70.6C157 77 157.7 84.5 158.4 92.3C158.9 98 159.5 103.9 159.7 109.3C159.8 113.4 160.7 118.1 161.6 123C163.9 136.1 166.3 149.7 156.7 153.8C148.1 157.5 139.6 154.3 132.2 151.5C127.4 149.7 122.9 148 118.8 148.4C116.1 148.6 114 149.8 112.5 151.8C108.6 156.9 110.3 165.9 110.3 166.3C110.5 167.1 111.2 167.7 112 167.7C112.1 167.7 112.2 167.7 112.3 167.7C113.2 167.5 113.9 166.6 113.7 165.7C113.3 163.5 112.8 157.2 115.2 154C116.1 152.8 117.4 152.2 119 152C122.3 151.7 126.4 153.3 130.9 154.9C138.6 157.8 148.1 161.3 158 157.1C169.9 151.8 167.1 136.2 164.7 122.4ZM66.3001 115.3C64.6001 129.3 65.2001 139.1 73.4001 147.3C76.8001 150.7 76.4001 154.4 74.9001 156.8C73.3001 159.3 70.0001 161.3 66.1001 159.9C58.7001 157.4 50.4001 138.8 50.7001 118.7C50.9001 103.4 56.6001 80.4 58.9001 71.7C58.9001 71.7 58.9001 71.8 59.0001 71.8C61.3001 74.4 65.9001 78.9 72.0001 83.2C71.0001 87.5 67.7001 103.6 66.3001 115.3ZM144.8 77C134 85.7 118.6 90.9 103.7 90.9C101.9 90.9 100.2 90.8 98.5001 90.7C84.0001 89.5 68.1001 77 61.5001 69.5C60.7001 68.5 60.1001 67.6 59.6001 66.8C57.6001 62.9 59.7001 60.6 61.5001 58.6C63.0001 56.9 64.6001 56.1 66.3001 56.1C68.1001 56.1 70.1001 57.1 72.2001 58.9C73.3001 60.2 84.7001 72.5 100.7 74.3C102 74.4 103.3 74.5 104.6 74.5C106 74.5 107.4 74.4 108.7 74.2C128.3 71.8 136.8 64.6 142.1 58.7C142.8 57.9 143.5 57 144.3 56.1C146.8 53 149.3 49.8 152.6 49.8C154.1 49.8 155.7 50.4 157.5 51.6C159.4 52.9 160.4 54.4 160.5 56.3C160.6 58.5 159.5 61.2 157.4 64.2C157.3 64.3 157.3 64.3 157.2 64.4C154.7 68.2 150.5 72.4 144.8 77Z" fill="#192C53"/>
<path d="M86.7999 131.5L86.2999 131.3C78.3999 127.7 75.4999 126.1 76.7999 123.1C77.5999 121.3 81.6999 122.3 88.1999 124.1C91.7999 125.1 95.8999 126.2 100.5 127.1C114.4 129.6 131.1 128.8 137 121.3C140.1 117.3 139.5 114.9 138.5 113.6C136.7 111.3 132.7 111.3 129.9 112.6C126.6 114.1 113.1 115.5 98.8999 112.7C87.1999 110.4 79.9999 105.8 78.7999 102.5C78.4999 101.8 78.5999 101.2 79.0999 100.6C80.1999 99.4 81.8999 99.9 86.7999 101.8C90.9999 103.4 96.6999 105.7 104.7 106.7C117 108.3 131.6 107.8 136.4 103C137.7 101.7 138.3 100.1 138.1 98.4C137.9 96.7 137 95.3 135.6 94.4C131.5 91.9 124 94.3 123.2 94.5C122.3 94.8 121.8 95.8 122.1 96.7C122.4 97.6 123.4 98.1 124.3 97.8C126 97.2 131.5 95.9 133.8 97.3C134.3 97.6 134.6 98.1 134.7 98.8C134.8 99.2 134.7 99.8 134 100.5C130.7 103.8 118.3 105 105.2 103.2C97.6999 102.2 92.1999 100.1 88.0999 98.5C82.9999 96.5 79.2999 95.1 76.5999 98.2C75.2999 99.7 74.8999 101.6 75.5999 103.5C77.3999 108.8 86.2999 113.7 98.2999 116C112.4 118.8 127.1 117.7 131.5 115.7C133.2 114.9 135.4 115.1 135.9 115.7C136.1 116 136.1 117 134.4 119.1C129.6 125.1 114.1 125.9 101.3 123.6C96.8999 122.8 92.8999 121.7 89.3999 120.7C81.5999 118.5 75.9999 117 73.8999 121.7C70.9999 128.1 77.5999 131.1 85.0999 134.5L85.5999 134.7C90.3999 136.9 91.6999 142 90.7999 146.2C90.0999 149.3 87.8999 153 83.8999 153C82.8999 153 82.1999 153.8 82.1999 154.7C82.1999 155.7 82.9999 156.4 83.8999 156.4C88.7999 156.4 92.8999 152.6 94.1999 146.9C95.0999 141.4 93.3999 134.5 86.7999 131.5Z" fill="#192C53"/>
</svg>
