<svg width="214" height="214" viewBox="0 0 214 214" fill="none" xmlns="http://www.w3.org/2000/svg">
<path d="M107 212C164.99 212 212 164.99 212 107C212 49.0101 164.99 2 107 2C49.0101 2 2 49.0101 2 107C2 164.99 49.0101 212 107 212Z" stroke="#DECA75" stroke-width="0" stroke-miterlimit="10"/>
<path d="M164.6 173.8C162.3 173.8 160.1 172.9 158.3 171.2L140 152.8C139.4 152.2 139.4 151.3 140 150.7L150.4 140.3C151 139.7 151.9 139.7 152.5 140.3L170.9 158.7C172.6 160.4 173.5 162.6 173.5 165C173.5 167.4 172.6 169.6 170.9 171.3C169.2 172.9 166.9 173.8 164.6 173.8ZM143.2 151.7L160.5 169C162.8 171.3 166.5 171.3 168.8 169C169.9 167.9 170.5 166.4 170.5 164.9C170.5 163.3 169.9 161.9 168.8 160.8L151.5 143.5L143.2 151.7Z" fill="#192C53"/>
<path d="M146.2 148C145.8 148 145.4 147.9 145.1 147.6L133.1 135.6C132.5 135 132.5 134.1 133.1 133.5C133.7 132.9 134.6 132.9 135.2 133.5L147.2 145.5C147.8 146.1 147.8 147 147.2 147.6C147 147.9 146.6 148 146.2 148Z" fill="#192C53"/>
<path d="M80.2002 139.7H60.2002C59.4002 139.7 58.7002 139 58.7002 138.2C58.7002 137.4 59.4002 136.7 60.2002 136.7H80.2002C81.0002 136.7 81.7002 137.4 81.7002 138.2C81.7002 139 81.1002 139.7 80.2002 139.7Z" fill="#192C53"/>
<path d="M89.2999 152.5H52.8999C52.0999 152.5 51.3999 151.8 51.3999 151C51.3999 150.2 52.0999 149.5 52.8999 149.5H89.2999C90.0999 149.5 90.7999 150.2 90.7999 151C90.7999 151.8 90.1999 152.5 89.2999 152.5Z" fill="#192C53"/>
<path d="M80.2002 85.1H60.2002C59.4002 85.1 58.7002 84.4 58.7002 83.6C58.7002 82.8 59.4002 82.1 60.2002 82.1H80.2002C81.0002 82.1 81.7002 82.8 81.7002 83.6C81.7002 84.4 81.1002 85.1 80.2002 85.1Z" fill="#192C53"/>
<path d="M80.2002 55.9H60.2002C59.4002 55.9 58.7002 55.2 58.7002 54.4C58.7002 53.6 59.4002 52.9 60.2002 52.9H80.2002C81.0002 52.9 81.7002 53.6 81.7002 54.4C81.7002 55.2 81.1002 55.9 80.2002 55.9Z" fill="#192C53"/>
<path d="M89.2999 43.2H52.8999C52.0999 43.2 51.3999 42.5 51.3999 41.7C51.3999 40.9 52.0999 40.2 52.8999 40.2H89.2999C90.0999 40.2 90.7999 40.9 90.7999 41.7C90.7999 42.5 90.1999 43.2 89.2999 43.2Z" fill="#192C53"/>
<path d="M80.2002 110.6H60.2002C59.4002 110.6 58.7002 109.9 58.7002 109.1C58.7002 108.3 59.4002 107.6 60.2002 107.6H80.2002C81.0002 107.6 81.7002 108.3 81.7002 109.1C81.7002 109.9 81.1002 110.6 80.2002 110.6Z" fill="#192C53"/>
<path d="M87.4999 97.8H52.8999C52.0999 97.8 51.3999 97.1 51.3999 96.3C51.3999 95.5 52.0999 94.8 52.8999 94.8H87.4999C88.2999 94.8 88.9999 95.5 88.9999 96.3C88.9999 97.1 88.3999 97.8 87.4999 97.8Z" fill="#192C53"/>
<path d="M100.3 152.5C99.5 152.5 98.8 151.8 98.8 151C98.8 138.3 85.1 131.9 70.5 125C55.8 118.1 40.5 110.9 40.5 96.3C40.5 81.7 55.8 74.5 70.5 67.6C85 60.8 98.8 54.3 98.8 41.6C98.8 40.8 99.5 40.1 100.3 40.1C101.1 40.1 101.8 40.8 101.8 41.6C101.8 56.2 86.5 63.4 71.8 70.3C57.3 77.1 43.5 83.6 43.5 96.3C43.5 109 57.2 115.4 71.8 122.3C86.5 129.2 101.8 136.4 101.8 151C101.8 151.8 101.1 152.5 100.3 152.5Z" fill="#192C53"/>
<path d="M42 152.5C41.2 152.5 40.5 151.8 40.5 151C40.5 136.4 55.8 129.2 70.5 122.3C75.4 120 80.4 117.7 84.7 115.1C85.4 114.7 86.3 114.9 86.8 115.6C87.2 116.3 87 117.2 86.3 117.7C81.8 120.3 76.7 122.7 71.8 125.1C57.3 131.9 43.5 138.4 43.5 151.1C43.5 151.8 42.8 152.5 42 152.5Z" fill="#192C53"/>
<path d="M97.8 88.7C97.3 88.7 96.8 88.4 96.5 88C91.9 80.4 81.1 75.3 70.5 70.4C55.8 63.5 40.5 56.3 40.5 41.7C40.5 40.9 41.2 40.2 42 40.2C42.8 40.2 43.5 40.9 43.5 41.7C43.5 54.4 57.2 60.8 71.8 67.7C82.7 72.8 94 78.1 99 86.5C99.4 87.2 99.2 88.1 98.5 88.6C98.3 88.7 98 88.7 97.8 88.7Z" fill="#192C53"/>
<path d="M116.7 139.7C102.8 139.7 91.5 128.4 91.5 114.5C91.5 100.6 102.8 89.3 116.7 89.3C130.6 89.3 141.9 100.6 141.9 114.5C141.9 128.4 130.5 139.7 116.7 139.7ZM116.7 92.4C104.5 92.4 94.5 102.3 94.5 114.6C94.5 126.9 104.4 136.8 116.7 136.8C129 136.8 138.9 126.9 138.9 114.6C138.9 102.3 128.9 92.4 116.7 92.4Z" fill="#192C53"/>
<path d="M116.7 132.2C107 132.2 99 124.3 99 114.5C99 104.8 106.9 96.8 116.7 96.8C126.4 96.8 134.4 104.7 134.4 114.5C134.3 124.3 126.4 132.2 116.7 132.2ZM116.7 99.9C108.6 99.9 102 106.5 102 114.6C102 122.7 108.6 129.3 116.7 129.3C124.8 129.3 131.4 122.7 131.4 114.6C131.3 106.5 124.8 99.9 116.7 99.9Z" fill="#192C53"/>
</svg>
