<svg width="214" height="214" viewBox="0 0 214 214" fill="none" xmlns="http://www.w3.org/2000/svg">
<path d="M107 212C164.99 212 212 164.99 212 107C212 49.0101 164.99 2 107 2C49.0101 2 2 49.0101 2 107C2 164.99 49.0101 212 107 212Z" stroke="#DECA75" stroke-width="0" stroke-miterlimit="10"/>
<path d="M120 134.6C115.8 134.6 111.7 133.9 107.8 132.5C107 132.2 106.6 131.4 106.9 130.6C107.2 129.8 108 129.4 108.8 129.7C112.4 131 116.2 131.6 120 131.6C138.3 131.6 153.3 116.7 153.3 98.3C153.3 91 150.9 84 146.4 78.1C145.9 77.5 146 76.7 146.5 76.1L159.1 63.5C159.4 63.2 159.8 63.1 160.2 63.1C160.6 63.1 161 63.3 161.3 63.5L166.6 68.8L168.3 49.9L149.4 51.6L154.7 56.9C155.3 57.5 155.3 58.4 154.7 59L142.1 71.6C141.6 72.1 140.7 72.2 140.1 71.7C134.2 67.2 127.2 64.8 119.9 64.8C101.6 64.8 86.6 79.7 86.6 98.1C86.6 102.8 87.5 107.3 89.4 111.5C89.7 112.3 89.4 113.1 88.6 113.5C87.8 113.8 87 113.5 86.6 112.7C84.6 108.1 83.5 103.1 83.5 98.1C83.5 78.1 99.8 61.8 119.8 61.8C127.3 61.8 134.5 64.1 140.7 68.5L151.3 57.9L144.8 51.4C144.4 51 144.3 50.4 144.5 49.8C144.7 49.2 145.2 48.9 145.8 48.8L169.7 46.6C170.1 46.6 170.6 46.7 170.9 47C171.2 47.3 171.4 47.8 171.3 48.2L169.1 72.1C169 72.7 168.7 73.2 168.1 73.4C167.6 73.6 166.9 73.5 166.5 73L160 66.5L149.4 77.1C153.8 83.3 156.1 90.5 156.1 98C156.3 118.3 140 134.6 120 134.6Z" fill="#192C53"/>
<path d="M83.1 167.2H74.4C73.6 167.2 72.9 166.5 72.9 165.7V158.5H65.7C64.9 158.5 64.2 157.8 64.2 157V148.3C64.2 147.5 64.9 146.8 65.7 146.8H72.9V134.1C55.5 131.3 42.5 116.1 42.5 98.3C42.5 78.3 58.8 62 78.8 62C83.3 62 87.7 62.8 91.8 64.4C92.6 64.7 93 65.6 92.7 66.3C92.4 67.1 91.5 67.5 90.8 67.2C87 65.7 83 65 78.8 65C60.5 65 45.5 79.9 45.5 98.3C45.5 115 58 129.2 74.6 131.3C75.4 131.4 75.9 132 75.9 132.8V148.3C75.9 149.1 75.2 149.8 74.4 149.8H67.2V155.5H74.4C75.2 155.5 75.9 156.2 75.9 157V164.2H81.6V157C81.6 156.2 82.3 155.5 83.1 155.5H90.3V149.8H83.1C82.3 149.8 81.6 149.1 81.6 148.3V132.8C81.6 132 82.2 131.4 82.9 131.3C99.5 129.2 112 115.1 112 98.3C112 94.1 111.2 90 109.7 86.1C109.4 85.3 109.8 84.5 110.5 84.2C111.3 83.9 112.1 84.3 112.4 85C114.1 89.3 114.9 93.7 114.9 98.3C114.9 116.1 101.9 131.2 84.5 134.1V146.8H91.7C92.5 146.8 93.2 147.5 93.2 148.3V157C93.2 157.8 92.5 158.5 91.7 158.5H84.5V165.7C84.6 166.5 83.9 167.2 83.1 167.2Z" fill="#192C53"/>
<path d="M93.1 121.5C92.7 121.5 92.3 121.4 92 121.1L91.7 120.8C91.1 120.2 91.1 119.3 91.7 118.7C92.3 118.1 93.2 118.1 93.8 118.7L94.1 119C94.7 119.6 94.7 120.5 94.1 121.1C93.9 121.4 93.5 121.5 93.1 121.5Z" fill="#192C53"/>
<path d="M106.6 79C106.2 79 105.8 78.9 105.5 78.6L105.2 78.3C104.6 77.7 104.6 76.8 105.2 76.2C105.8 75.6 106.7 75.6 107.3 76.2L107.6 76.5C108.2 77.1 108.2 78 107.6 78.6C107.3 78.8 107 79 106.6 79Z" fill="#192C53"/>
<path d="M78.7999 123.7C64.7999 123.7 53.3999 112.3 53.3999 98.3C53.3999 84.3 64.7999 72.9 78.7999 72.9C79.5999 72.9 80.2999 73.6 80.2999 74.4C80.2999 75.2 79.5999 75.9 78.7999 75.9C66.4999 75.9 56.3999 85.9 56.3999 98.3C56.3999 110.7 66.3999 120.7 78.7999 120.7C79.5999 120.7 80.2999 121.4 80.2999 122.2C80.2999 123 79.5999 123.7 78.7999 123.7Z" fill="#192C53"/>
<path d="M120 123.7C119.2 123.7 118.5 123 118.5 122.2C118.5 121.4 119.2 120.7 120 120.7C132.3 120.7 142.4 110.7 142.4 98.3C142.4 85.9 132.4 75.9 120 75.9C119.2 75.9 118.5 75.2 118.5 74.4C118.5 73.6 119.2 72.9 120 72.9C134 72.9 145.4 84.3 145.4 98.3C145.4 112.3 134 123.7 120 123.7Z" fill="#192C53"/>
</svg>
