<svg width="214" height="214" viewBox="0 0 214 214" fill="none" xmlns="http://www.w3.org/2000/svg">
<path d="M107 212C164.99 212 212 164.99 212 107C212 49.0101 164.99 2 107 2C49.0101 2 2 49.0101 2 107C2 164.99 49.0101 212 107 212Z" stroke="#DECA75" stroke-width="0" stroke-miterlimit="10"/>
<path d="M123.8 160.1H90.3V79.8C90.3 76.7 92.8 74.1 96 74.1H118.2C121.3 74.1 123.9 76.6 123.9 79.8L123.8 160.1ZM93.5 156.8H120.6V79.8C120.6 78.5 119.5 77.4 118.2 77.4H95.9C94.6 77.4 93.5 78.5 93.5 79.8V156.8Z" fill="#192C53"/>
<path d="M84.6 162.5C84.3 162.5 84 162.4 83.7 162.2C83 161.7 82.8 160.7 83.3 160C84.6 158 86.9 156.9 89.3 156.9H124.7C127.1 156.9 129.4 158.1 130.7 160C131.2 160.7 131 161.7 130.3 162.2C129.6 162.7 128.6 162.5 128.1 161.8C127.4 160.7 126.1 160.1 124.7 160.1H89.3C87.9 160.1 86.7 160.7 85.9 161.8C85.6 162.2 85.1 162.5 84.6 162.5Z" fill="#192C53"/>
<path d="M123.4 178.7H90.6999C89.7999 178.7 89.0999 178 89.0999 177.1C89.0999 176.2 89.7999 175.5 90.6999 175.5H123.4C124.3 175.5 125 176.2 125 177.1C125 178 124.3 178.7 123.4 178.7Z" fill="#192C53"/>
<path d="M118 75.8H114.8V72C114.8 67.7 111.3 64.3 107.1 64.3C102.9 64.3 99.4 67.8 99.4 72V75.8H96.2V72C96.2 66 101.1 61.1 107.1 61.1C113.1 61.1 118 66 118 72V75.8Z" fill="#192C53"/>
<path d="M111.5 63.4H108.2V39.7C108.2 39 107.7 38.5 107 38.5C106.3 38.5 105.8 39 105.8 39.7V63.5H102.6V39.7C102.6 37.3 104.6 35.3 107 35.3C109.4 35.3 111.4 37.3 111.4 39.7L111.5 63.4Z" fill="#192C53"/>
<path d="M122.2 97.5H109.3C108.4 97.5 107.7 96.8 107.7 95.9C107.7 95 108.4 94.3 109.3 94.3H122.2C123.1 94.3 123.8 95 123.8 95.9C123.8 96.8 123.1 97.5 122.2 97.5Z" fill="#192C53"/>
<path d="M122.2 118.8H109.3C108.4 118.8 107.7 118.1 107.7 117.2C107.7 116.3 108.4 115.6 109.3 115.6H122.2C123.1 115.6 123.8 116.3 123.8 117.2C123.8 118.1 123.1 118.8 122.2 118.8Z" fill="#192C53"/>
<path d="M122.2 140.2H109.3C108.4 140.2 107.7 139.5 107.7 138.6C107.7 137.7 108.4 137 109.3 137H122.2C123.1 137 123.8 137.7 123.8 138.6C123.8 139.5 123.1 140.2 122.2 140.2Z" fill="#192C53"/>
<path d="M118 178.7H96.0999V156.8H118V178.7ZM99.2999 175.5H114.8V160H99.2999V175.5Z" fill="#192C53"/>
</svg>
