<svg width="37" height="44" viewBox="0 0 37 44" fill="none" xmlns="http://www.w3.org/2000/svg">
<path d="M15.8872 16.3105C8.53711 16.3105 2.5708 22.5076 2.5708 30.1583C2.5708 37.809 8.53112 44.0001 15.8872 44.0001C23.2432 44.0001 29.2035 37.803 29.2035 30.1583C29.2035 22.5136 23.2492 16.3105 15.8872 16.3105ZM15.8872 37.0792C12.2151 37.0792 9.23198 33.9806 9.23198 30.1583C9.23198 26.3359 12.2151 23.2373 15.8872 23.2373C19.5592 23.2373 22.5483 26.3359 22.5483 30.1583C22.5483 33.9806 19.5712 37.0792 15.8872 37.0792Z" fill="#192C53"/>
<path d="M18.1565 0.931229C18.1565 0.931229 18.1325 0.913284 18.1146 0.895339C16.8806 -0.253162 14.9877 -0.342888 13.6518 0.895339C13.6398 0.907302 13.6279 0.913284 13.6099 0.931229C7.71547 6.65579 0.101835 9.90389 0 9.95174L2.62973 16.3104C3.68402 15.8558 9.98578 13.0204 15.8862 8.04954C21.7926 13.0264 28.0944 15.8558 29.1486 16.3104L31.7784 9.95174C31.6825 9.90389 24.0629 6.65579 18.1565 0.937211V0.931229Z" fill="#192C53"/>
<path d="M32.3789 14.8391C32.3789 13.7624 33.2655 12.8771 34.3497 12.8771C35.4339 12.8771 36.3145 13.7624 36.3145 14.8391C36.3145 15.9158 35.4339 16.8071 34.3497 16.8071C33.2655 16.8071 32.3789 15.9218 32.3789 14.8391ZM36.003 14.8391C36.003 13.882 35.3141 13.1941 34.3557 13.1941C33.3973 13.1941 32.6964 13.882 32.6964 14.8391C32.6964 15.7962 33.3913 16.4961 34.3557 16.4961C35.3201 16.4961 36.003 15.8082 36.003 14.8391ZM33.9064 15.9517H33.6189V13.7026H34.5893C35.1764 13.7026 35.374 13.9239 35.374 14.3247C35.374 14.7554 35.0685 14.9229 34.6792 14.9528L35.3501 15.9517H35.0266L34.3916 14.9528H33.9124V15.9517H33.9064ZM34.3018 14.6896C34.6133 14.6896 35.0566 14.7434 35.0566 14.3187C35.0566 14.0077 34.793 13.9658 34.5234 13.9658H33.9064V14.6896H34.3018Z" fill="#192C53"/>
</svg>
