<svg width="34" height="31" viewBox="0 0 34 31" fill="none" xmlns="http://www.w3.org/2000/svg">
<path d="M22.4927 1.67919L2.01641 13.5012C0.747844 14.2336 0.320633 15.8685 1.06217 17.1529L7.89931 28.9952C8.64091 30.2796 10.2703 30.7271 11.5389 29.9947L32.0152 18.1727C33.2838 17.4403 33.711 15.8054 32.9694 14.521L26.1323 2.67859C25.3907 1.39429 23.7612 0.946772 22.4927 1.67919Z" stroke="#192C53" stroke-linecap="round" stroke-linejoin="round"/>
<path d="M27.0752 4.31189L2.00511 18.7862L3.90961 22.0849L28.9797 7.61059L27.0752 4.31189Z" stroke="#192C53" stroke-miterlimit="10" stroke-linecap="round"/>
<path d="M6.724 23.8047L11.3382 21.1407" stroke="#192C53" stroke-miterlimit="10" stroke-linecap="round"/>
<path d="M8.01421 26.0395L16.7129 21.0173" stroke="#192C53" stroke-miterlimit="10" stroke-linecap="round"/>
<path d="M12.4521 20.4975L20.5118 15.8442" stroke="#192C53" stroke-miterlimit="10" stroke-linecap="round"/>
<path d="M26.6099 10.7382L24.9562 11.693C24.3198 12.0604 24.1017 12.8743 24.4692 13.5107L25.4239 15.1644C25.7914 15.8008 26.6052 16.0189 27.2416 15.6514L28.8953 14.6967C29.5317 14.3292 29.7498 13.5154 29.3823 12.8789L28.4276 11.2253C28.0602 10.5888 27.2463 10.3708 26.6099 10.7382Z" stroke="#192C53" stroke-linecap="round" stroke-linejoin="round"/>
</svg>
