<svg width="70" height="53" viewBox="0 0 70 53" fill="none" xmlns="http://www.w3.org/2000/svg">
<path d="M26.0021 0.5V4.60181C20.1141 7.67143 15.8956 10.8757 13.3556 14.2146C10.8155 17.5535 9.54097 21.1886 9.54097 25.1288C9.54097 27.4624 9.87306 29.069 10.5462 29.9307C11.1476 30.8642 11.8836 31.3309 12.7542 31.3309C13.6248 31.3309 14.7916 31.0796 16.2726 30.5769C17.7446 30.0743 19.0819 29.823 20.2847 29.823C23.0312 29.823 25.4186 30.8372 27.4651 32.8747C29.5025 34.9121 30.5257 37.3983 30.5257 40.3333C30.5257 43.5376 29.2871 46.2931 26.8098 48.5908C24.3326 50.8975 21.254 52.0464 17.574 52.0464C13.0863 52.0464 9.03834 50.1076 5.42121 46.2392C1.80408 42.3797 0 37.6048 0 31.9322C0 25.2634 2.22593 19.0344 6.67778 13.2632C11.1296 7.49192 17.574 3.23753 26.0021 0.5ZM65.1891 0.796192V4.60181C58.4306 8.47025 53.9787 11.9438 51.8336 15.0134C49.6884 18.083 48.6203 21.6912 48.6203 25.8289C48.6203 27.6958 48.9883 29.096 49.7243 30.0294C50.4603 30.9629 51.2322 31.4296 52.031 31.4296C52.767 31.4296 53.871 31.1603 55.343 30.6308C56.815 30.1012 58.287 29.832 59.7589 29.832C62.5055 29.832 64.8929 30.8193 66.9394 32.7849C68.9768 34.7505 70 37.1739 70 40.0461C70 43.3132 68.7075 46.1494 66.1316 48.5549C63.5556 50.9603 60.3872 52.163 56.6444 52.163C52.2285 52.163 48.2434 50.2602 44.698 46.4546C41.1527 42.649 39.3756 37.9099 39.3756 32.2374C39.3756 25.2275 41.6194 18.837 46.0982 13.0657C50.595 7.29446 56.9586 3.20163 65.1891 0.796192Z" fill="#DECA75"/>
</svg>
