<svg width="26" height="22" viewBox="0 0 26 22" fill="none" xmlns="http://www.w3.org/2000/svg">
<path d="M26 2.53572C25.0226 2.93911 23.9474 3.24164 22.9699 3.44333C24.0451 2.73741 24.9248 1.62811 25.3158 0.417966C24.2406 1.02304 23.1654 1.52727 21.8947 1.72896C19.8421 -0.489644 16.5188 -0.59049 14.3684 1.52727C13 2.83826 12.4135 4.85517 12.8045 6.77124C8.50376 6.56955 4.49624 4.45179 1.7594 1.02304C0.293233 3.54418 1.07519 6.77124 3.42105 8.38477C2.54135 8.38477 1.7594 8.08223 0.977444 7.67885C0.977444 7.67885 0.977444 7.67885 0.977444 7.77969C0.977444 10.4017 2.73684 12.6203 5.2782 13.2254C4.78947 13.3262 4.30075 13.427 3.90977 13.427C3.61654 13.427 3.22556 13.427 2.93233 13.3262C3.61654 15.5448 5.66917 17.1583 7.91729 17.1583C5.66917 18.9736 2.83459 19.7803 0 19.4778C2.44361 21.0913 5.2782 21.9989 8.21053 21.9989C16.5188 22.0998 23.3609 15.1414 23.4586 6.56955C23.4586 6.4687 23.4586 6.4687 23.4586 6.36785C23.4586 6.16616 23.4586 5.86363 23.4586 5.66194C24.4361 4.65348 25.3158 3.64502 26 2.53572Z" fill="#192C53"/>
</svg>
