<svg width="24" height="24" viewBox="0 0 24 24" fill="none" xmlns="http://www.w3.org/2000/svg">
<path d="M7.04266 23.9906C5.13727 24.0905 3.33217 23.391 2.02849 22.092C0.624521 20.693 -0.0774624 18.7944 0.022821 16.8959V7.0032C-0.278029 3.30595 2.42962 0.208249 6.14011 0.00839699C6.44096 0.00839699 6.64152 0.00839699 6.94237 0.00839699H16.9707C18.8761 -0.0915288 20.6812 0.707878 22.0852 2.00691C23.3888 3.40587 24.0908 5.20454 23.9905 7.0032V16.9958C24.0908 18.8944 23.3888 20.793 21.9849 22.092C20.5809 23.391 18.7758 24.0905 16.8704 23.9906H7.04266ZM3.43246 3.5058C2.52991 4.40513 2.02849 5.70417 2.12877 7.0032V16.9958C2.02849 18.2948 2.52991 19.5938 3.43246 20.5931C4.43529 21.4924 5.63869 21.8921 6.94237 21.8921H16.9707C18.2744 21.9921 19.5781 21.4924 20.4806 20.5931C21.3832 19.6938 21.9849 18.3947 21.8846 17.0957V7.0032C21.8846 5.70417 21.4835 4.50506 20.5809 3.5058C19.5781 2.60647 18.3747 2.10684 17.071 2.20676H7.04266C5.73897 2.10684 4.43529 2.60647 3.43246 3.5058ZM5.73897 11.9995C5.73897 8.60201 8.54691 5.80409 11.9565 5.80409C15.3662 5.80409 18.1741 8.60201 18.1741 11.9995C18.1741 15.397 15.3662 18.1949 11.9565 18.1949C8.54691 18.1949 5.73897 15.397 5.73897 11.9995ZM7.94521 11.9995C7.94521 14.1979 9.75031 15.9965 11.9565 15.9965C14.1628 15.9965 15.9679 14.1979 15.9679 11.9995C15.9679 9.80112 14.1628 8.00246 11.9565 8.00246C9.75031 8.00246 7.94521 9.80112 7.94521 11.9995ZM16.9707 5.60424C16.9707 4.80483 17.5724 4.20528 18.3747 4.20528C19.1769 4.20528 19.7786 4.80483 19.7786 5.60424C19.7786 6.40365 19.1769 7.0032 18.475 7.0032C17.6727 7.0032 16.9707 6.40365 16.9707 5.60424Z" fill="#192C53"/>
</svg>
