<svg width="214" height="214" viewBox="0 0 214 214" fill="none" xmlns="http://www.w3.org/2000/svg">
<path d="M107 212C164.99 212 212 164.99 212 107C212 49.0101 164.99 2 107 2C49.0101 2 2 49.0101 2 107C2 164.99 49.0101 212 107 212Z" stroke="#DECA75" stroke-width="0" stroke-miterlimit="10"/>
<path d="M39.9 174.1C39.6 174.1 39.2 174 38.9 173.8C38.3 173.3 38.2 172.3 38.7 171.7C43.4 166.1 49.8 166.6 55.5 167C60.9 167.4 66 167.8 69.7 163.4C73.4 159 72.1 154 70.7 148.7C69.2 143.2 67.6 137 72.3 131.3C77 125.7 83.4 126.2 89.1 126.6C94.5 127 99.6 127.4 103.4 123C103.9 122.4 104.9 122.3 105.5 122.8C106.1 123.3 106.2 124.3 105.7 124.9C101 130.5 94.6 130 88.9 129.6C83.5 129.2 78.4 128.8 74.6 133.2C70.9 137.6 72.2 142.6 73.6 147.9C75.1 153.4 76.7 159.6 72 165.3C67.3 170.9 60.9 170.4 55.2 170C49.8 169.6 44.7 169.2 41 173.6C40.7 173.9 40.3 174.1 39.9 174.1Z" fill="#192C53"/>
<path d="M118.6 154.2C116 154.2 113.5 153.2 111.5 151.4C109.1 152.6 106.4 152.9 103.8 152.2C101.3 151.5 99.0999 149.9 97.5999 147.7C94.9999 148.2 92.2999 147.8 89.9999 146.5C87.6999 145.2 85.9999 143.1 85.1999 140.5C83.8999 140.4 82.5999 140.1 81.3999 139.6C80.5999 139.3 80.2999 138.4 80.5999 137.6C80.8999 136.8 81.7999 136.5 82.5999 136.8C83.6999 137.3 84.9999 137.5 86.2999 137.5C87.0999 137.5 87.6999 138 87.8999 138.7C88.3999 140.9 89.6999 142.7 91.5999 143.9C93.4999 145 95.7999 145.2 97.8999 144.5C98.5999 144.3 99.3999 144.6 99.6999 145.2C100.7 147.2 102.5 148.7 104.6 149.2C106.8 149.8 109 149.4 110.9 148.2C111.5 147.8 112.4 147.9 112.9 148.4C114.4 150.1 116.5 151.1 118.7 151.1C120.9 151.1 122.9 150.2 124.5 148.4C125 147.8 125.8 147.7 126.5 148.2C128.4 149.5 130.6 149.8 132.8 149.2C134.9 148.7 136.7 147.2 137.7 145.2C138 144.5 138.8 144.2 139.5 144.5C141.7 145.2 143.9 145 145.8 143.9C147.7 142.8 149 141 149.5 138.7C149.6 138 150.3 137.5 151.1 137.5C153.4 137.6 155.5 136.8 157.1 135.3C158.6 133.7 159.4 131.6 159.3 129.3C159.3 128.6 159.8 127.9 160.5 127.7C162.7 127.2 164.6 125.9 165.7 124C166.8 122.1 167 119.8 166.3 117.7C166.1 117 166.4 116.2 167 115.9C169 114.9 170.5 113.1 171 111C171.6 108.8 171.2 106.6 170 104.7C169.6 104.1 169.7 103.2 170.2 102.7C171.9 101.2 172.9 99.1 172.9 96.9C172.9 94.7 172 92.7 170.2 91.1C169.6 90.6 169.5 89.8 170 89.1C171.3 87.2 171.6 85 171 82.8C170.5 80.7 169 78.9 167 77.9C166.3 77.6 166 76.8 166.3 76.1C167 73.9 166.8 71.7 165.7 69.8C164.6 67.9 162.8 66.6 160.5 66.1C159.8 66 159.3 65.3 159.3 64.5C159.4 62.2 158.6 60.1 157.1 58.5C155.5 57 153.4 56.2 151.1 56.3C150.4 56.3 149.7 55.8 149.5 55.1C149 52.9 147.7 51.1 145.8 49.9C143.9 48.8 141.6 48.6 139.5 49.3C138.8 49.5 138 49.2 137.7 48.6C136.7 46.6 134.9 45.1 132.8 44.6C130.6 44 128.4 44.4 126.5 45.6C125.9 46 125 45.9 124.5 45.4C123 43.7 120.9 42.7 118.7 42.7C116.5 42.7 114.5 43.6 112.9 45.4C112.4 46 111.6 46.1 110.9 45.6C109 44.3 106.8 44 104.6 44.6C102.5 45.1 100.7 46.6 99.6999 48.6C99.3999 49.3 98.5999 49.6 97.8999 49.3C95.6999 48.6 93.4999 48.8 91.5999 49.9C89.6999 51 88.3999 52.8 87.8999 55.1C87.7999 55.8 87.0999 56.3 86.2999 56.3C83.9999 56.2 81.8999 57 80.2999 58.5C78.7999 60.1 77.9999 62.2 78.0999 64.5C78.0999 65.2 77.5999 65.9 76.8999 66.1C74.6999 66.6 72.8999 67.9 71.6999 69.8C70.5999 71.7 70.3999 74 71.0999 76.1C71.2999 76.8 70.9999 77.6 70.3999 77.9C68.3999 78.9 66.8999 80.7 66.3999 82.8C65.7999 85 66.1999 87.2 67.3999 89.1C67.7999 89.7 67.6999 90.6 67.1999 91.1C65.4999 92.6 64.4999 94.7 64.4999 96.9C64.4999 99.1 65.3999 101.1 67.1999 102.7C67.7999 103.2 67.8999 104 67.3999 104.7C66.0999 106.6 65.7999 108.8 66.3999 111C66.8999 113.1 68.3999 114.9 70.3999 115.9C71.0999 116.2 71.3999 117 71.0999 117.7C70.5999 119.2 70.5999 120.8 70.9999 122.3C71.1999 123.1 70.7999 123.9 69.9999 124.2C69.1999 124.4 68.3999 124 68.0999 123.2C67.5999 121.5 67.5999 119.7 67.8999 118C65.6999 116.5 63.9999 114.3 63.3999 111.8C62.6999 109.3 62.9999 106.5 64.1999 104.2C62.3999 102.2 61.3999 99.7 61.3999 97.1C61.3999 94.5 62.3999 92 64.1999 90C62.9999 87.6 62.6999 84.9 63.3999 82.3C64.0999 79.8 65.6999 77.6 67.8999 76.1C67.2999 73.5 67.7999 70.8 69.0999 68.5C70.3999 66.2 72.4999 64.5 75.0999 63.7C75.1999 61 76.2999 58.6 78.1999 56.7C80.0999 54.8 82.5999 53.8 85.1999 53.6C85.9999 51.1 87.6999 49 89.9999 47.6C92.2999 46.3 94.9999 45.9 97.5999 46.4C99.0999 44.2 101.3 42.5 103.8 41.9C106.4 41.2 109.1 41.5 111.4 42.7C113.4 40.9 115.9 39.9 118.5 39.9C121.1 39.9 123.6 40.9 125.6 42.7C128 41.5 130.7 41.2 133.3 41.9C135.8 42.6 138 44.2 139.5 46.4C142.1 45.9 144.8 46.3 147.1 47.6C149.4 48.9 151.1 51 151.9 53.6C154.6 53.7 157 54.8 158.9 56.7C160.8 58.6 161.8 61.1 162 63.7C164.5 64.5 166.6 66.2 168 68.5C169.3 70.8 169.7 73.5 169.2 76.1C171.4 77.6 173.1 79.8 173.7 82.3C174.4 84.9 174.1 87.6 172.9 89.9C174.7 91.9 175.7 94.4 175.7 97C175.7 99.6 174.7 102.1 172.9 104.1C174.1 106.5 174.4 109.2 173.7 111.8C173 114.3 171.4 116.5 169.2 118C169.8 120.6 169.3 123.3 168 125.6C166.7 127.9 164.6 129.6 162 130.4C161.9 133.1 160.8 135.5 158.9 137.4C157 139.3 154.5 140.3 151.9 140.5C151.1 143 149.4 145.1 147.1 146.5C144.8 147.8 142.1 148.2 139.5 147.7C138 149.9 135.8 151.6 133.3 152.2C130.7 152.9 128 152.6 125.7 151.4C123.7 153.2 121.2 154.2 118.6 154.2Z" fill="#192C53"/>
<path d="M118.6 142.6C111.9 142.6 105.5 141.2 99.4999 138.4C98.6999 138.1 98.3999 137.2 98.7999 136.4C99.0999 135.6 99.9999 135.3 100.8 135.7C106.4 138.3 112.4 139.6 118.6 139.6C142 139.6 161.1 120.5 161.1 97.1C161.1 73.7 142 54.6 118.6 54.6C95.1999 54.6 76.0999 73.7 76.0999 97.1C76.0999 104.2 77.8999 111.2 81.1999 117.4C81.5999 118.1 81.2999 119 80.5999 119.4C79.8999 119.8 78.9999 119.5 78.5999 118.8C74.9999 112.2 73.0999 104.7 73.0999 97.1C73.0999 72 93.4999 51.6 118.6 51.6C143.7 51.6 164.1 72.1 164.1 97.1C164.1 122.2 143.7 142.6 118.6 142.6Z" fill="#192C53"/>
<path d="M132.5 94C125.3 94 119.4 88.1 119.4 80.9C119.4 73.7 125.3 67.8 132.5 67.8C139.7 67.8 145.6 73.7 145.6 80.9C145.5 88.1 139.7 94 132.5 94ZM132.5 70.9C126.9 70.9 122.4 75.4 122.4 81C122.4 86.6 126.9 91.1 132.5 91.1C138.1 91.1 142.6 86.6 142.6 81C142.5 75.4 138 70.9 132.5 70.9Z" fill="#192C53"/>
<path d="M112.5 127.1C110.1 127.1 107.6 125.9 105.5 123.8C101.6 119.9 101.2 114.9 104.6 111.5C109.6 106.5 117.7 103.8 121.6 107.8C123.4 109.6 124 112.6 123 116.1C122.2 119.2 120.3 122.4 117.8 124.8C116.4 126.3 114.6 127.1 112.5 127.1C112.6 127.1 112.5 127.1 112.5 127.1ZM116.5 108.8C113.6 108.8 109.7 110.6 106.7 113.5C104.1 116.2 105.5 119.4 107.6 121.6C109.1 123.1 110.9 124 112.5 124C113.7 124 114.8 123.5 115.7 122.5C117.8 120.4 119.4 117.7 120.1 115.1C120.7 112.7 120.5 110.8 119.4 109.7C118.8 109.2 117.8 108.8 116.5 108.8Z" fill="#192C53"/>
</svg>
