<svg width="214" height="214" viewBox="0 0 214 214" fill="none" xmlns="http://www.w3.org/2000/svg">
<path d="M107 212C164.99 212 212 164.99 212 107C212 49.0101 164.99 2 107 2C49.0101 2 2 49.0101 2 107C2 164.99 49.0101 212 107 212Z" stroke="#DECA75" stroke-width="0" stroke-miterlimit="10"/>
<path d="M151.4 84.4C146.4 84.4 141.4 82.7 137.4 79.7C136.7 79.2 136.6 78.3 137.1 77.6C137.6 76.9 138.5 76.8 139.2 77.3C142.7 79.9 147 81.4 151.4 81.4C162.5 81.4 171.5 72.4 171.5 61.3V54.1C171.5 49.1 167.4 45.1 162.5 45.1C159.5 45.1 156.7 46.6 155 49.1L151.7 54C147.1 61 137.9 62.9 130.8 58.5L119.9 51.7C111.5 46.4 100.5 46.4 92.1 51.7L81.2 58.5C74.2 63 65 61 60.3 54L57 49.1C55.3 46.6 52.5 45.1 49.5 45.1C44.5 45.1 40.5 49.2 40.5 54.1V61.3C40.5 72.4 49.5 81.4 60.6 81.4C65.1 81.4 69.5 79.9 73 77.1C73.7 76.6 74.6 76.7 75.1 77.4C75.6 78.1 75.5 79 74.8 79.5C70.8 82.7 65.7 84.4 60.6 84.4C47.9 84.4 37.5 74.1 37.5 61.3V54.1C37.5 47.5 42.9 42.1 49.5 42.1C53.5 42.1 57.3 44.1 59.5 47.5L62.8 52.4C66.5 58 73.9 59.6 79.6 56L90.5 49.2C99.9 43.3 112.1 43.3 121.5 49.2L132.4 56C138.1 59.6 145.5 58 149.2 52.4L152.5 47.5C154.7 44.1 158.5 42.1 162.5 42.1C169.1 42.1 174.5 47.5 174.5 54.1V61.3C174.5 74.1 164.2 84.4 151.4 84.4Z" fill="#192C53"/>
<path d="M94.4 169.9C93.6 169.9 92.9 169.2 92.9 168.4V158.7C92.9 154.5 92.5001 150.3 91.8001 146.2L84.8001 119.8V119.7C84.0001 115.2 84.3001 110.5 85.8001 106.3C86.6 103.7 87.1 101.2 87.1 98.6C87.1 96.4 86.8 94.2 86.1 91.8C86.1 91.7 82.6001 79.2 67.8001 60.1C67.3001 59.4 67.4 58.5 68.1 58C68.8 57.5 69.7 57.6 70.2 58.3C85.4 77.8 88.9 90.4 89.1 91C89.8 93.6 90.2 96.1 90.2 98.5C90.2 101.4 89.7001 104.3 88.8001 107.1C87.5001 110.9 87.2 115 87.9 119L94.9 145.4V145.5C95.7 149.8 96 154.2 96 158.6V168.3C95.9 169.2 95.3 169.9 94.4 169.9Z" fill="#192C53"/>
<path d="M117.6 169.9C116.8 169.9 116.1 169.2 116.1 168.4V158.7C116.1 154.3 116.5 149.9 117.2 145.6V145.5L124.2 119.1C124.9 115.1 124.6 110.9 123.3 107.2C122.4 104.3 121.9 101.4 121.9 98.5C121.9 96.1 122.3 93.5 123 90.9C123.1 90.4 126.6 77.8 141.9 58.2C142.4 57.5 143.4 57.4 144 57.9C144.7 58.4 144.8 59.4 144.3 60C129.5 79 126 91.5 126 91.6C125.4 93.9 125 96.2 125 98.4C125 101 125.4 103.5 126.3 106.1C127.7 110.3 128.1 115 127.3 119.5V119.6L120.3 146C119.6 150.1 119.2 154.3 119.2 158.5V168.2C119.1 169.2 118.4 169.9 117.6 169.9Z" fill="#192C53"/>
<path d="M101.4 169.9C100.6 169.9 99.8999 169.3 99.8999 168.5L99.2999 153.3C98.8999 143.3 97.5999 133.3 95.4999 123.5L93.7999 115.7C93.5999 114.3 93.8999 112.9 94.7999 111.9C95.6999 110.8 96.9999 110.2 98.3999 110.2C98.7999 110.2 99.0999 110.2 99.2999 110.3H99.3999H99.4999C99.9999 110.4 100.6 110.3 101 109.9C101.4 109.5 101.6 109 101.6 108.4L99.3999 92C98.0999 82.7 92.6999 74 84.4999 68.3C83.7999 67.8 83.6999 66.9 84.0999 66.2C84.5999 65.5 85.4999 65.4 86.1999 65.8C94.9999 72.1 100.9 81.5 102.3 91.6V91.9L104.5 108C104.7 109.6 104.1 111.1 103 112.1C101.9 113.1 100.3 113.5 98.7999 113.1H98.6999C98.0999 113 97.3999 113.2 96.9999 113.7C96.7999 113.9 96.4999 114.4 96.5999 115L98.2999 122.7C100.5 132.7 101.8 142.9 102.2 153L102.8 168.2C102.9 169.1 102.3 169.8 101.4 169.9Z" fill="#192C53"/>
<path d="M106 64.9C101 64.9 96.1 64.6 91.1 63.9L71.1 61.2C70.3 61.1 69.7 60.3 69.8 59.5C69.9 58.7 70.7 58.1 71.5 58.2L91.5 60.9C101.1 62.2 110.8 62.2 120.4 60.9L140.4 58.2C141.2 58.1 142 58.7 142.1 59.5C142.2 60.3 141.6 61.1 140.8 61.2L120.8 63.9C115.9 64.6 111 64.9 106 64.9Z" fill="#192C53"/>
<path d="M110.6 169.9C109.7 169.9 109.1 169.2 109.1 168.3L109.7 153.4C110.1 143.4 111.4 133.3 113.5 123.2L115.3 115.1C115.4 114.6 115.2 114.1 114.8 113.7C114.4 113.3 113.8 113.2 113.2 113.3H113.1C112.8 113.4 112.4 113.4 112.1 113.4C110.8 113.4 109.5 112.8 108.6 111.8C107.7 110.8 107.3 109.5 107.5 108.1L109.7 91.7C111.1 81.6 116.9 72.2 125.7 66C126.4 65.5 127.3 65.7 127.8 66.3C128.3 66.9 128.1 67.9 127.5 68.4C119.4 74.2 114 82.8 112.7 92.1V92.3V92.4L110.5 108.5C110.4 109 110.6 109.4 110.9 109.8C111.2 110.2 111.7 110.4 112.1 110.4C112.3 110.4 112.4 110.4 112.6 110.3C114 109.9 115.6 110.4 116.8 111.4C118 112.5 118.5 114 118.3 115.6L116.5 123.8C114.4 133.7 113.1 143.7 112.7 153.5L112.1 168.4C112.1 169.2 111.4 169.9 110.6 169.9Z" fill="#192C53"/>
<path d="M62.1 84.4C48.5 84.4 37.5 73.4 37.5 59.8C37.5 59 38.2 58.3 39 58.3C45.5 58.3 51.7 60.8 56.4 65.5C61 70.2 63.6 76.4 63.6 82.9C63.6 83.7 62.9 84.4 62.1 84.4ZM40.6 61.3C41.4 72 49.9 80.5 60.6 81.3C60.2 76.1 58 71.3 54.3 67.6C50.6 63.9 45.7 61.7 40.6 61.3Z" fill="#192C53"/>
<path d="M149.9 84.4C149.1 84.4 148.4 83.7 148.4 82.9C148.4 76.4 150.9 70.2 155.6 65.5C160.3 60.9 166.5 58.3 173 58.3C173.8 58.3 174.5 59 174.5 59.8C174.5 73.4 163.5 84.4 149.9 84.4ZM171.4 61.3C166.2 61.7 161.4 63.9 157.7 67.6C154 71.3 151.8 76.2 151.5 81.3C162.1 80.6 170.7 72 171.4 61.3Z" fill="#192C53"/>
</svg>
