<svg width="214" height="214" viewBox="0 0 214 214" fill="none" xmlns="http://www.w3.org/2000/svg">
<path d="M107 212C164.99 212 212 164.99 212 107C212 49.0101 164.99 2 107 2C49.0101 2 2 49.0101 2 107C2 164.99 49.0101 212 107 212Z" stroke="#DECA75" stroke-width="0" stroke-miterlimit="10"/>
<path d="M95.2 68.7C92 68.7 88.6 67.2 85.6 64.1C80.1 58.6 79.5 51.9 84.2 47.2C92.9 38.5 103.5 37.4 107.9 41.8C112.3 46.3 111.2 56.8 102.5 65.5C100.4 67.6 97.9 68.7 95.2 68.7ZM101 42.2C96.6 42.2 90.8001 44.8 86.4001 49.3C82.3001 53.5 84.4001 58.6 87.8001 62C91.2001 65.4 96.3 67.5 100.5 63.4C107 56.9 109.6 47.6 105.9 43.9C104.7 42.8 103 42.2 101 42.2Z" fill="#192C53"/>
<path d="M41 112.2C40.5 112.2 40 111.9 39.7 111.4C39.3 110.7 39.5 109.8 40.3 109.4C49.5 104.1 50.2 98.7 51 92.3C51.6 87.5 52.3 82.6 56.6 77.7C61.7 71.8 66.6 70.7 71.3 69.7C75.7 68.7 79.9 67.8 84.4 62.7C84.9 62.1 85.9 62 86.5 62.5C87.1 63 87.2 64 86.7 64.6C81.6 70.5 76.7 71.6 72 72.6C67.6 73.6 63.4 74.5 58.9 79.6C55.2 83.9 54.6 88.1 54 92.7C53.1 99.2 52.2 106 41.8 112C41.5 112.2 41.2 112.2 41 112.2Z" fill="#192C53"/>
<path d="M159.2 119C156 119 152.6 117.5 149.6 114.4C144.1 108.9 143.5 102.2 148.2 97.5C156.9 88.8 167.5 87.7 171.9 92.1C176.3 96.6 175.2 107.1 166.5 115.8C164.4 117.9 161.9 119 159.2 119ZM165 92.5C160.6 92.5 154.8 95.1 150.4 99.6C146.2 103.8 148.4 108.9 151.8 112.3C155.2 115.7 160.3 117.8 164.5 113.7C171 107.2 173.6 97.9 169.9 94.2C168.7 93.1 167 92.5 165 92.5Z" fill="#192C53"/>
<path d="M92.6999 174.7C92.2999 174.7 91.9999 174.6 91.6999 174.3C91.0999 173.7 91.0999 172.8 91.5999 172.2C98.8999 164.4 105.2 162.9 111.3 161.5C117.2 160.1 122.9 158.8 129.5 151.7C136.1 144.6 137.1 138.9 138.1 132.8C139.1 126.6 140.1 120.2 147.4 112.4C148 111.8 148.9 111.8 149.5 112.3C150.1 112.9 150.1 113.8 149.6 114.4C142.9 121.5 142 127.2 141 133.3C140 139.5 139 145.9 131.6 153.7C124.3 161.5 118 163 111.9 164.4C106 165.8 100.3 167.1 93.6999 174.2C93.4999 174.6 93.0999 174.7 92.6999 174.7Z" fill="#192C53"/>
<path d="M154.6 73.3C151.4 73.3 148 71.8 145 68.7C139.5 63.2 138.9 56.5 143.6 51.8C152.3 43.1 162.9 42 167.3 46.4C171.7 50.9 170.6 61.4 161.9 70.1C159.8 72.2 157.3 73.3 154.6 73.3ZM160.4 46.8C156 46.8 150.2 49.4 145.8 53.9C141.7 58.1 143.8 63.2 147.2 66.6C150.6 70 155.7 72.1 159.9 68C166.4 61.5 169 52.2 165.3 48.5C164.1 47.3 162.4 46.8 160.4 46.8Z" fill="#192C53"/>
<path d="M45.1 157.8C44.8 157.8 44.4 157.7 44.1 157.4C43.5 156.9 43.4 155.9 43.9 155.3C51.4 146.6 58.8 145.4 66 144.3C73 143.2 79.5 142.1 86.3 134.3C93.1 126.5 93.2 119.8 93.3 112.8C93.4 105.5 93.5 98 101 89.3C108.5 80.6 115.9 79.4 123.1 78.3C130.1 77.2 136.6 76.1 143.4 68.3C143.9 67.7 144.9 67.6 145.5 68.1C146.1 68.6 146.2 69.6 145.7 70.2C138.2 78.9 130.8 80.1 123.6 81.2C116.6 82.3 110.1 83.4 103.3 91.2C96.5 99.1 96.4 105.7 96.3 112.7C96.2 120 96.1 127.5 88.6 136.2C81.1 144.9 73.7 146.1 66.5 147.2C59.5 148.3 53 149.4 46.2 157.2C45.9 157.7 45.5 157.8 45.1 157.8Z" fill="#192C53"/>
</svg>
