<svg width="214" height="214" viewBox="0 0 214 214" fill="none" xmlns="http://www.w3.org/2000/svg">
<path d="M107 212C164.99 212 212 164.99 212 107C212 49.0101 164.99 2 107 2C49.0101 2 2 49.0101 2 107C2 164.99 49.0101 212 107 212Z" stroke="#DECA75" stroke-width="0" stroke-miterlimit="10"/>
<path d="M78.7 125.2L70.5 112.7C68.6 109.1 64.8 106.1 61 107.3L59.7 107.7L62.4 112.6L59.8 114L55.1 105.4H57.2C57.3 105.3 57.5 105.3 57.6 105.2L60.2 104.4C65.5 102.6 70.8 106.5 73.2 111.2L81.3 123.5L78.7 125.2Z" fill="#192C53"/>
<path d="M132.6 150.5H113.5L113.2 150.4L69.2 134.1L40.5 114.2V113.4C40.5 113.2 40.5 112.9 40.7 112.6V112.5L43.1 110.1C47.3 105.9 53.6 107.2 57.8 110.2L74.3 119.8L80.6 123.5H84.7C82.7 121.3 81.5 118.3 81.5 115.4V115.1C81.5 115.1 81.6 114.4 81.7 114.1V112.6L83.2 112.7H115L126.9 123.3H132.5V126.3H125.7L113.8 115.7H84.6C84.7 119.3 87.4 123.3 91 123.5H108.4V126.5H79.9L72.9 122.4L56.2 112.7C53 110.4 48.3 109.3 45.3 112.2L44.3 113.2L70.6 131.4L114 147.4H132.5V150.5H132.6Z" fill="#192C53"/>
<path d="M149.7 172H134.8V115.7H171.9V118.7H137.8V169H149.7V172Z" fill="#192C53"/>
<path d="M85.7 99.8L59.1 73.3C55.6 69.9 53.7 65.4 53.7 60.6C53.7 55.8 55.6 51.2 59.1 47.7L59.3 47.5C62.7 44 67.2 42.1 72 42.1C72 42.1 72 42.1 72.1 42.1C76.9 42.1 81.5 44 84.9 47.5L85.6 48.2L86.3 47.5C89.7 44 94.2 42.1 99 42.1C99 42.1 99 42.1 99.1 42.1C103.9 42.1 108.5 44 111.9 47.5L112.1 47.7C115.6 51.1 117.5 55.6 117.5 60.4C117.5 65.2 115.6 69.8 112.1 73.3L85.7 99.8ZM72.1 45C68.1 45 64.3 46.6 61.5 49.5L61.3 49.7C58.4 52.6 56.8 56.5 56.8 60.5C56.8 64.5 58.4 68.2 61.3 71.1L85.7 95.5L110.1 71.1C113 68.2 114.6 64.3 114.6 60.3C114.6 56.3 113 52.6 110.1 49.7L109.9 49.5C107 46.6 103.2 45 99.2 45C99.2 45 99.2 45 99.1 45C95.1 45 91.4 46.6 88.5 49.5L85.6 52.4L82.7 49.5C79.9 46.7 76.1 45 72.1 45Z" fill="#192C53"/>
</svg>
