<svg width="214" height="214" viewBox="0 0 214 214" fill="none" xmlns="http://www.w3.org/2000/svg">
<path d="M107 212C164.99 212 212 164.99 212 107C212 49.0101 164.99 2 107 2C49.0101 2 2 49.0101 2 107C2 164.99 49.0101 212 107 212Z" stroke="#DECA75" stroke-width="0" stroke-miterlimit="10"/>
<path d="M171.3 165.6H42.7002V120H113.1V121.6C113.1 126.7 117.3 130.9 122.4 130.9C127.5 130.9 131.7 126.7 131.7 121.6V120H171.3V165.6ZM45.9002 162.3H168.1V123.3H134.8C134 129.4 128.8 134.2 122.4 134.2C116 134.2 110.8 129.4 110 123.3H45.9002V162.3Z" fill="#123066"/>
<path d="M163.3 154.2H159V158.5H163.3V154.2Z" fill="#123066"/>
<path d="M141.6 154.2H137.3V158.5H141.6V154.2Z" fill="#123066"/>
<path d="M120 154.2H115.7V158.5H120V154.2Z" fill="#123066"/>
<path d="M98.3 154.2H94V158.5H98.3V154.2Z" fill="#123066"/>
<path d="M76.7004 154.2H72.4004V158.5H76.7004V154.2Z" fill="#123066"/>
<path d="M55.0002 154.2H50.7002V158.5H55.0002V154.2Z" fill="#123066"/>
<path d="M157.7 54.1L143.9 40.6C143.3 40 142.2 40 141.6 40.6C141 41.2 141 42.3 141.6 42.9L147.4 48.5L140.7 55.4L135.3 50.2L96.5 90L101.9 95.2L77.7 120.1C77.1 120.7 79.4 123 80 122.3L104.2 97.4L109.6 102.6L148.4 62.7L143 57.5L149.7 50.6L155.5 56.2C156.1 56.8 157.2 56.8 157.8 56.2C158.3 55.8 158.3 54.6 157.7 54.1ZM101 90L113.7 77L122.2 85.2L109.5 98.2L101 90ZM124.4 82.9L115.9 74.7L135.3 54.8L143.8 63L124.4 82.9Z" fill="#123066"/>
</svg>
