<svg width="214" height="214" viewBox="0 0 214 214" fill="none" xmlns="http://www.w3.org/2000/svg">
<path d="M107 212C164.99 212 212 164.99 212 107C212 49.0101 164.99 2 107 2C49.0101 2 2 49.0101 2 107C2 164.99 49.0101 212 107 212Z" stroke="#DECA75" stroke-width="0" stroke-miterlimit="10"/>
<path d="M78.4999 124.1L70.2999 111.6C68.3999 108 64.5999 105 60.7999 106.2L59.4999 106.6L62.1999 111.5L59.5999 112.9L54.8999 104.3H56.9999C57.0999 104.2 57.2999 104.2 57.3999 104.1L59.9999 103.3C65.2999 101.5 70.5999 105.4 72.9999 110.1L81.0999 122.4L78.4999 124.1Z" fill="#192C53"/>
<path d="M132.4 149.4H113.3L113 149.3L68.9998 133L40.2998 113.1V112.3C40.2998 112.1 40.2998 111.8 40.4998 111.5V111.4L42.8998 109C47.0998 104.8 53.3998 106.1 57.5998 109.1L74.0998 118.7L80.3998 122.4H84.4998C82.4998 120.2 81.2998 117.2 81.2998 114.3V114C81.2998 114 81.3998 113.3 81.4998 113V111.5L82.9998 111.6H114.8L126.7 122.2H132.3V125.2H125.5L113.6 114.6H84.3998C84.4998 118.2 87.1998 122.2 90.7998 122.4H108.2V125.4H79.6998L72.6998 121.3L55.9998 111.6C52.7998 109.3 48.0998 108.2 45.0998 111.1L44.0998 112.1L70.3998 130.3L113.8 146.3H132.3V149.4H132.4Z" fill="#192C53"/>
<path d="M149.5 170.9H134.6V114.6H171.7V117.6H137.6V167.9H149.5V170.9Z" fill="#192C53"/>
<path d="M85.5 98.8L58.9 72.2C55.4 68.8 53.5 64.3 53.5 59.5C53.5 54.7 55.4 50.1 58.9 46.6L59.1 46.4C62.5 42.9 67 41 71.8 41C71.8 41 71.8 41 71.9 41C76.7 41 81.3 42.9 84.7 46.4L85.4 47.1L86.1 46.4C89.5 42.9 94 41 98.8 41C98.8 41 98.8 41 98.9 41C103.7 41 108.3 42.9 111.7 46.4L111.9 46.6C115.4 50 117.3 54.5 117.3 59.3C117.3 64.1 115.4 68.7 111.9 72.2L85.5 98.8ZM71.9 43.9C67.9 43.9 64.1 45.5 61.3 48.4L61.1 48.6C58.2 51.5 56.6 55.4 56.6 59.4C56.6 63.4 58.2 67.1 61.1 70L85.5 94.4L109.9 70C112.8 67.1 114.4 63.2 114.4 59.2C114.4 55.2 112.8 51.5 109.9 48.6L109.7 48.4C106.8 45.5 103 43.9 99 43.9C99 43.9 99 43.9 98.9 43.9C94.9 43.9 91.2 45.5 88.3 48.4L85.4 51.3L82.5 48.4C79.7 45.7 75.9 43.9 71.9 43.9Z" fill="#192C53"/>
</svg>
