<svg width="214" height="214" viewBox="0 0 214 214" fill="none" xmlns="http://www.w3.org/2000/svg">
<path d="M107 212C164.99 212 212 164.99 212 107C212 49.0101 164.99 2 107 2C49.0101 2 2 49.0101 2 107C2 164.99 49.0101 212 107 212Z" stroke="#DECA75" stroke-width="0" stroke-miterlimit="10"/>
<path d="M105.7 180.3C64.6999 180.3 31.3999 147 31.3999 106C31.3999 65 64.6999 31.7 105.7 31.7C146.7 31.7 180 65 180 106C180 108.5 179.7 111.3 179.5 113.9L179.3 115.6L176.3 115.3L176.5 113.6C176.8 111.1 177 108.4 177 106C177 66.7 145 34.7 105.7 34.7C66.3999 34.7 34.3999 66.7 34.3999 106C34.3999 145.3 66.3999 177.3 105.7 177.3C109.4 177.3 112.9 177 116.5 176.4L117 179.4C113.2 180 109.6 180.3 105.7 180.3Z" fill="#192C53"/>
<path d="M105.6 168.4C71.1997 168.4 43.1997 140.4 43.1997 106C43.1997 71.6 71.1997 43.6 105.7 43.6C140.1 43.6 168.1 71.6 168.1 106H165.1C165.1 73.2 138.5 46.6 105.7 46.6C72.8997 46.6 46.1997 73.2 46.1997 106C46.1997 138.8 72.7997 165.4 105.6 165.4V168.4Z" fill="#192C53"/>
<path d="M107.2 51.6H104.2V62.9H107.2V51.6Z" fill="#192C53"/>
<path d="M131.528 58.3196L125.803 68.0625L128.39 69.5823L134.114 59.8394L131.528 58.3196Z" fill="#192C53"/>
<path d="M152.006 77.5929L142.196 83.1988L143.684 85.8034L153.495 80.1975L152.006 77.5929Z" fill="#192C53"/>
<path d="M159.9 101.6H148.7V104.6H159.9V101.6Z" fill="#192C53"/>
<path d="M104.2 149.1H101.2V160.4H104.2V149.1Z" fill="#192C53"/>
<path d="M82.7017 142.656L77.1006 152.355L79.6986 153.856L85.2997 144.157L82.7017 142.656Z" fill="#192C53"/>
<path d="M67.5149 126.197L57.7031 131.802L59.1911 134.407L69.0029 128.802L67.5149 126.197Z" fill="#192C53"/>
<path d="M62.5997 104.5H51.1997V107.5H62.5997V104.5Z" fill="#192C53"/>
<path d="M59.1319 77.686L57.6436 80.2906L67.4542 85.8965L68.9425 83.2919L59.1319 77.686Z" fill="#192C53"/>
<path d="M79.702 58.1947L77.104 59.6947L82.704 69.3939L85.302 67.8939L79.702 58.1947Z" fill="#192C53"/>
<path d="M105.7 111C104.5 111 103.3 110.6 102.4 109.8C101.5 109 100.9 107.9 100.7 106.6C100.6 105.2 101 103.9 101.9 102.8C102.8 101.8 104 101.2 105.3 101.1C106.6 101 107.8 101.5 108.8 102.3C109.8 103.1 110.3 104.2 110.5 105.5C110.6 106.9 110.2 108.2 109.3 109.3C108.5 110.2 107.4 110.8 106.1 111C106 111 105.9 111 105.7 111ZM105.7 104.1C105.1 104.1 104.6 104.4 104.3 104.7C103.9 105.1 103.8 105.7 103.8 106.2C103.8 106.5 104 107 104.4 107.3C104.9 107.7 105.4 107.9 106 107.8C106.3 107.8 106.8 107.6 107.1 107.2C107.5 106.7 107.7 106.2 107.6 105.6C107.6 105.3 107.4 104.8 107 104.5L106.9 104.4C106.6 104.3 106.1 104.1 105.7 104.1Z" fill="#192C53"/>
<path d="M130.497 75.9941L106.783 102.413L109.015 104.417L132.729 77.9981L130.497 75.9941Z" fill="#192C53"/>
<path d="M81.8466 82.7893L79.854 85.0321L103.179 105.755L105.172 103.512L81.8466 82.7893Z" fill="#192C53"/>
<path d="M146.7 179.9C128 179.9 112.8 164.7 112.8 146C112.8 127.3 128 112.1 146.7 112.1C155.6 112 164.1 115.4 170.5 121.8C177 128.2 180.6 136.8 180.6 146C180.6 164.7 165.4 179.9 146.7 179.9ZM147.1 115.1C147 115.1 146.9 115.1 146.8 115.1C129.7 115.1 115.9 129 115.9 146C115.9 163 129.8 176.9 146.8 176.9C163.8 176.9 177.7 163 177.7 146C177.7 137.6 174.4 129.8 168.5 123.9C162.6 118.2 155.1 115.1 147.1 115.1Z" fill="#192C53"/>
<path d="M147.8 131.9H144.8V159.9H147.8V131.9Z" fill="#192C53"/>
<path d="M160.3 144.5H132.3V147.5H160.3V144.5Z" fill="#192C53"/>
</svg>
