<svg width="214" height="214" viewBox="0 0 214 214" fill="none" xmlns="http://www.w3.org/2000/svg">
<path d="M107 212C164.99 212 212 164.99 212 107C212 49.0101 164.99 2 107 2C49.0101 2 2 49.0101 2 107C2 164.99 49.0101 212 107 212Z" stroke="#DECA75" stroke-width="0" stroke-miterlimit="10"/>
<path d="M92.1 183C91.7 183 91.2 182.8 90.9 182.5C90.2 181.8 90.2 180.8 90.9 180.1C102.4 168.6 108.3 152.8 107.2 136.6L103.3 77.6C102.2 60.5 108.5 43.7 120.6 31.5C121.3 30.8 122.3 30.8 123 31.5C123.7 32.2 123.7 33.2 123 33.9C111.5 45.4 105.6 61.2 106.7 77.4L110.6 136.4C111.7 153.5 105.4 170.3 93.3 182.5C93 182.8 92.6 183 92.1 183Z" fill="#192C53"/>
<path d="M32.7001 123.5C32.3001 123.5 31.8001 123.3 31.5001 123C30.8001 122.3 30.8001 121.3 31.5001 120.6C43.6001 108.4 60.5001 102.1 77.6001 103.3L136.6 107.2C152.7 108.3 168.6 102.3 180.1 90.9C180.8 90.2 181.8 90.2 182.5 90.9C183.2 91.6 183.2 92.6 182.5 93.3C170.3 105.4 153.5 111.7 136.4 110.6L77.4001 106.7C61.2001 105.6 45.4001 111.6 33.9001 123C33.6001 123.4 33.1001 123.5 32.7001 123.5Z" fill="#192C53"/>
<path d="M176.6 89.1C176.2 89.1 175.7 88.9 175.4 88.6L125.3 38.5C124.6 37.8 124.6 36.8 125.3 36.1C126 35.4 127 35.4 127.7 36.1L177.8 86.2C178.5 86.9 178.5 87.9 177.8 88.6C177.5 89 177 89.1 176.6 89.1Z" fill="#192C53"/>
<path d="M158.4 100.6C158 100.6 157.5 100.4 157.2 100.1L131.6 74.5C130.9 73.8 130.9 72.8 131.6 72.1C132.3 71.4 133.3 71.4 134 72.1L159.6 97.7C160.3 98.4 160.3 99.4 159.6 100.1C159.2 100.4 158.8 100.6 158.4 100.6Z" fill="#192C53"/>
<path d="M123.2 65.4C122.8 65.4 122.3 65.2 122 64.9L113.2 56.1C112.5 55.4 112.5 54.4 113.2 53.7C113.9 53 114.9 53 115.6 53.7L124.4 62.5C125.1 63.2 125.1 64.2 124.4 64.9C124 65.3 123.6 65.4 123.2 65.4Z" fill="#192C53"/>
<path d="M132.4 104.3C132 104.3 131.5 104.1 131.2 103.8L110.2 82.8C109.5 82.1 109.5 81.1 110.2 80.4C110.9 79.7 111.9 79.7 112.6 80.4L133.6 101.4C134.3 102.1 134.3 103.1 133.6 103.8C133.2 104.2 132.8 104.3 132.4 104.3Z" fill="#192C53"/>
<path d="M102.6 134C102.2 134 101.7 133.8 101.4 133.5L80.4 112.5C79.7 111.8 79.7 110.8 80.4 110.1C81.1 109.4 82.1 109.4 82.8 110.1L103.8 131.1C104.5 131.8 104.5 132.8 103.8 133.5C103.5 133.9 103.1 134 102.6 134Z" fill="#192C53"/>
<path d="M99.5002 160.6C99.1002 160.6 98.6002 160.4 98.3002 160.1L89.6002 151.4C88.9002 150.7 88.9002 149.7 89.6002 149C90.3002 148.3 91.3002 148.3 92.0002 149L100.7 157.7C101.4 158.4 101.4 159.4 100.7 160.1C100.4 160.5 99.9002 160.6 99.5002 160.6Z" fill="#192C53"/>
<path d="M81.3001 142.4C80.9001 142.4 80.4 142.2 80.1 141.9L54.2 116C53.5 115.3 53.5 114.3 54.2 113.6C54.9 112.9 55.9 112.9 56.6 113.6L82.5 139.5C83.2 140.2 83.2 141.2 82.5 141.9C82.1 142.2 81.7001 142.4 81.3001 142.4Z" fill="#192C53"/>
<path d="M87.5 178.3C87.1 178.3 86.6001 178.1 86.3001 177.8L36.2 127.7C35.5 127 35.5 126 36.2 125.3C36.9 124.6 37.9 124.6 38.6 125.3L88.7 175.4C89.4 176.1 89.4 177.1 88.7 177.8C88.3 178.1 87.9001 178.3 87.5 178.3Z" fill="#192C53"/>
<path d="M128 77C125.8 77 123.7 76.2 122 74.5C120.4 72.9 119.5 70.8 119.5 68.5C119.5 66.2 120.4 64.1 122 62.5C125.3 59.2 130.6 59.2 133.9 62.5C135.5 64.1 136.4 66.2 136.4 68.5C136.4 70.8 135.5 72.9 133.9 74.5C132.3 76.1 130.1 77 128 77ZM128 63.5C126.7 63.5 125.4 64 124.4 65C123.4 66 122.9 67.2 122.9 68.6C122.9 70 123.4 71.2 124.4 72.2C126.4 74.2 129.6 74.2 131.6 72.2C132.6 71.2 133.1 70 133.1 68.6C133.1 67.2 132.6 66 131.6 65C130.6 64 129.3 63.5 128 63.5Z" fill="#192C53"/>
<path d="M86.0001 153.9C81.3001 153.9 77.6001 150.1 77.6001 145.5C77.6001 140.8 81.4001 137.1 86.0001 137.1C90.7001 137.1 94.4001 140.9 94.4001 145.5C94.5001 150.1 90.7001 153.9 86.0001 153.9ZM86.0001 140.4C83.2001 140.4 80.9001 142.7 80.9001 145.5C80.9001 148.3 83.2001 150.6 86.0001 150.6C88.8001 150.6 91.1001 148.3 91.1001 145.5C91.1001 142.7 88.8001 140.4 86.0001 140.4Z" fill="#192C53"/>
</svg>
