<svg width="214" height="214" viewBox="0 0 214 214" fill="none" xmlns="http://www.w3.org/2000/svg">
<path d="M107 212C164.99 212 212 164.99 212 107C212 49.0101 164.99 2 107 2C49.0101 2 2 49.0101 2 107C2 164.99 49.0101 212 107 212Z" stroke="#DECA75" stroke-width="0" stroke-miterlimit="10"/>
<path d="M156.7 176.7H127.7C124.9 176.7 122.6 174.4 122.6 171.6V149C122.6 146.8 123.6 143.5 124.9 141.7L128.9 136C130 134.5 130.6 132.8 130.6 132.4C130.6 130.5 132.7 129.2 135.7 129.2H148.7C151.7 129.2 153.8 130.6 153.8 132.5C153.8 132.9 154.4 134.5 155.5 136.1L159.5 141.8C160.8 143.6 161.8 146.8 161.8 149.1V171.8C161.8 174.4 159.5 176.7 156.7 176.7ZM133.7 132.7C133.5 134.1 132.5 136.3 131.4 137.8L127.4 143.5C126.5 144.8 125.7 147.4 125.7 148.9V171.6C125.7 172.6 126.6 173.5 127.6 173.5H156.6C157.6 173.5 158.5 172.6 158.5 171.6V149C158.5 147.4 157.7 144.9 156.8 143.6L152.8 137.9C151.7 136.4 150.7 134.3 150.5 132.8C150.2 132.6 149.6 132.4 148.6 132.4H135.6C134.7 132.3 134 132.6 133.7 132.7Z" fill="#192C53"/>
<path d="M153.1 132.7H131.2C127.6 132.7 124.6 129.7 124.6 126.1V123.6C124.6 120 127.6 117 131.2 117H153.1C156.7 117 159.7 120 159.7 123.6V126.1C159.7 129.7 156.7 132.7 153.1 132.7ZM131.2 120.8C129.7 120.8 128.4 122 128.4 123.6V126.1C128.4 127.6 129.6 128.9 131.2 128.9H153.1C154.6 128.9 155.9 127.7 155.9 126.1V123.6C155.9 122.1 154.7 120.8 153.1 120.8H131.2Z" fill="#192C53"/>
<path d="M63.4 54.5C56.8 54.5 49.8 46.8 48.9 45.8C48.3 45.1 48.4 44.1 49 43.6C49.7 43 50.7 43.1 51.2 43.7C53.6 46.4 60.8 52.9 65.2 50.9C66.4 50.4 68 49.5 69.8 48.5C77.4 44.3 90.2 37.3 105.7 37.3C122.4 37.3 134.6 40.6 144.2 47.8C151 52.9 156.1 49.9 163.9 44.6C164.6 44.1 165.6 44.3 166.1 45C166.6 45.7 166.4 46.7 165.7 47.2C158.6 52 151.3 57 142.4 50.3C133.4 43.6 121.8 40.5 105.8 40.5C91.1 40.5 78.8 47.3 71.4 51.3C69.5 52.3 67.9 53.2 66.6 53.8C65.5 54.3 64.5 54.5 63.4 54.5ZM112.6 140.4C113.3 126.5 116.6 118.8 123.1 116C124.5 115.4 125.9 114.9 127.3 114.3C134.3 111.6 142.3 108.5 151.6 98C160.3 88.1 160 76 159.8 68.8C159.7 66.8 159.7 65.1 159.9 64.1C160.4 61.1 166.8 57.5 170.7 55.9C171.5 55.6 171.9 54.6 171.6 53.8C171.3 53 170.3 52.6 169.5 52.9C168.3 53.4 157.8 57.8 156.8 63.5C156.6 64.8 156.6 66.6 156.7 68.9C156.9 76.1 157.2 86.9 149.3 95.9C140.5 105.8 133.3 108.6 126.3 111.4C124.9 112 123.4 112.5 122 113.1C111.8 117.5 110.1 130.7 109.6 140.3C109.6 141.2 110.2 141.9 111.1 142C111.1 142 111.1 142 111.2 142C111.9 141.9 112.6 141.3 112.6 140.4ZM103 141.9C103.9 141.9 104.6 141.1 104.5 140.2C104 130.6 102.3 117.4 92.1 113C90.7 112.4 89.3 111.8 87.8 111.3C80.8 108.6 73.5 105.8 64.8 95.8C56.9 86.8 57.2 76 57.4 68.8C57.5 66.5 57.5 64.8 57.3 63.4C56.3 57.7 45.8 53.3 44.6 52.8C43.8 52.5 42.9 52.9 42.5 53.7C42.2 54.5 42.6 55.4 43.4 55.8C47.3 57.4 53.6 61 54.2 64C54.4 65 54.3 66.7 54.3 68.7C54.1 75.9 53.8 88 62.5 97.9C71.8 108.4 79.7 111.5 86.7 114.2C88.1 114.7 89.5 115.3 90.9 115.9C97.4 118.7 100.7 126.4 101.4 140.3C101.4 141.3 102.1 141.9 103 141.9Z" fill="#192C53"/>
</svg>
