<svg width="214" height="214" viewBox="0 0 214 214" fill="none" xmlns="http://www.w3.org/2000/svg">
<path d="M107 212C164.99 212 212 164.99 212 107C212 49.0101 164.99 2 107 2C49.0101 2 2 49.0101 2 107C2 164.99 49.0101 212 107 212Z" stroke="#DECA75" stroke-width="0" stroke-miterlimit="10"/>
<path d="M106.7 181.3C65.7 181.3 32.4 148 32.4 107C32.4 66 65.7 32.7 106.7 32.7C147.7 32.7 181 66 181 107C181 109.5 180.7 112.3 180.5 114.9L180.3 116.6L177.3 116.3L177.5 114.6C177.8 112.1 178 109.4 178 107C178 67.7 146 35.7 106.7 35.7C67.4 35.7 35.4 67.7 35.4 107C35.4 146.3 67.4 178.3 106.7 178.3C110.4 178.3 113.9 178 117.5 177.4L118 180.4C114.2 181 110.6 181.3 106.7 181.3Z" fill="#192C53"/>
<path d="M106.6 169.4C72.2 169.4 44.2 141.4 44.2 107C44.2 72.6 72.2 44.6 106.7 44.6C141.1 44.6 169.1 72.6 169.1 107H166.1C166.1 74.2 139.5 47.6 106.7 47.6C73.9 47.6 47.2 74.2 47.2 107C47.2 139.8 73.8 166.4 106.6 166.4V169.4Z" fill="#192C53"/>
<path d="M108.2 52.6H105.2V63.9H108.2V52.6Z" fill="#192C53"/>
<path d="M132.568 59.2886L126.844 69.0315L129.43 70.5513L135.155 60.8084L132.568 59.2886Z" fill="#192C53"/>
<path d="M153.01 78.5837L143.2 84.1896L144.688 86.7942L154.498 81.1883L153.01 78.5837Z" fill="#192C53"/>
<path d="M160.9 102.6H149.7V105.6H160.9V102.6Z" fill="#192C53"/>
<path d="M105.2 150.1H102.2V161.4H105.2V150.1Z" fill="#192C53"/>
<path d="M83.7478 143.632L78.1467 153.331L80.7447 154.832L86.3458 145.132L83.7478 143.632Z" fill="#192C53"/>
<path d="M68.5223 127.186L58.7105 132.791L60.1985 135.396L70.0103 129.791L68.5223 127.186Z" fill="#192C53"/>
<path d="M63.6 105.5H52.2V108.5H63.6V105.5Z" fill="#192C53"/>
<path d="M60.1732 78.6655L58.6849 81.2701L68.4955 86.876L69.9838 84.2714L60.1732 78.6655Z" fill="#192C53"/>
<path d="M80.6917 59.187L78.0938 60.687L83.6938 70.3862L86.2918 68.8862L80.6917 59.187Z" fill="#192C53"/>
<path d="M106.7 112C105.5 112 104.3 111.6 103.4 110.8C102.5 110 101.9 108.9 101.7 107.6C101.6 106.2 102 104.9 102.9 103.8C103.8 102.8 105 102.2 106.3 102.1C107.6 102 108.8 102.5 109.8 103.3C110.8 104.1 111.3 105.2 111.5 106.5C111.6 107.9 111.2 109.2 110.3 110.3C109.5 111.2 108.4 111.8 107.1 112C107 112 106.9 112 106.7 112ZM106.7 105.1C106.1 105.1 105.6 105.4 105.3 105.7C104.9 106.1 104.8 106.7 104.8 107.2C104.8 107.5 105 108 105.4 108.3C105.9 108.7 106.4 108.9 107 108.8C107.3 108.8 107.8 108.6 108.1 108.2C108.5 107.7 108.7 107.2 108.6 106.6C108.6 106.3 108.4 105.8 108 105.5L107.9 105.4C107.6 105.3 107.1 105.1 106.7 105.1Z" fill="#192C53"/>
<path d="M131.499 76.9894L107.785 103.409L110.018 105.413L133.732 78.9934L131.499 76.9894Z" fill="#192C53"/>
<path d="M82.8074 83.7939L80.8148 86.0367L104.14 106.76L106.133 104.517L82.8074 83.7939Z" fill="#192C53"/>
<path d="M147.7 180.9C129 180.9 113.8 165.7 113.8 147C113.8 128.3 129 113.1 147.7 113.1C156.6 113 165.1 116.4 171.5 122.8C178 129.2 181.6 137.8 181.6 147C181.6 165.7 166.4 180.9 147.7 180.9ZM148.1 116.1C148 116.1 147.9 116.1 147.8 116.1C130.7 116.1 116.9 130 116.9 147C116.9 164 130.8 177.9 147.8 177.9C164.8 177.9 178.7 164 178.7 147C178.7 138.6 175.4 130.8 169.5 124.9C163.6 119.2 156.1 116.1 148.1 116.1Z" fill="#192C53"/>
<path d="M148.8 132.9H145.8V160.9H148.8V132.9Z" fill="#192C53"/>
<path d="M161.3 145.5H133.3V148.5H161.3V145.5Z" fill="#192C53"/>
</svg>
