<?xml version="1.0" standalone="no"?>
<!DOCTYPE svg PUBLIC "-//W3C//DTD SVG 1.1//EN" "http://www.w3.org/Graphics/SVG/1.1/DTD/svg11.dtd" >
<svg xmlns="http://www.w3.org/2000/svg" xmlns:xlink="http://www.w3.org/1999/xlink" version="1.1">
<metadata>
Created by FontForge 20170731 at Tue Dec  9 19:45:12 2003
 By Aleksey,,,
Copyright 1990-2003 Bitstream Inc. All rights reserved.
</metadata>
<defs>
<font id="Caslon540BT-Roman" horiz-adv-x="1024" >
  <font-face 
    font-family="Caslon540BT-Roman"
    font-weight="400"
    font-stretch="normal"
    units-per-em="2048"
    panose-1="2 3 6 3 6 5 6 2 4 3"
    ascent="1556"
    descent="-492"
    x-height="895"
    cap-height="1421"
    bbox="-342 -483 2251 1972"
    underline-thickness="137"
    underline-position="-423"
    unicode-range="U+0020-F002"
  />
<missing-glyph horiz-adv-x="1229" 
d="M102 -362v1806h1024v-1806h-1024zM217 -248h795v1577h-795v-1577z" />
    <glyph glyph-name=".notdef" horiz-adv-x="1229" 
d="M102 -362v1806h1024v-1806h-1024zM217 -248h795v1577h-795v-1577z" />
    <glyph glyph-name="glyph1" horiz-adv-x="0" 
 />
    <glyph glyph-name="glyph2" horiz-adv-x="516" 
 />
    <glyph glyph-name="space" unicode=" " horiz-adv-x="516" 
 />
    <glyph glyph-name="exclam" unicode="!" horiz-adv-x="598" 
d="M281 340l-76 891q0 2 -1 5q-3 35 -3 54q0 74 26 115t72 41q43 0 71.5 -39.5t28.5 -99.5q0 -20 -3 -65q0 -7 -1 -11l-78 -891h-36zM176 98q0 52 35 85.5t88 33.5q51 0 86 -34t35 -85q0 -49 -36.5 -86t-84.5 -37q-50 0 -86.5 36.5t-36.5 86.5z" />
    <glyph glyph-name="quotedbl" unicode="&#x22;" horiz-adv-x="678" 
d="M518 864h-31l-65 457q0 2 -1 6q-3 22 -3 33q0 49 22.5 75.5t63.5 26.5q40 0 62 -26t22 -74q0 -14 -0.5 -23t-1.5 -18zM190 864h-32l-64 457q-2 17 -3 26t-1 15q0 48 22 74t62 26q41 0 63.5 -26t22.5 -74q0 -9 -3 -34q-1 -5 -1 -7z" />
    <glyph glyph-name="numbersign" unicode="#" horiz-adv-x="1575" 
d="M700 868l-100 -286h289l102 286h-291zM778 1456h133l-168 -471h287l168 471h131l-166 -471h307l-40 -117h-310l-100 -286h332l-43 -115h-330l-166 -469h-133l166 469h-287l-166 -469h-131l166 469h-324l43 115h322l100 286h-348l43 117h348z" />
    <glyph glyph-name="dollar" unicode="$" horiz-adv-x="1034" 
d="M512 1325q-5 0 -14.5 1t-14.5 1q-105 0 -172 -67.5t-67 -172.5q0 -76 37.5 -128.5t117.5 -90.5l31 -14zM496 43q5 0 15 -1t15 -1q126 0 205.5 76t79.5 194q0 98 -39.5 157.5t-140.5 106.5l-39 19zM473 836l105 -45l84 481q-19 14 -43 25t-58 19zM344 98q25 -16 51 -27
t54 -18l98 561l-105 50zM328 8l-33 -186h-49l37 203q-100 34 -151.5 76.5t-51.5 88.5q0 28 18 46t45 18q35 0 94 -62q39 -40 64 -61l96 551l-18 8q-115 57 -174.5 138.5t-59.5 183.5q0 162 102.5 263t272.5 106l35 178h45l-28 -179q8 -1 22 -3q62 -8 84 -13l35 195h49
l-37 -211q89 -31 132.5 -68.5t43.5 -81.5q0 -26 -17.5 -41.5t-47.5 -15.5q-46 0 -97 56q-22 26 -37 38l-81 -467l36 -14q137 -47 212 -137t75 -207q0 -181 -125.5 -301.5t-316.5 -120.5h-17l-28 -166h-49l28 167q-25 4 -52.5 8.5t-55.5 10.5z" />
    <glyph glyph-name="percent" unicode="%" horiz-adv-x="1497" 
d="M655 1192q-29 31 -45 62.5t-22 70.5h-25q-50 0 -93.5 -16t-86.5 -52q-83 -70 -145 -200t-62 -230q0 -61 36 -101t91 -40q118 0 231 155.5t121 350.5zM1288 672q-51 0 -105.5 -40.5t-107.5 -117.5q-71 -104 -110 -198t-39 -160q0 -56 35.5 -93.5t89.5 -37.5q62 0 123 47
t126 145q56 85 82.5 158.5t26.5 144.5t-32.5 111.5t-88.5 40.5zM795 244q0 93 48 192.5t130 173.5q64 60 139 92.5t148 32.5q95 0 149.5 -58.5t54.5 -162.5q0 -77 -29.5 -162t-84.5 -170q-69 -103 -149.5 -154t-172.5 -51q-100 0 -166.5 75.5t-66.5 191.5zM166 -63l909 1282
q-50 -43 -113.5 -66t-132.5 -23q-30 0 -60 7t-62 22q-24 -225 -147 -374.5t-277 -149.5q-104 0 -171 76t-67 194q0 81 35 163t100 157q69 77 153 120.5t165 43.5q87 0 143.5 -43t67.5 -117q28 -18 57 -26.5t63 -8.5q106 0 202.5 53.5t201.5 171.5h84l-1047 -1482h-104z" />
    <glyph glyph-name="ampersand" unicode="&#x26;" horiz-adv-x="1688" 
d="M662 967q90 59 128.5 109t38.5 106q0 77 -54.5 135.5t-127.5 58.5q-74 0 -130 -50t-56 -118q0 -47 49.5 -107t151.5 -134zM991 338q-159 -205 -277.5 -285t-250.5 -80q-162 0 -272.5 122.5t-110.5 299.5q0 147 87.5 258.5t295.5 225.5q-70 62 -103.5 120t-33.5 117
q0 53 33 110.5t94 108.5q66 56 135.5 85.5t134.5 29.5q103 0 172.5 -61t69.5 -150q0 -68 -56.5 -134t-211.5 -172l8 -7q249 -214 374 -389l209 297q14 20 21.5 37.5t7.5 31.5q0 34 -35.5 51t-105.5 17v47h442v-51h-4q-91 0 -172.5 -63.5t-249.5 -293.5l-82 -112l21 -32
q251 -374 342 -374q33 0 60.5 17t49.5 51l39 -25q-35 -64 -102 -102.5t-142 -38.5q-139 0 -307 235q-50 70 -80 109zM967 381q-79 109 -194 228t-257 237q-129 -55 -192.5 -140.5t-63.5 -203.5q0 -149 85 -242.5t220 -93.5q101 0 204 55t198 160z" />
    <glyph glyph-name="quotesingle" unicode="'" horiz-adv-x="348" 
d="M190 864h-32l-66 457q-1 8 -1.5 16t-0.5 23q0 50 21.5 76t62.5 26t63.5 -26t22.5 -74q0 -9 -3 -34q-1 -5 -1 -7z" />
    <glyph glyph-name="parenleft" unicode="(" horiz-adv-x="829" 
d="M698 1421q-148 -190 -219 -398.5t-71 -455.5q0 -263 70.5 -477.5t219.5 -404.5l-39 -23q-205 199 -316.5 432t-111.5 459q0 227 112 460.5t316 432.5z" />
    <glyph glyph-name="parenright" unicode=")" horiz-adv-x="829" 
d="M131 1421l39 25q204 -199 316 -432.5t112 -460.5q0 -226 -111.5 -459t-316.5 -432l-39 23q150 189 220.5 403t70.5 479q0 248 -71 456t-220 398z" />
    <glyph glyph-name="asterisk" unicode="*" horiz-adv-x="1053" 
d="M508 1100q-83 121 -123.5 196t-40.5 105q0 22 13 34.5t36 12.5q40 0 69 -73t64 -269l6 -4q41 204 67.5 274t59.5 70q22 0 38 -16t16 -39q0 -34 -38 -103t-126 -194l4 -2q116 80 192.5 121.5t108.5 41.5q22 0 34.5 -14t12.5 -37q0 -38 -70.5 -66.5t-273.5 -64.5v-8
q204 -40 274 -67t70 -60q0 -21 -16 -37t-39 -16q-34 0 -103 37.5t-194 126.5l-6 -5q82 -121 123 -195.5t41 -105.5q0 -21 -13.5 -33t-38.5 -12q-39 0 -67 71t-64 271l-6 -2q-40 -202 -67 -272t-60 -70q-21 0 -37 15t-16 39q0 33 41 107.5t123 191.5l-4 8
q-117 -79 -194 -121.5t-103 -42.5t-38.5 13t-12.5 38q0 39 70.5 67t271.5 64l2 4q-205 40 -274.5 67t-69.5 60q0 21 15.5 37.5t39.5 16.5q34 0 105 -39t194 -125z" />
    <glyph glyph-name="plus" unicode="+" horiz-adv-x="1706" 
d="M795 1221h118v-551h539v-117h-539v-553h-118v553h-541v117h541v551z" />
    <glyph glyph-name="comma" unicode="," horiz-adv-x="516" 
d="M166 -274q82 73 116.5 123.5t34.5 93.5q0 39 -62 60q-17 6 -25 9q-53 19 -78 48t-25 69q0 45 30.5 72.5t80.5 27.5q71 0 118 -59.5t47 -151.5q0 -90 -50.5 -170.5t-153.5 -156.5z" />
    <glyph glyph-name="hyphen" unicode="-" horiz-adv-x="674" 
d="M84 379v137h504v-137h-504z" />
    <glyph glyph-name="period" unicode="." horiz-adv-x="516" 
d="M137 109q0 52 34.5 86t86.5 34q51 0 86 -35t35 -85t-36 -85.5t-85 -35.5q-50 0 -85.5 35.5t-35.5 85.5z" />
    <glyph glyph-name="slash" unicode="/" horiz-adv-x="567" 
d="M82 -190h-117l502 1636h115z" />
    <glyph glyph-name="zero" unicode="0" horiz-adv-x="1034" 
d="M516 20q122 0 185 168.5t63 493.5t-63 494.5t-185 169.5q-121 0 -184.5 -169.5t-63.5 -494.5q0 -323 63 -492.5t183 -169.5h2zM954 670q0 -307 -124 -501t-314 -194q-193 0 -314.5 195t-121.5 512t122 513t314 196q194 0 316 -198t122 -523z" />
    <glyph glyph-name="one" unicode="1" horiz-adv-x="1034" 
d="M246 0v43q124 3 159 23t35 114v856q0 71 -18.5 86t-83.5 15h-105v49q100 22 182 70.5t163 134.5h38v-1207q0 -92 26 -110.5t149 -30.5v-43h-545z" />
    <glyph glyph-name="two" unicode="2" horiz-adv-x="1034" 
d="M109 0v27q0 147 198 402q50 65 76 99l168 226q81 110 115 184.5t34 136.5q0 85 -54 141t-134 56q-101 0 -187.5 -71.5t-183.5 -235.5l-35 14q98 210 218.5 312t271.5 102q133 0 216 -77.5t83 -199.5q0 -144 -224 -381l-16 -16l-243 -260q-80 -85 -130 -156.5t-79 -140.5
h514q63 0 97.5 28t66.5 105h41l-140 -404h-37v21q0 54 -19.5 71t-121.5 17h-495z" />
    <glyph glyph-name="three" unicode="3" horiz-adv-x="1034" 
d="M375 668q172 186 221 268.5t49 153.5q0 80 -49 129t-131 49q-61 0 -126 -36t-146 -116l-31 25q118 137 210 195.5t185 58.5q102 0 165.5 -60t63.5 -155q0 -94 -54.5 -182t-174.5 -185q163 -14 256.5 -111t93.5 -253q0 -192 -136 -332t-331 -140q-148 0 -251 62t-103 143
q0 32 23 54t55 22q34 0 57 -20t58 -91q29 -64 74.5 -94t111.5 -30q117 0 197.5 103.5t80.5 256.5q0 141 -89.5 213t-264.5 72h-14z" />
    <glyph glyph-name="four" unicode="4" horiz-adv-x="1034" 
d="M154 543h469v674zM618 0v410h-559v90l633 907h99v-864h200v-133h-200v-410h-173z" />
    <glyph glyph-name="five" unicode="5" horiz-adv-x="1034" 
d="M232 750l51 616h424q58 0 79 14.5t33 53.5h41l-88 -226h-453l-24 -288h43q268 0 414.5 -121.5t146.5 -343.5q0 -209 -131.5 -343.5t-339.5 -134.5q-133 0 -235.5 57t-102.5 124q0 31 23 51t57 20q27 0 48.5 -15.5t41.5 -49.5q45 -77 90.5 -105t116.5 -28q127 0 207 95
t80 247q0 183 -117.5 281t-339.5 98q-27 0 -40 -0.5t-25 -1.5z" />
    <glyph glyph-name="six" unicode="6" horiz-adv-x="1034" 
d="M279 406q0 -175 66 -279t175 -104q119 0 196 108.5t77 282.5q0 152 -77 248t-198 96q-114 0 -176.5 -92t-62.5 -260zM308 697q59 67 124 98.5t143 31.5q169 0 280.5 -115.5t111.5 -291.5q0 -188 -124.5 -317.5t-297.5 -129.5q-190 0 -316.5 165.5t-126.5 420.5
q0 311 188.5 539t502.5 297l12 -37q-209 -54 -348.5 -239.5t-148.5 -421.5z" />
    <glyph glyph-name="seven" unicode="7" horiz-adv-x="1034" 
d="M831 1208h-485q-76 0 -96 -14.5t-39 -71.5l-21 -63h-47l117 379h37q-1 -6 -2.5 -16t-1.5 -13q0 -24 16 -33.5t74 -9.5h549v-51l-414 -1164q-9 -26 -25 -74q-47 -147 -116 -147q-36 0 -57 20t-21 54q0 57 198 473t334 731z" />
    <glyph glyph-name="eight" unicode="8" horiz-adv-x="1034" 
d="M598 807q101 78 141.5 144t40.5 149q0 115 -65.5 182.5t-177.5 67.5q-111 0 -181.5 -64.5t-70.5 -163.5q0 -89 63.5 -156t249.5 -159zM397 713q-123 61 -185 145t-62 186q0 153 114 251t297 98q152 0 254.5 -82.5t102.5 -200.5q0 -104 -61.5 -175.5t-219.5 -146.5l92 -51
q108 -59 161.5 -142.5t53.5 -195.5q0 -181 -121 -302.5t-303 -121.5q-174 0 -292.5 104t-118.5 253q0 124 70.5 217.5t217.5 163.5zM446 690q-96 -68 -148 -161t-52 -197q0 -133 81 -220t203 -87q126 0 200.5 87t74.5 236q0 86 -50 147.5t-198 137.5z" />
    <glyph glyph-name="nine" unicode="9" horiz-adv-x="1034" 
d="M508 608q120 0 185 94.5t65 270.5t-65 270t-187 94q-118 0 -193 -106.5t-75 -280.5q0 -149 76.5 -245.5t193.5 -96.5zM725 667q-59 -66 -124 -97t-144 -31q-170 0 -282 113t-112 288q0 193 126.5 323t308.5 130q194 0 313 -161t119 -425q0 -313 -188 -541t-504 -297
l-11 37q209 54 349 240t149 421z" />
    <glyph glyph-name="colon" unicode=":" horiz-adv-x="563" 
d="M160 780q0 53 34 87t87 34q51 0 86.5 -35t35.5 -86q0 -49 -36.5 -85t-85.5 -36q-51 0 -86 36t-35 85zM160 109q0 52 34 86t87 34q51 0 86.5 -35t35.5 -85q0 -49 -36.5 -85t-85.5 -36q-51 0 -86 35.5t-35 85.5z" />
    <glyph glyph-name="semicolon" unicode=";" horiz-adv-x="563" 
d="M154 780q0 52 35 86.5t87 34.5q51 0 86 -35t35 -86q0 -49 -35.5 -85t-85.5 -36t-86 36t-36 85zM186 -274q83 73 117.5 123.5t34.5 93.5q0 39 -64 61l-24 8q-52 19 -77.5 48t-25.5 69q0 45 31 72.5t80 27.5q71 0 118.5 -59.5t47.5 -151.5q0 -89 -51 -170t-156 -157z" />
    <glyph glyph-name="less" unicode="&#x3c;" horiz-adv-x="1706" 
d="M1442 1145v-127l-1000 -408l1000 -405v-129l-1178 483v103z" />
    <glyph glyph-name="equal" unicode="=" horiz-adv-x="1706" 
d="M254 477h1198v-117h-1198v117zM254 860h1198v-117h-1198v117z" />
    <glyph glyph-name="greater" unicode="&#x3e;" horiz-adv-x="1706" 
d="M264 1145l1178 -483v-103l-1178 -483v129l1000 405l-1000 408v127z" />
    <glyph glyph-name="question" unicode="?" horiz-adv-x="786" 
d="M258 381l1 471q207 2 286.5 46t79.5 153q0 89 -47.5 134.5t-163.5 63.5q-17 3 -48 7q-157 22 -157 96q0 41 30 65.5t80 24.5q126 0 243.5 -127t117.5 -283q0 -168 -87 -247.5t-278 -86.5l-10 -317h-47zM158 96q0 51 34.5 85t86.5 34q51 0 85.5 -34t34.5 -85
q0 -47 -36.5 -84t-83.5 -37q-50 0 -85.5 36t-35.5 85z" />
    <glyph glyph-name="at" unicode="@" horiz-adv-x="2019" 
d="M1190 336q-62 -106 -139 -158.5t-170 -52.5q-125 0 -201 92t-76 244q0 108 49 216t138 193q65 64 144 100t155 36q87 0 143 -49.5t78 -145.5l53 180h143l-170 -610q0 -2 -1 -5q-17 -59 -17 -104q0 -47 25.5 -74.5t68.5 -27.5q34 0 79 17.5t85 48.5q122 90 187 231t65 315
q0 140 -50 252t-153 203q-90 79 -216 122.5t-267 43.5q-187 0 -341.5 -58.5t-275.5 -175.5q-130 -126 -197 -293.5t-67 -369.5q0 -175 57 -304.5t181 -234.5q114 -97 261 -146.5t320 -49.5q163 0 317.5 52t295.5 154l30 -36q-148 -110 -313 -166t-342 -56q-187 0 -342 46.5
t-274 138.5q-151 113 -229.5 274.5t-78.5 358.5q0 204 86 381t250 313q131 110 291 165.5t344 55.5q347 0 553.5 -187t206.5 -499q0 -157 -58 -297t-163 -236q-57 -52 -123.5 -80t-134.5 -28q-97 0 -149 52.5t-58 158.5zM1098 965q-54 0 -99 -31t-92 -100
q-72 -108 -114.5 -234t-42.5 -225q0 -93 40.5 -147t108.5 -54q66 0 126 44.5t116 133.5q57 94 91 202.5t34 197.5q0 93 -47.5 153t-120.5 60z" />
    <glyph glyph-name="A" unicode="A" horiz-adv-x="1237" 
d="M315 592h439l-228 582zM-59 0v49l69 12q60 11 125 202q31 90 51 145l301 788l2 4q7 21 7 31t-3.5 20.5t-9.5 20.5l-18 31q45 31 83 70t70 87h19l500 -1300q26 -68 56.5 -89.5t94.5 -21.5v-49h-536v49l63 8q64 8 82 22t18 44q0 15 -3.5 32.5t-10.5 35.5l-125 341h-481
l-105 -284q-16 -44 -22 -70.5t-6 -46.5q0 -32 26 -49.5t91 -28.5l43 -6v-47h-381z" />
    <glyph glyph-name="B" unicode="B" horiz-adv-x="1264" 
d="M90 1v48h12q84 0 111 22t27 128v10v1024q0 97 -26 118t-110 21h-14v49q99 1 236.5 3.5t175.5 2.5q304 0 443.5 -87t139.5 -275q0 -106 -59 -182.5t-176 -120.5q155 -22 246.5 -116.5t91.5 -229.5q0 -215 -160.5 -319.5t-490.5 -104.5q-58 0 -260 4q-119 3 -187 5z
M449 752h45q195 0 296 77t101 226q0 155 -99 239t-282 84q-25 0 -38 -0.5t-23 -1.5v-624zM449 176q0 -74 36 -103.5t131 -29.5q166 0 257.5 87t91.5 245q0 179 -90.5 255.5t-311.5 76.5h-114v-531z" />
    <glyph glyph-name="C" unicode="C" horiz-adv-x="1458" 
d="M1300 500h39v-467h-41l-36 75q-4 7 -10.5 11t-12.5 4q-10 0 -53 -26q-201 -122 -406 -122q-119 0 -229 39t-203 113q-132 107 -196 250.5t-64 335.5q0 132 38.5 251t111.5 212q98 127 243.5 198.5t306.5 71.5q150 0 300.5 -66.5t152.5 -66.5q24 0 38 15t26 56h36v-475
h-43q-25 223 -153.5 356.5t-315.5 133.5q-222 0 -372 -194.5t-150 -493.5q0 -298 145 -490t361 -192q190 0 317 122.5t170 348.5z" />
    <glyph glyph-name="D" unicode="D" horiz-adv-x="1616" 
d="M113 0v49q91 4 120 28t29 120v55v995q0 72 -28.5 96t-120.5 29v49h192q108 0 265.5 5.5t205.5 5.5q354 0 557 -193.5t203 -529.5q0 -191 -74 -344t-211 -246q-95 -65 -241 -97t-344 -32q-53 0 -194 5t-230 5h-129zM471 227q0 -114 42.5 -154t158.5 -40q142 0 231 23
t162 75q119 84 183.5 235t64.5 343q0 186 -61.5 335t-174.5 238q-71 57 -164.5 82t-244.5 25q-118 0 -157.5 -33.5t-39.5 -153.5v-975z" />
    <glyph glyph-name="E" unicode="E" horiz-adv-x="1323" 
d="M113 0v47q95 3 122 23t27 112v27v1024q0 97 -25.5 118t-109.5 21h-14v49h1028l102 -325l-43 -17q-67 107 -110.5 158.5t-88.5 83.5q-41 29 -104 41t-217 12h-33h-176v-624q29 -1 55.5 -1.5t51.5 -0.5q185 0 251 54.5t86 207.5h35v-570h-35q-21 152 -86 206t-251 54h-107
v-499q0 -96 32 -125t136 -29h125q177 0 267 58.5t224 277.5l39 -12l-75 -371h-1106z" />
    <glyph glyph-name="F" unicode="F" horiz-adv-x="1241" 
d="M113 0v47q95 3 122 23t27 112v27v1024q0 97 -25.5 118t-109.5 21h-14v49h1028l102 -325l-43 -17q-74 116 -114 162t-82 74q-49 32 -116.5 45.5t-240.5 13.5h-176v-624h107q190 0 256 59t81 219h35v-616h-35q-13 167 -79 227.5t-258 60.5h-107v-528q0 -85 22 -105t111 -20
h35v-47h-526z" />
    <glyph glyph-name="G" unicode="G" horiz-adv-x="1505" 
d="M1126 506q0 79 -23.5 102t-98.5 23q-6 0 -21.5 -1t-24.5 -1v49h529v-51h-14q-86 0 -112 -21.5t-26 -126.5v-10v-311q-167 -96 -300.5 -139.5t-258.5 -43.5q-118 0 -226 38.5t-202 113.5q-132 107 -196 250.5t-64 335.5q0 160 54.5 297t158.5 237q100 97 225 148t262 51
q148 0 297.5 -66.5t155.5 -66.5q27 0 39.5 13t24.5 58h32l17 -401h-45q-27 188 -158 302t-317 114q-225 0 -376 -194.5t-151 -491.5q0 -304 139.5 -495t358.5 -191q138 0 229.5 91t91.5 234v154z" />
    <glyph glyph-name="H" unicode="H" horiz-adv-x="1677" 
d="M113 1421h526v-47h-41q-81 0 -104 -20.5t-23 -102.5v-493h735v493q0 119 -146 123h-22v47h529v-49h-15q-85 0 -111 -21t-26 -126v-11v-1067q0 -57 28 -77.5t107 -20.5h17v-49h-529v47h39q82 0 105.5 21.5t23.5 103.5v530h-735v-530q0 -121 153 -124q10 -1 15 -1v-47h-526
v49h14q84 0 109.5 21t25.5 120v19v1067q0 57 -26 76.5t-105 19.5h-18v49z" />
    <glyph glyph-name="I" unicode="I" horiz-adv-x="772" 
d="M659 1421v-47h-41q-80 0 -103 -21t-23 -102v-1079q0 -85 22 -105t111 -20h34v-47h-546v47h28q91 0 115.5 21.5t24.5 103.5v1079q0 84 -21 103.5t-108 19.5h-39v47h546z" />
    <glyph glyph-name="J" unicode="J" horiz-adv-x="764" 
d="M299 1214v11q0 104 -26.5 125.5t-110.5 21.5h-27v49h541v-49h-39q-75 0 -96 -20t-21 -101v-954q0 -143 -13 -229.5t-42 -155.5q-52 -120 -138.5 -184t-197.5 -64q-74 0 -118 34.5t-44 92.5q0 48 26.5 77.5t69.5 29.5q30 0 57.5 -18t47.5 -50q10 -16 24 -45q28 -59 54 -59
q28 0 40.5 31t12.5 100v1357z" />
    <glyph glyph-name="K" unicode="K" horiz-adv-x="1339" 
d="M653 1421v-47q-132 -2 -156 -21.5t-24 -101.5v-553l428 461q52 58 71 89.5t19 56.5q0 34 -36 50.5t-113 18.5v47h483v-47q-78 0 -154.5 -46.5t-216.5 -194.5l-274 -291l528 -686q3 -4 7 -9q70 -94 186 -100v-47h-326l-540 684l-62 -61v-451q0 -84 22 -104.5t105 -20.5h53
v-47h-540v47q95 3 122 23t27 112v27v1032q0 90 -27 110t-122 23v47h540z" />
    <glyph glyph-name="L" unicode="L" horiz-adv-x="1372" 
d="M113 0v49h14q84 0 109.5 21t25.5 120v19v1024q0 97 -25.5 118t-109.5 21h-14v49h540v-47q-119 -3 -150.5 -30.5t-31.5 -141.5v-1001q0 -96 32.5 -125t145.5 -29h135q191 0 297.5 75.5t249.5 334.5h45l-114 -457h-1149z" />
    <glyph glyph-name="M" unicode="M" horiz-adv-x="1886" 
d="M297 281q0 -131 34.5 -184.5t114.5 -53.5h43v-43h-430v43h41q76 0 110 55t34 181v1017q-11 44 -47.5 62.5t-120.5 22.5v40h350l537 -1147l491 1147h330v-49h-15q-85 0 -111 -21t-26 -126v-11v-1044q0 -74 22.5 -94t129.5 -33v-43h-529l1 43q102 3 134.5 25.5t32.5 103.5
v1057l-518 -1229h-43l-565 1210v-929z" />
    <glyph glyph-name="N" unicode="N" horiz-adv-x="1657" 
d="M154 1343q-21 17 -46.5 25.5t-56.5 10.5v42h320l991 -1104v867q0 110 -33.5 152t-111.5 42h-43v43h432v-43h-41q-77 0 -110.5 -41.5t-33.5 -152.5v-1200h-41l-1077 1226v-938q0 -121 34.5 -175t111.5 -54h43v-43h-433v43h41q77 0 110.5 50.5t33.5 178.5v1002z" />
    <glyph glyph-name="O" unicode="O" horiz-adv-x="1565" 
d="M305 696q0 -297 134.5 -484t342.5 -187q215 0 348.5 187.5t133.5 496.5q0 314 -131 501t-345 187q-215 0 -349 -192t-134 -509zM784 -25q-304 0 -500 208t-196 532q0 321 193.5 526t498.5 205q310 0 504.5 -205t194.5 -534q0 -326 -193.5 -529t-501.5 -203z" />
    <glyph glyph-name="P" unicode="P" horiz-adv-x="1241" 
d="M471 659h6q60 -4 88 -4q214 0 308 86t94 281q0 173 -87.5 264.5t-250.5 91.5q-88 0 -123 -31t-35 -112v-576zM471 172q0 -74 30.5 -98.5t149.5 -26.5v-47h-538v49h14q84 0 109.5 21t25.5 120v19v1067q0 51 -26.5 73.5t-88.5 22.5h-34v49q21 -1 42 -1.5t52 -0.5
q85 0 204 2t152 2q324 0 471.5 -96.5t147.5 -306.5q0 -216 -145.5 -316t-461.5 -100q-23 0 -49 0.5t-55 1.5v-434z" />
    <glyph glyph-name="Q" unicode="Q" horiz-adv-x="1565" 
d="M1358 -14q-37 -171 -129 -259.5t-232 -88.5q-99 0 -264 79q-13 6 -19 9l-162 78q-12 5 -21 7.5t-15 2.5q-31 0 -49 -17.5t-18 -48.5q0 -51 -13 -72.5t-41 -21.5q-26 0 -43.5 19.5t-17.5 50.5q0 45 31.5 77.5t123.5 73.5l230 100q-286 31 -458.5 232.5t-172.5 505.5
q0 319 192 526t484 207q324 0 519.5 -203t195.5 -536q0 -317 -179.5 -514.5t-486.5 -219.5q-68 -23 -129.5 -48.5t-120.5 -53.5l6 -12q33 15 66 22.5t67 7.5q29 0 61 -4.5t95 -19.5l109 -25q39 -8 66 -12t46 -4q82 0 137.5 38t98.5 124h43zM305 696q0 -297 134.5 -484
t342.5 -187q215 0 348.5 187.5t133.5 496.5q0 314 -131 503t-345 189q-215 0 -349 -193.5t-134 -511.5z" />
    <glyph glyph-name="R" unicode="R" horiz-adv-x="1360" 
d="M1038 0l-90 170q-126 241 -245 360t-232 119q-12 0 -18 -0.5t-10 -1.5l-1 -475q0 -72 31.5 -97.5t146.5 -27.5l1 -47h-539v49h14q85 0 111 21.5t26 128.5v10v1016q0 105 -25.5 126t-111.5 21h-14v49h111q27 0 119.5 1t158.5 1q378 0 530 -90t152 -301q0 -144 -79.5 -236
t-237.5 -130q124 -111 275 -384q42 -77 65 -114q41 -69 81.5 -94t106.5 -25h18v-49h-344zM442 690h6q60 -4 89 -4q207 0 303 85t96 269q0 163 -92 250.5t-262 87.5q-76 0 -108 -31t-32 -106v-551z" />
    <glyph glyph-name="S" unicode="S" horiz-adv-x="1114" 
d="M188 78l-65 -74h-27v438h45q14 -191 119 -301t272 -110q131 0 221.5 84.5t90.5 206.5q0 168 -302 279q-46 17 -69 26q-181 69 -258.5 163t-77.5 238q0 179 121.5 298.5t300.5 119.5q146 0 289 -89q38 -24 49 -24t26 10.5t33 30.5h29v-418h-41q-31 211 -125.5 325
t-236.5 114q-115 0 -194 -81.5t-79 -199.5q0 -110 61.5 -177t241.5 -132q245 -89 326.5 -178t81.5 -234q0 -183 -129.5 -299.5t-335.5 -116.5q-94 0 -185 25t-182 76z" />
    <glyph glyph-name="T" unicode="T" horiz-adv-x="1524" 
d="M866 172q0 -77 27 -102t100 -25q5 0 18.5 1t20.5 1v-47h-540v47h32q79 0 107 24.5t28 100.5v1200h-53q-42 0 -93 -1.5t-154 -6.5l-66 -4q-62 -4 -223 -247q-28 -42 -43 -64l-27 18l82 387q54 -17 113.5 -25t158.5 -8h31h784q100 0 160.5 8t114.5 25l82 -387l-27 -18
q-12 18 -35 52q-170 255 -234 259l-63 4q-103 5 -154 6.5t-93 1.5h-54v-1200z" />
    <glyph glyph-name="U" unicode="U" horiz-adv-x="1546" 
d="M250 608v633q0 90 -27 110t-122 23l-1 47h527v-47h-52q-75 0 -95.5 -21.5t-20.5 -101.5v-850q0 -165 105 -268.5t272 -103.5q212 0 315.5 131t103.5 399v625q0 111 -32.5 150.5t-112.5 39.5h-43v47h418v-47h-37q-73 0 -103 -39.5t-30 -150.5v-647q0 -283 -131.5 -422.5
t-399.5 -139.5q-174 0 -297.5 58t-175.5 164q-33 67 -47 153.5t-14 257.5z" />
    <glyph glyph-name="V" unicode="V" horiz-adv-x="1231" 
d="M610 -29l-528 1323q-15 37 -35 55t-49 21l-61 4v47h555v-47l-64 -4q-65 -5 -90 -22t-25 -54q0 -15 4 -32t13 -37l372 -942l337 914q9 26 13.5 46.5t4.5 36.5q0 50 -38 71t-136 23v47h454v-47l-45 -8q-78 -14 -113 -49.5t-73 -136.5l-455 -1209h-41z" />
    <glyph glyph-name="W" unicode="W" horiz-adv-x="1774" 
d="M72 1294q-13 36 -33 53t-51 21l-54 6v47h545v-49l-61 -6q-74 -6 -94.5 -21.5t-20.5 -50.5q0 -20 15 -64q1 -4 1 -5l338 -936l252 741l-102 264q-15 36 -36.5 54.5t-49.5 19.5l-76 4v49h569v-49l-74 -4q-53 -3 -78.5 -21t-25.5 -55q0 -15 13 -55q3 -9 4 -13l301 -935
l227 805q3 11 10 33q27 94 27 133q0 58 -36.5 84t-122.5 28l-1 49h438v-47l-55 -10q-67 -15 -100 -53.5t-62 -130.5l-370 -1209h-37l-334 969l-328 -969h-41z" />
    <glyph glyph-name="X" unicode="X" horiz-adv-x="1339" 
d="M-47 0v47q82 5 135 34.5t129 129.5l361 467l-404 584q-45 64 -92 88t-129 24v47h612v-47l-88 -6q-38 -3 -58 -15.5t-20 -33.5q0 -18 18.5 -52t82.5 -126l219 -318l155 191q99 121 137 181t38 91q0 43 -35 63t-123 26v46h491v-47q-135 0 -259 -149l-7 -9l-362 -444
l381 -566l2 -3q103 -152 245 -156v-47h-606v47q115 6 142.5 19t27.5 45q0 12 -10.5 33.5t-40.5 66.5l-283 418l-163 -219q-120 -163 -153.5 -219.5t-33.5 -84.5q0 -27 37 -40t143 -19v-47h-489z" />
    <glyph glyph-name="Y" unicode="Y" horiz-adv-x="1059" 
d="M643 209v-16q0 -101 27.5 -122.5t124.5 -21.5v-49h-514v49h14q85 0 111 21.5t26 128.5v10v434l-362 631q-32 55 -64.5 76.5t-83.5 24.5v46h510v-46q-79 -3 -110 -17t-31 -47q0 -11 4.5 -23.5t13.5 -25.5l309 -529l246 424q34 58 47 89.5t13 53.5q0 40 -26.5 57.5
t-96.5 23.5v40h362v-47q-110 -7 -200 -162q-8 -14 -13 -22l-307 -512v-469z" />
    <glyph glyph-name="Z" unicode="Z" horiz-adv-x="1311" 
d="M-6 0l964 1372q-32 4 -67 6t-98 2h-185q-133 0 -207 -44.5t-239 -268.5l-45 -61l-37 14l137 401h1012l-955 -1374h197q242 0 351.5 12.5t144.5 40.5q50 44 122 139t144 216h37l-137 -455h-1139z" />
    <glyph glyph-name="bracketleft" unicode="[" horiz-adv-x="829" 
d="M285 1421h372v-51h-90q-75 0 -99 -19t-24 -100v-37v-1361q0 -83 24.5 -102t98.5 -19h90v-51h-372v1740z" />
    <glyph glyph-name="backslash" unicode="\" horiz-adv-x="567" 
d="M485 -190l-499 1636h114l502 -1636h-117z" />
    <glyph glyph-name="bracketright" unicode="]" horiz-adv-x="829" 
d="M545 1421v-1740h-373v51h90q74 0 98.5 19t24.5 102v36v1362q0 81 -24 100t-99 19h-90v51h373z" />
    <glyph glyph-name="asciicircum" unicode="^" horiz-adv-x="2048" 
d="M934 1462h178l520 -565h-92l-518 436l-520 -436h-90z" />
    <glyph glyph-name="underscore" unicode="_" 
d="M0 -365h1024v-118h-1024v118z" />
    <glyph glyph-name="grave" unicode="`" 
d="M688 1030h-67l-330 205q-31 20 -46.5 41t-15.5 43q0 30 21 50t53 20q21 0 43 -13.5t53 -46.5z" />
    <glyph glyph-name="a" unicode="a" horiz-adv-x="879" 
d="M551 172v309q-189 -72 -260.5 -126.5t-71.5 -121.5q0 -62 44.5 -102.5t111.5 -40.5q38 0 76.5 17.5t99.5 64.5zM545 121q-76 -72 -144 -108t-131 -36q-86 0 -139 50.5t-53 132.5q0 110 101 191t378 181v205q0 64 -27.5 93.5t-87.5 29.5q-75 0 -130.5 -33t-55.5 -82
q0 -92 -23 -129.5t-77 -37.5q-36 0 -57 20t-21 55q0 84 143 176.5t287 92.5q113 0 160 -57.5t47 -241.5v-494q0 -26 11 -40.5t30 -14.5q22 0 36 18.5t17 50.5h39q-9 -78 -50.5 -119.5t-111.5 -41.5q-61 0 -98 36t-43 103z" />
    <glyph glyph-name="b" unicode="b" horiz-adv-x="1087" 
d="M326 731v-430q0 -149 53 -212.5t172 -63.5q128 0 209.5 119t81.5 307q0 177 -81 284t-212 107q-63 0 -118.5 -27.5t-104.5 -83.5zM170 1167q0 66 -19 95t-75 51v24q60 18 119 42.5t116 56.5h15v-639q80 64 151.5 91t153.5 27q170 0 275.5 -123.5t105.5 -324.5
q0 -218 -125.5 -351.5t-329.5 -133.5q-127 0 -270 52q-35 13 -43 13q-6 0 -11.5 -5t-11.5 -15l-22 -43h-29v1183z" />
    <glyph glyph-name="c" unicode="c" horiz-adv-x="909" 
d="M850 268q-60 -140 -156 -215.5t-215 -75.5q-172 0 -287.5 133t-115.5 336q0 205 122.5 340.5t307.5 135.5q131 0 229.5 -70.5t98.5 -161.5q0 -30 -23.5 -52t-54.5 -22q-61 0 -91 118q-4 15 -6 22q-17 64 -48.5 91t-86.5 27q-123 0 -203.5 -104t-80.5 -264q0 -178 90 -294
t223 -116q84 0 151 47t115 140z" />
    <glyph glyph-name="d" unicode="d" horiz-adv-x="1114" 
d="M770 174v330q0 181 -60.5 272.5t-181.5 91.5t-195.5 -109.5t-74.5 -287.5q0 -169 87 -280t216 -111q61 0 113 23.5t96 70.5zM770 1167q0 72 -23 100.5t-85 41.5v26q66 19 128 44t121 57h19v-1266q0 -35 15.5 -51t78.5 -33v-23q-79 -23 -133.5 -41.5t-99.5 -35.5h-19v135
q-65 -73 -138.5 -109.5t-154.5 -36.5q-164 0 -276.5 134t-112.5 333q0 217 120.5 345t319.5 128q50 0 109 -10.5t131 -32.5v295z" />
    <glyph glyph-name="e" unicode="e" horiz-adv-x="995" 
d="M618 662q36 0 53 15t17 46q0 65 -53.5 108t-136.5 43q-90 0 -155.5 -56t-92.5 -156h368zM864 608h-622q-8 -58 -11.5 -92t-3.5 -59q0 -152 100 -252.5t248 -100.5q108 0 192 57.5t122 155.5l39 -12q-49 -154 -163.5 -243t-264.5 -89q-183 0 -304.5 127.5t-121.5 321.5
q0 226 122.5 362t329.5 136q148 0 261.5 -87t113.5 -184q0 -22 -8 -31.5t-29 -9.5z" />
    <glyph glyph-name="f" unicode="f" horiz-adv-x="662" 
d="M383 158q0 -79 24.5 -99t94.5 -20h41v-39h-445l1 39q83 3 106.5 24t23.5 127v590h-147l22 84h125v86q0 227 98 356.5t265 129.5q95 0 156 -47t61 -115q0 -37 -21.5 -59.5t-58.5 -22.5q-34 0 -55 15t-41 55q-33 64 -57 83t-60 19q-74 0 -103.5 -66t-29.5 -294v-140h223
l-24 -84h-199v-622z" />
    <glyph glyph-name="g" unicode="g" horiz-adv-x="965" 
d="M272 -39q-46 -28 -71 -71.5t-25 -98.5q0 -98 73.5 -148.5t217.5 -50.5q195 0 293 48t98 143q0 80 -58 116t-190 38h-172q-62 0 -97 5.5t-69 18.5zM471 365q83 0 129.5 67t46.5 186q0 120 -47 188t-129 68q-84 0 -131 -67.5t-47 -188.5q0 -119 47 -186t131 -67zM309 340
q-44 -24 -65 -54.5t-21 -70.5q0 -66 57.5 -93.5t223.5 -29.5l111 -2q177 -3 263.5 -64t86.5 -184q0 -147 -127.5 -222t-380.5 -75q-196 0 -301 56.5t-105 160.5q0 69 46 123.5t141 98.5q-58 34 -85.5 74t-27.5 89q0 57 36 108.5t113 104.5q-66 47 -99.5 109.5t-33.5 140.5
q0 136 89.5 223t230.5 87q78 0 139.5 -20t122.5 -64q38 32 76.5 49.5t70.5 17.5q41 0 64.5 -21t23.5 -57q0 -23 -16.5 -40t-40.5 -17q-22 0 -58 25.5t-59 25.5q-12 0 -21.5 -2t-19.5 -6q32 -49 47 -95.5t15 -97.5q0 -135 -92.5 -219t-241.5 -84q-34 0 -73 6t-89 19z" />
    <glyph glyph-name="h" unicode="h" horiz-adv-x="1104" 
d="M82 0v38q67 3 90 27t23 125v977q0 67 -19 94.5t-76 51.5v24q61 18 119.5 42.5t116.5 56.5h12v-678q71 86 139.5 125t151.5 39q149 0 219 -101t70 -317v-363q0 -70 15.5 -83.5t96.5 -18.5v-39h-372v39q62 1 84 21t22 106v10v334q0 181 -44.5 250t-149.5 69
q-73 0 -131 -36.5t-101 -108.5v-526q0 -80 22 -99.5t91 -19.5v-39h-379z" />
    <glyph glyph-name="i" unicode="i" horiz-adv-x="561" 
d="M166 1329q0 46 30 76.5t76 30.5q45 0 76 -31t31 -76q0 -42 -32 -74t-75 -32t-74.5 31.5t-31.5 74.5zM365 920v-762q0 -80 22 -99.5t90 -19.5v-39h-387l1 39q68 3 89 27t21 124v461q0 67 -19 94.5t-76 51.5v24q61 18 119.5 42.5t116.5 56.5h23z" />
    <glyph glyph-name="j" unicode="j" horiz-adv-x="514" 
d="M152 1329q0 46 30 76.5t76 30.5q45 0 77 -31.5t32 -75.5q0 -42 -33 -74t-76 -32t-74.5 31.5t-31.5 74.5zM346 920v-889q0 -227 -77.5 -352t-215.5 -125q-65 0 -107 30.5t-42 77.5q0 36 21 56t59 20q48 0 93 -57.5t60 -57.5q29 0 40 33.5t11 128.5v866q0 66 -19 93t-77 53
v24q61 18 119.5 42.5t116.5 56.5h18z" />
    <glyph glyph-name="k" unicode="k" horiz-adv-x="1067" 
d="M80 0v39q73 3 93 27t20 124v977q0 69 -19.5 95t-75.5 51v24q61 18 119.5 42.5t116.5 56.5h14v-928l295 225q21 17 34 35t13 31q0 30 -74 42q-16 3 -27 5l-65 12v37h455v-37q-131 -29 -223 -101q-3 -2 -4 -3l-203 -158l342 -434q51 -66 97.5 -94.5t101.5 -28.5v-39h-463
v39l51 6q30 5 44.5 15.5t14.5 27.5q0 9 -3.5 16.5t-10.5 16.5l-293 389l-82 -64v-288q0 -81 21.5 -100t89.5 -19v-39h-379z" />
    <glyph glyph-name="l" unicode="l" horiz-adv-x="555" 
d="M358 158q0 -81 22 -100t89 -19v-39h-379l1 39q69 3 90.5 27t21.5 124v977q0 69 -19.5 95t-74.5 51v24q60 18 118.5 42.5t116.5 56.5h14v-1278z" />
    <glyph glyph-name="m" unicode="m" horiz-adv-x="1663" 
d="M94 0l1 39q68 3 89 28.5t21 122.5v461q0 65 -19 93t-77 53v24q60 18 118.5 42.5t116.5 56.5h10v-162q71 89 138 126.5t157 37.5q97 0 165.5 -49.5t94.5 -137.5q69 99 138.5 143t156.5 44q83 0 148 -41t104 -117q18 -33 25.5 -75.5t7.5 -127.5v-57v-385q0 -45 22 -61.5
t88 -18.5v-39h-364v38q62 2 82 22.5t20 115.5v375q0 149 -45.5 212.5t-150.5 63.5q-67 0 -124.5 -41t-94.5 -116v-551q0 -45 22 -61.5t90 -18.5v-39h-366v39h8q56 0 76 25.5t20 111.5v377q0 146 -47 210t-152 64q-66 0 -123 -40.5t-96 -116.5v-512q0 -79 22 -99t89 -20v-39
h-371z" />
    <glyph glyph-name="n" unicode="n" horiz-adv-x="1114" 
d="M90 39q80 6 96.5 23.5t16.5 103.5v24l-2 461q0 67 -19 94.5t-76 51.5v24q64 20 121.5 44t114.5 55h18l-4 -162q77 90 143.5 127t147.5 37q149 0 218 -100t69 -318v-389q0 -43 16.5 -57t97.5 -19l1 -39h-375v39q73 5 89.5 17.5t16.5 58.5v61v377q0 142 -47 209t-147 67
q-72 0 -129 -36t-101 -109v-526q0 -82 22 -100.5t89 -18.5v-39h-377v39z" />
    <glyph glyph-name="o" unicode="o" horiz-adv-x="983" 
d="M492 25q116 0 182.5 113t66.5 311q0 199 -66 310t-183 111t-183.5 -112t-66.5 -309q0 -200 66.5 -312t183.5 -112zM913 449q0 -213 -116.5 -343.5t-304.5 -130.5q-189 0 -304.5 130t-115.5 344q0 213 115 342t305 129q189 0 305 -129.5t116 -341.5z" />
    <glyph glyph-name="p" unicode="p" horiz-adv-x="1114" 
d="M346 766v-346q0 -218 51.5 -304.5t171.5 -86.5q124 0 209.5 110.5t85.5 276.5q0 184 -94 304t-233 120q-49 0 -94 -17.5t-97 -56.5zM346 -283q0 -75 26.5 -97.5t125.5 -22.5v-37h-420v37q74 4 93 19.5t19 78.5v55v901q0 65 -19 93t-77 53v24q61 18 119.5 42.5t116.5 56.5
h16v-103q66 49 133.5 72.5t141.5 23.5q184 0 294.5 -121t110.5 -325q0 -209 -137.5 -349.5t-343.5 -140.5q-50 0 -98.5 8.5t-100.5 26.5v-295z" />
    <glyph glyph-name="q" unicode="q" horiz-adv-x="1112" 
d="M954 -250v-74q0 -38 29.5 -58.5t83.5 -20.5v-37h-420v37q99 0 125.5 22.5t26.5 97.5v373q-81 -55 -153 -80.5t-142 -25.5q-174 0 -282.5 122t-108.5 322q0 225 127 357.5t344 132.5q84 0 176.5 -24t101.5 -24q14 0 25.5 3.5t15.5 9.5l31 32h20v-1165zM799 172v451
q0 162 -46 206.5t-161 44.5q-134 0 -216.5 -117.5t-82.5 -307.5q0 -178 79 -285t208 -107q70 0 124.5 29t94.5 86z" />
    <glyph glyph-name="r" unicode="r" horiz-adv-x="688" 
d="M91 39q70 3 91 27.5t21 123.5v461q0 67 -20 94t-77 52v24q69 23 127 47t109 52h14v-148q47 74 103 114t112 40q49 0 77 -27t28 -74q0 -33 -20 -54t-50 -21q-21 0 -64.5 17t-68.5 17q-36 0 -68.5 -24t-48.5 -64v-538q0 -82 24.5 -100.5t119.5 -18.5v-39h-410z" />
    <glyph glyph-name="s" unicode="s" horiz-adv-x="793" 
d="M102 45v252h41q29 -146 81 -210t138 -64q79 0 129 51.5t50 130.5q0 60 -36 104t-140 99q-164 83 -208 137.5t-44 132.5q0 106 80.5 174t209.5 68q65 0 127.5 -17.5t122.5 -52.5v-217h-41q-14 112 -76 180t-147 68q-68 0 -109.5 -36t-41.5 -95q0 -85 126 -154q9 -5 15 -8
q16 -9 50 -27q263 -141 263 -299q0 -125 -96 -205t-246 -80q-65 0 -127.5 17.5t-120.5 50.5z" />
    <glyph glyph-name="t" unicode="t" horiz-adv-x="756" 
d="M221 793h-115v20q71 52 134 109.5t120 121.5h17v-149h301l-53 -102h-248v-523q0 -103 32.5 -146.5t106.5 -43.5q36 0 78.5 21t83.5 59l18 -23q-50 -76 -118.5 -116.5t-147.5 -40.5q-114 0 -161.5 64t-47.5 269v480z" />
    <glyph glyph-name="u" unicode="u" horiz-adv-x="1102" 
d="M915 895v-694q0 -66 17.5 -81.5t77.5 -19.5v-24q-53 -18 -110.5 -40t-125.5 -50h-14v153q-75 -92 -140.5 -128t-152.5 -36t-153 40t-99 112q-18 39 -25.5 87.5t-7.5 145.5v33v383q0 47 -20 62.5t-94 19.5v37h268v-512q0 -187 45 -251t156 -64q67 0 125.5 41.5t97.5 117.5
v510q0 77 -20 99t-81 22h-10v37h266z" />
    <glyph glyph-name="v" unicode="v" horiz-adv-x="936" 
d="M422 -18l-295 784q-19 50 -45.5 67.5t-83.5 20.5v41h416v-41h-23q-60 0 -84 -10.5t-24 -34.5q0 -7 4 -23t12 -41l207 -559l246 559q6 16 9 29.5t3 26.5q0 21 -17 33.5t-51 15.5l-53 4v41h303v-41q-91 -10 -154 -152q-9 -20 -14 -31l-311 -689h-45z" />
    <glyph glyph-name="w" unicode="w" horiz-adv-x="1417" 
d="M135 748q-24 63 -50 83.5t-79 23.5v40h395v-41l-61 -4q-29 -2 -44 -12.5t-15 -28.5q0 -11 3.5 -26t12.5 -38l215 -555l186 482l-28 76q-23 58 -52 81.5t-77 24.5v41h379v-41l-47 -4q-28 -2 -43 -13t-15 -28q0 -9 3.5 -23.5t10.5 -40.5l179 -542l206 542q7 16 10 29.5
t3 26.5q0 21 -15 33t-47 16l-49 4v41h289v-40q-57 -8 -85.5 -30.5t-53.5 -89.5l-297 -753h-41l-207 618l-246 -618h-43z" />
    <glyph glyph-name="x" unicode="x" horiz-adv-x="969" 
d="M23 0v39h6q67 0 114 28t127 138l170 229l-262 354q-21 28 -47 44t-57 20l-37 6v37h414v-37l-35 -4q-28 -3 -39.5 -10.5t-11.5 -22.5q0 -10 3 -19.5t13 -25.5l158 -223l145 209q6 9 12 27.5t6 27.5q0 22 -21.5 31.5t-76.5 9.5h-26v37h364v-37q-116 0 -200 -112l-7 -9
l-166 -219l250 -364q47 -68 83.5 -89.5t94.5 -25.5v-39h-477v39l68 4q40 3 59 15t19 34q0 12 -8 28t-33 52l-158 219l-150 -213q-30 -45 -39.5 -64.5t-9.5 -33.5q0 -21 22.5 -31t69.5 -10h29v-39h-366z" />
    <glyph glyph-name="y" unicode="y" horiz-adv-x="934" 
d="M-24 858l-1 37h437v-37l-49 -4q-55 -3 -76 -15t-21 -38q0 -8 4 -19t13 -27l286 -538l172 514q5 15 8 31t3 31q0 37 -29.5 51t-118.5 14v37h346v-37q-65 -6 -93 -26.5t-56 -98.5l-334 -944l-2 -6q-79 -225 -184 -225q-41 0 -64.5 24.5t-23.5 65.5q0 34 23.5 57t59.5 23
q11 0 34.5 -5.5t35.5 -5.5q26 0 42 13.5t28 46.5l86 246l-396 725q-35 65 -62 86t-68 24z" />
    <glyph glyph-name="z" unicode="z" horiz-adv-x="913" 
d="M57 0v12l553 842h-176h-18q-139 0 -189 -39.5t-112 -159.5l-43 9l67 231h680v-12l-551 -838h193q120 0 162.5 8t60.5 29q32 35 71 93t72 122l31 -14l-63 -283h-738z" />
    <glyph glyph-name="braceleft" unicode="{" 
d="M846 1516v-51q-142 -2 -194 -55.5t-52 -209.5v-143q0 -226 -61 -308.5t-226 -113.5q165 -31 226 -113.5t61 -308.5v-143q0 -156 51.5 -208.5t194.5 -54.5v-51h-10q-217 0 -298 73.5t-81 272.5v213q0 158 -59 218t-222 73v60q165 15 223 74t58 216v213q0 200 81 273.5
t298 73.5h10z" />
    <glyph glyph-name="bar" unicode="|" 
d="M449 1565h126v-2048h-126v2048z" />
    <glyph glyph-name="braceright" unicode="}" 
d="M178 1516h10q216 0 297.5 -74t81.5 -273v-213q0 -157 58 -216t223 -74v-60q-163 -13 -222 -73t-59 -218v-213q0 -198 -81.5 -272t-297.5 -74h-10v51q143 2 194.5 54.5t51.5 208.5v143q0 226 61 308.5t226 113.5q-165 31 -226 113.5t-61 308.5v143q0 156 -52 209.5
t-194 55.5v51z" />
    <glyph glyph-name="asciitilde" unicode="~" horiz-adv-x="1706" 
d="M1530 758v-131q-101 -72 -197.5 -108t-189.5 -36q-43 0 -90.5 9t-100.5 26q-30 10 -87 31q-202 72 -302 72q-83 0 -173.5 -37.5t-211.5 -122.5v133q105 73 202 109t185 36q56 0 116.5 -12.5t174.5 -52.5q12 -4 35 -13q164 -59 254 -59q85 0 176 36.5t209 119.5z" />
    <glyph glyph-name="uni0080" horiz-adv-x="1034" 
d="M14 791l19 49h119q29 259 150 405t302 146q124 0 252 -104q36 -30 47 -30q17 0 25.5 14.5t17.5 57.5h41v-411h-49q-28 192 -120.5 310t-213.5 118q-124 0 -189 -123.5t-79 -382.5h559l-16 -49h-545q0 -18 -1 -53t-1 -54q0 -17 1 -46.5t1 -43.5h473l-19 -49h-452
q12 -272 76.5 -398.5t191.5 -126.5q121 0 208.5 110.5t123.5 309.5h49v-407h-39l-12 39q-1 3 -3 11q-10 40 -30 40q-6 0 -32 -26q-125 -122 -265 -122q-187 0 -307.5 151.5t-146.5 418.5h-136l19 49h114q-2 33 -3 52.5t-1 35.5q0 20 1 43t3 65z" />
    <glyph glyph-name="uni0080" unicode="&#x20ac;" horiz-adv-x="1034" 
d="M14 791l19 49h119q29 259 150 405t302 146q124 0 252 -104q36 -30 47 -30q17 0 25.5 14.5t17.5 57.5h41v-411h-49q-28 192 -120.5 310t-213.5 118q-124 0 -189 -123.5t-79 -382.5h559l-16 -49h-545q0 -18 -1 -53t-1 -54q0 -17 1 -46.5t1 -43.5h473l-19 -49h-452
q12 -272 76.5 -398.5t191.5 -126.5q121 0 208.5 110.5t123.5 309.5h49v-407h-39l-12 39q-1 3 -3 11q-10 40 -30 40q-6 0 -32 -26q-125 -122 -265 -122q-187 0 -307.5 151.5t-146.5 418.5h-136l19 49h114q-2 33 -3 52.5t-1 35.5q0 20 1 43t3 65z" />
    <glyph glyph-name="uni00A0" unicode="&#xa0;" horiz-adv-x="1034" 
 />
    <glyph glyph-name="exclamdown" unicode="&#xa1;" horiz-adv-x="598" 
d="M281 1081h34l78 -888q1 -14 2.5 -36.5t1.5 -27.5q0 -70 -27 -112t-73 -42q-44 0 -71 42t-27 112q0 12 3 49q0 9 1 15zM420 1325q0 -52 -34.5 -86.5t-86.5 -34.5q-51 0 -87 35.5t-36 85.5q0 49 37 85t86 36q50 0 85.5 -35.5t35.5 -85.5z" />
    <glyph glyph-name="cent" unicode="&#xa2;" horiz-adv-x="1034" 
d="M516 135v748q-97 -37 -152 -133t-55 -228q0 -139 54 -239t153 -148zM920 287q-51 -123 -129.5 -193.5t-192.5 -95.5v-260h-82v258q-170 20 -271.5 148t-101.5 321q0 186 104 316.5t269 152.5v242h82v-236q137 -17 221 -82t84 -149q0 -30 -23 -53t-55 -23q-63 0 -91 113
q-11 44 -19 65q-16 38 -44 58.5t-73 24.5v-779q9 -1 18.5 -1.5t22.5 -0.5q67 0 134.5 50t113.5 136z" />
    <glyph glyph-name="sterling" unicode="&#xa3;" horiz-adv-x="1034" 
d="M483 285q11 30 15 47t4 30q0 57 -34.5 120t-111.5 145q-9 0 -27 1t-26 1q-44 0 -93 -3.5t-105 -10.5l25 104q35 -3 51.5 -3.5t31.5 -0.5q18 0 38.5 0.5t43.5 1.5q-71 80 -109.5 165.5t-38.5 164.5q0 147 106 246.5t263 99.5q133 0 229.5 -72t96.5 -158q0 -33 -21.5 -55.5
t-52.5 -22.5q-32 0 -52 24.5t-36 88.5q-23 84 -60 118t-106 34q-87 0 -148 -64t-61 -162q0 -118 158 -313q46 -57 70 -88q45 1 109 5t167 11l-43 -116q-6 0 -18 1q-117 7 -170 7q15 -42 22.5 -83t7.5 -87q0 -54 -14 -111.5t-43 -122.5q34 -42 73 -63t83 -21q80 0 131 66
t94 229l43 -14q-35 -239 -104 -346t-185 -107q-53 0 -106.5 34t-110.5 104q-44 -69 -93 -100.5t-114 -31.5q-88 0 -143.5 58t-55.5 149q0 87 59 144t148 57q53 0 99 -20.5t114 -79.5zM426 150q-31 61 -77.5 97t-94.5 36q-52 0 -87.5 -34.5t-35.5 -84.5q0 -54 39 -90.5
t96 -36.5q45 0 82 26t78 87z" />
    <glyph glyph-name="currency" unicode="&#xa4;" horiz-adv-x="1034" 
d="M14 791l19 49h119q29 259 150 405t302 146q124 0 252 -104q36 -30 47 -30q17 0 25.5 14.5t17.5 57.5h41v-411h-49q-28 192 -120.5 310t-213.5 118q-124 0 -189 -123.5t-79 -382.5h559l-16 -49h-545q0 -18 -1 -53t-1 -54q0 -17 1 -46.5t1 -43.5h473l-19 -49h-452
q12 -272 76.5 -398.5t191.5 -126.5q121 0 208.5 110.5t123.5 309.5h49v-407h-39l-12 39q-1 3 -3 11q-10 40 -30 40q-6 0 -32 -26q-125 -122 -265 -122q-187 0 -307.5 151.5t-146.5 418.5h-136l19 49h114q-2 33 -3 52.5t-1 35.5q0 20 1 43t3 65z" />
    <glyph glyph-name="yen" unicode="&#xa5;" horiz-adv-x="1133" 
d="M625 682l245 420q34 58 47 89t13 52q0 40 -27 57.5t-96 22.5v41h362v-45q-109 -8 -198 -158q-10 -17 -15 -25l-157 -259h317v-50h-348l-119 -196h467v-49h-467v-394q0 -99 27.5 -119t124.5 -20v-49h-477v49h14q84 0 109.5 21t25.5 118v19v375h-442v49h422l-113 196h-309
v50h278l-198 342q-33 54 -66 76t-81 24l-1 45h494l-1 -45q-76 -2 -108.5 -17t-32.5 -49q0 -8 3.5 -18.5t13.5 -30.5z" />
    <glyph glyph-name="brokenbar" unicode="&#xa6;" 
d="M449 408h126v-758h-126v758zM449 1432h126v-758h-126v758z" />
    <glyph glyph-name="section" unicode="&#xa7;" 
d="M250 696q0 -38 26.5 -82.5t85.5 -105.5q91 -90 146.5 -126t101.5 -36q70 0 116 43.5t46 108.5q0 49 -34.5 103t-110.5 122q-90 81 -131.5 104t-81.5 23q-70 0 -117 -44.5t-47 -109.5zM592 301q101 -80 150 -153.5t49 -147.5q0 -107 -88 -179.5t-222 -72.5
q-122 0 -204 60.5t-82 144.5q0 52 28 82.5t76 30.5q38 0 64 -25t26 -61q0 -38 -32.5 -72.5t-32.5 -44.5q0 -30 43 -50t112 -20q85 0 137 43.5t52 112.5q0 53 -39.5 110t-136.5 140l-181 155q-89 77 -132.5 147t-43.5 138q0 108 77.5 180t195.5 72h20q-108 90 -151.5 158
t-43.5 141q0 108 82 182t205 74q120 0 197.5 -59.5t77.5 -147.5q0 -49 -28.5 -79t-76.5 -30q-39 0 -64.5 22.5t-25.5 55.5q0 32 33 70.5t33 52.5q0 26 -42.5 48t-99.5 22q-74 0 -121 -44t-47 -112q0 -55 38 -111t143 -145l178 -151q90 -76 132 -146t42 -143
q0 -66 -32.5 -121.5t-90.5 -89.5q-36 -20 -71.5 -29.5t-71.5 -9.5q-6 0 -16 1t-15 1z" />
    <glyph glyph-name="dieresis" unicode="&#xa8;" 
d="M588 1186q0 40 30 70t70 30t69 -30t29 -70q0 -43 -28 -72t-70 -29t-71 29t-29 72zM238 1186q0 40 29 70t69 30t70 -30t30 -70q0 -43 -29 -72t-71 -29t-70 29t-28 72z" />
    <glyph glyph-name="copyright" unicode="&#xa9;" horiz-adv-x="1683" 
d="M1120 1096h35l2 -314h-41q-34 137 -104 206t-176 69q-123 0 -185.5 -94.5t-62.5 -278.5q0 -189 67 -285t199 -96q86 0 156 43t127 131l34 -24q-58 -105 -143 -157t-199 -52q-167 0 -285 123t-118 297q0 186 116 312t285 126q74 0 148 -34t82 -34q27 0 42 14.5t21 47.5z
M844 1303q-123 0 -237.5 -48.5t-200.5 -136.5q-88 -89 -134.5 -202.5t-46.5 -237.5q0 -125 47 -238.5t136 -201.5q88 -89 198.5 -135t235.5 -46q126 0 236.5 46t197.5 135q88 90 135 203t47 237t-47.5 240.5t-132.5 201.5q-86 87 -200.5 135t-233.5 48zM844 1382
q137 0 266.5 -53.5t226.5 -150.5q98 -97 152.5 -228.5t54.5 -271.5t-53 -268t-154 -230q-98 -100 -225 -152.5t-270 -52.5t-269 52.5t-227 152.5t-154 227t-53 271q0 140 53 268.5t152 229.5q98 99 228 152.5t272 53.5z" />
    <glyph glyph-name="ordfeminine" unicode="&#xaa;" horiz-adv-x="659" 
d="M414 915v218q-142 -52 -196 -90.5t-54 -84.5q0 -43 33 -71.5t84 -28.5q30 0 59.5 12.5t73.5 44.5zM409 878q-56 -50 -107.5 -75t-98.5 -25q-64 0 -104 36t-40 93q0 77 74.5 133t284.5 127v144q0 44 -21 65t-65 21q-57 0 -98 -23t-41 -57q0 -66 -17.5 -92.5t-58.5 -26.5
q-27 0 -42.5 14.5t-15.5 38.5q0 59 107 124t215 65q85 0 120.5 -40t35.5 -169v-346q0 -18 8 -28.5t22 -10.5q16 0 26.5 13t13.5 36h30q-8 -55 -39.5 -84t-83.5 -29q-45 0 -72 25t-33 71z" />
    <glyph glyph-name="guillemotleft" unicode="&#xab;" horiz-adv-x="1036" 
d="M821 166l-28 31q-75 77 -146 141.5t-147 124.5q79 63 152 129t141 137l28 31q5 4 13.5 7t17.5 3q11 0 14.5 -4t3.5 -16q0 -13 -18.5 -44t-93.5 -137l-78 -106l78 -107q75 -105 93.5 -136t18.5 -44q0 -12 -4.5 -17t-15.5 -5q-8 0 -15.5 3t-13.5 9zM477 166l-28 31
q-75 77 -146 141.5t-147 124.5q79 63 152 129t141 137l28 31q5 4 13.5 7t17.5 3q10 0 14 -4t4 -16q0 -13 -18.5 -44t-93.5 -137l-78 -106l78 -107q75 -105 93.5 -136t18.5 -44t-4 -17.5t-14 -4.5q-8 0 -16.5 3t-14.5 9z" />
    <glyph glyph-name="logicalnot" unicode="&#xac;" horiz-adv-x="1706" 
d="M254 858h1198v-502h-115v385h-1083v117z" />
    <glyph glyph-name="uni00AD" unicode="&#xad;" horiz-adv-x="674" 
d="M84 379v137h504v-137h-504z" />
    <glyph glyph-name="registered" unicode="&#xae;" horiz-adv-x="1683" 
d="M729 719q16 -1 32 -1.5t34 -0.5q112 0 173.5 45.5t61.5 128.5q0 73 -53 117.5t-143 44.5q-52 0 -78.5 -18.5t-26.5 -53.5v-262zM469 1092h393q147 0 232.5 -54.5t85.5 -146.5q0 -76 -69.5 -124t-217.5 -75q93 -29 142 -77.5t71 -133.5q6 -22 11 -63q13 -88 59 -88
q32 0 49.5 34t17.5 99h43v-12q0 -88 -40.5 -133.5t-119.5 -45.5q-46 0 -78.5 17t-48.5 49q-18 40 -21 113.5t-9 95.5q-20 68 -70.5 100.5t-136.5 32.5h-33v-248q0 -54 26.5 -75.5t98.5 -25.5v-40h-385v40q72 3 99.5 24.5t27.5 76.5v516q0 55 -26 76t-101 25v43zM844 1303
q-122 0 -236 -48t-202 -137t-134.5 -202.5t-46.5 -237.5q0 -127 46.5 -239t136.5 -201q88 -89 198.5 -135t235.5 -46q126 0 236.5 46t197.5 135q88 90 135 203t47 237t-47.5 241.5t-132.5 200.5q-86 87 -200.5 135t-233.5 48zM844 1382q138 0 268.5 -54t228.5 -152
q97 -97 150 -228t53 -272q0 -137 -55.5 -267.5t-157.5 -232.5q-99 -99 -224.5 -150t-270.5 -51q-137 0 -263 52.5t-227 152.5t-154 227t-53 271q0 140 53 268.5t152 229.5q98 99 228 152.5t272 53.5z" />
    <glyph glyph-name="macron" unicode="&#xaf;" 
d="M254 1122v125h516v-125h-516z" />
    <glyph glyph-name="degree" unicode="&#xb0;" horiz-adv-x="674" 
d="M338 1372q-84 0 -143.5 -58.5t-59.5 -142.5t59.5 -143t143.5 -59t142.5 59t58.5 143t-58.5 142.5t-142.5 58.5zM338 1454q117 0 200 -83t83 -200q0 -116 -83.5 -199t-201.5 -83t-199.5 82t-81.5 200q0 119 82.5 201t200.5 82z" />
    <glyph glyph-name="plusminus" unicode="&#xb1;" horiz-adv-x="1706" 
d="M254 158h1198v-117h-1198v117zM795 1180h118v-344h539v-117h-539v-344h-118v344h-541v117h541v344z" />
    <glyph glyph-name="uni00B2" unicode="&#xb2;" horiz-adv-x="682" 
d="M72 547v16q0 88 128 238q34 41 52 63l113 135q52 65 75 110t23 83q0 51 -36 85t-89 34q-67 0 -123.5 -42.5t-120.5 -142.5l-24 9q65 125 144.5 186t178.5 61q88 0 142.5 -46t54.5 -119q0 -88 -148 -229l-10 -9l-160 -158q-51 -47 -85 -91t-54 -87h340q42 0 65 17t44 63
h26l-92 -242h-24v13q0 33 -13 43t-80 10h-327z" />
    <glyph glyph-name="uni00B3" unicode="&#xb3;" horiz-adv-x="682" 
d="M248 948q113 111 145.5 160.5t32.5 91.5q0 48 -32.5 77.5t-86.5 29.5q-42 0 -85 -21.5t-95 -68.5l-21 14q78 82 139 117.5t124 35.5q67 0 108 -35.5t41 -93.5q0 -56 -35.5 -109t-113.5 -112q107 -8 168 -66t61 -153q0 -115 -90 -199t-217 -84q-97 0 -165.5 37.5
t-68.5 85.5q0 20 15.5 33.5t36.5 13.5q38 0 75 -66v-1q19 -38 49 -56t74 -18q77 0 131 62t54 153q0 85 -60 128.5t-176 43.5h-8z" />
    <glyph glyph-name="acute" unicode="&#xb4;" 
d="M336 1030l289 299q31 33 53 46.5t43 13.5q32 0 53 -20t21 -50q0 -22 -15.5 -43t-46.5 -41l-330 -205h-67z" />
    <glyph glyph-name="mu" unicode="&#xb5;" horiz-adv-x="1120" 
d="M164 193q-27 -136 -52 -339q-34 -272 -112 -272q-37 0 -58.5 23.5t-21.5 64.5q0 40 64.5 273.5t105.5 427.5l109 514h147l-104 -492q-6 -30 -9.5 -58.5t-3.5 -53.5q0 -83 42 -129t118 -46q98 0 163.5 68.5t94.5 200.5l111 510h149l-114 -531q-13 -59 -17 -87.5t-4 -49.5
q0 -48 26 -78t66 -30q35 0 65.5 18t51.5 51t41 93.5t39 60.5q12 0 19 -10t7 -27q0 -25 -11 -66.5t-29 -83.5q-38 -82 -95 -122.5t-135 -40.5q-68 0 -108.5 51t-40.5 139v23q-46 -110 -116 -164t-165 -54q-96 0 -152.5 54.5t-70.5 161.5z" />
    <glyph glyph-name="paragraph" unicode="&#xb6;" 
d="M948 1479v-78h-125v-1401h-94v1401h-182v-1401h-96v782q-173 8 -274 102.5t-101 245.5q0 157 107.5 253t285.5 96h479z" />
    <glyph glyph-name="periodcentered" unicode="&#xb7;" horiz-adv-x="516" 
d="M137 682q0 52 35 87.5t86 35.5q50 0 85.5 -36t35.5 -87q0 -47 -36.5 -83t-84.5 -36q-49 0 -85 35t-36 84z" />
    <glyph glyph-name="cedilla" unicode="&#xb8;" 
d="M246 -371l35 78q59 -34 118 -53t105 -19q63 0 93 22.5t30 70.5q0 41 -30 65.5t-81 24.5q-7 0 -30 -3.5t-35 -4.5v190h63v-112q23 2 40 3.5t30 2.5q79 0 126.5 -45t47.5 -119q0 -82 -58.5 -129t-160.5 -47q-55 0 -118.5 15.5t-174.5 59.5z" />
    <glyph glyph-name="uni00B9" unicode="&#xb9;" horiz-adv-x="682" 
d="M162 547v26q83 2 106 14t23 68v514q0 41 -12.5 50.5t-55.5 9.5h-69v28q64 13 118 42t109 81h25v-723q0 -55 17.5 -66.5t98.5 -17.5v-26h-360z" />
    <glyph glyph-name="ordmasculine" unicode="&#xba;" horiz-adv-x="737" 
d="M369 811q87 0 137.5 79t50.5 218q0 140 -50 218.5t-138 78.5q-87 0 -137 -79t-50 -218q0 -140 49.5 -218.5t137.5 -78.5zM686 1108q0 -148 -87.5 -239t-229.5 -91t-229 90.5t-87 239.5t87 239.5t229 90.5t229.5 -90.5t87.5 -239.5z" />
    <glyph glyph-name="guillemotright" unicode="&#xbb;" horiz-adv-x="1036" 
d="M557 166q-6 -6 -13.5 -9t-15.5 -3q-11 0 -15.5 5t-4.5 17q0 13 18.5 44t94.5 136l77 107l-77 106q-76 106 -94.5 137t-18.5 44q0 11 4 15.5t14 4.5q9 0 18 -3t13 -7l29 -31q67 -71 140 -137t153 -129q-76 -60 -147 -124.5t-146 -141.5zM215 166q-6 -6 -14 -9t-17 -3
q-11 0 -15.5 5t-4.5 17q0 13 18.5 44t93.5 136l78 107l-78 106q-75 106 -93.5 137t-18.5 44q0 11 4.5 15.5t15.5 4.5q9 0 18 -3t13 -7l29 -31q67 -71 140 -137t153 -129q-76 -60 -147 -124.5t-146 -141.5z" />
    <glyph glyph-name="onequarter" unicode="&#xbc;" horiz-adv-x="1645" 
d="M1090 303h296v379zM1382 0v229h-352v52l400 507h61v-485h127v-74h-127v-229h-109zM309 -68l920 1483h104l-919 -1483h-105zM156 600v24q76 2 98 12.5t22 63.5v480q0 40 -11.5 48.5t-51.5 8.5h-66v27q62 13 113.5 39.5t104.5 74.5h24v-676q0 -52 16 -62t93 -15v-25h-342z
" />
    <glyph glyph-name="onehalf" unicode="&#xbd;" horiz-adv-x="1645" 
d="M1061 0v14q0 84 126 226q32 36 48 55l104 127q51 60 73 102.5t22 77.5q0 47 -34 79t-83 32q-64 0 -119 -40t-117 -132l-20 8q60 117 136 174t171 57q84 0 136 -43.5t52 -111.5q0 -80 -135 -208l-14 -14l-154 -147q-48 -45 -80.5 -85.5t-52.5 -80.5h326q39 0 60.5 16
t41.5 60h27l-88 -227h-25v12q0 31 -12 40t-76 9h-313zM309 -68l920 1483h104l-919 -1483h-105zM156 600v24q76 2 98 12.5t22 63.5v480q0 40 -11.5 48.5t-51.5 8.5h-66v27q62 13 113.5 39.5t104.5 74.5h24v-676q0 -52 16 -62t93 -15v-25h-342z" />
    <glyph glyph-name="threequarters" unicode="&#xbe;" horiz-adv-x="1645" 
d="M1090 303h296v379zM1382 0v229h-352v52l400 507h61v-485h127v-74h-127v-229h-109zM309 -68l920 1483h104l-919 -1483h-105zM236 975q104 99 137 146.5t33 88.5q0 46 -31 73.5t-82 27.5q-38 0 -79 -20.5t-93 -65.5l-19 14q75 76 132.5 108.5t115.5 32.5q65 0 105.5 -32.5
t40.5 -85.5t-35 -102.5t-111 -104.5q104 -8 162.5 -62t58.5 -141q0 -108 -85.5 -186t-209.5 -78q-93 0 -158 34.5t-65 79.5q0 18 15 30.5t34 12.5q23 0 38 -11t36 -52q19 -36 47 -53t70 -17q74 0 125 58.5t51 144.5q0 79 -56.5 119.5t-166.5 40.5h-10z" />
    <glyph glyph-name="questiondown" unicode="&#xbf;" horiz-adv-x="786" 
d="M651 1323q0 -51 -34.5 -86t-86.5 -35q-50 0 -84 35t-34 86q0 48 35.5 83.5t82.5 35.5q50 0 85.5 -35t35.5 -84zM551 1036v-470q-209 -3 -287 -46t-78 -151q0 -91 47.5 -137t163.5 -64q18 -3 51 -7q152 -21 152 -93q0 -42 -30 -67.5t-81 -25.5q-125 0 -242.5 127
t-117.5 283q0 169 86.5 248.5t278.5 85.5l10 317h47z" />
    <glyph glyph-name="Agrave" unicode="&#xc0;" horiz-adv-x="1237" 
d="M315 592h439l-228 582zM-59 0v49l69 12q60 11 125 202q31 90 51 145l301 788l2 4q7 21 7 31t-3.5 20.5t-9.5 20.5l-18 31q45 31 83 70t70 87h19l500 -1300q26 -68 56.5 -89.5t94.5 -21.5v-49h-536v49l63 8q64 8 82 22t18 44q0 15 -3.5 32.5t-10.5 35.5l-125 341h-481
l-105 -284q-16 -44 -22 -70.5t-6 -46.5q0 -32 26 -49.5t91 -28.5l43 -6v-47h-381zM794 1556h-67l-330 205q-31 20 -46.5 41t-15.5 43q0 30 21 50t53 20q21 0 43 -13.5t53 -46.5z" />
    <glyph glyph-name="Aacute" unicode="&#xc1;" horiz-adv-x="1237" 
d="M315 592h439l-228 582zM-59 0v49l69 12q60 11 125 202q31 90 51 145l301 788l2 4q7 21 7 31t-3.5 20.5t-9.5 20.5l-18 31q45 31 83 70t70 87h19l500 -1300q26 -68 56.5 -89.5t94.5 -21.5v-49h-536v49l63 8q64 8 82 22t18 44q0 15 -3.5 32.5t-10.5 35.5l-125 341h-481
l-105 -284q-16 -44 -22 -70.5t-6 -46.5q0 -32 26 -49.5t91 -28.5l43 -6v-47h-381zM442 1556l289 299q31 33 53 46.5t43 13.5q32 0 53 -20t21 -50q0 -22 -15.5 -43t-46.5 -41l-330 -205h-67z" />
    <glyph glyph-name="Acircumflex" unicode="&#xc2;" horiz-adv-x="1237" 
d="M315 592h439l-228 582zM-59 0v49l69 12q60 11 125 202q31 90 51 145l301 788l2 4q7 21 7 31t-3.5 20.5t-9.5 20.5l-18 31q45 31 83 70t70 87h19l500 -1300q26 -68 56.5 -89.5t94.5 -21.5v-49h-536v49l63 8q64 8 82 22t18 44q0 15 -3.5 32.5t-10.5 35.5l-125 341h-481
l-105 -284q-16 -44 -22 -70.5t-6 -46.5q0 -32 26 -49.5t91 -28.5l43 -6v-47h-381zM327 1556l232 350h118l232 -350h-58l-233 211l-233 -211h-58z" />
    <glyph glyph-name="Atilde" unicode="&#xc3;" horiz-adv-x="1237" 
d="M315 592h439l-228 582zM-59 0v49l69 12q60 11 125 202q31 90 51 145l301 788l2 4q7 21 7 31t-3.5 20.5t-9.5 20.5l-18 31q45 31 83 70t70 87h19l500 -1300q26 -68 56.5 -89.5t94.5 -21.5v-49h-536v49l63 8q64 8 82 22t18 44q0 15 -3.5 32.5t-10.5 35.5l-125 341h-481
l-105 -284q-16 -44 -22 -70.5t-6 -46.5q0 -32 26 -49.5t91 -28.5l43 -6v-47h-381zM905 1855q-20 -105 -68.5 -157t-126.5 -52q-10 0 -25.5 2.5t-48.5 10.5l-108 28q-9 2 -19 3t-30 1q-39 0 -60 -18.5t-37 -67.5h-51q19 105 68 157t129 52q17 0 32.5 -2t30.5 -6l111 -29
q16 -4 30 -6t25 -2q38 0 58.5 18.5t35.5 67.5h54z" />
    <glyph glyph-name="Adieresis" unicode="&#xc4;" horiz-adv-x="1237" 
d="M315 592h439l-228 582zM-59 0v49l69 12q60 11 125 202q31 90 51 145l301 788l2 4q7 21 7 31t-3.5 20.5t-9.5 20.5l-18 31q45 31 83 70t70 87h19l500 -1300q26 -68 56.5 -89.5t94.5 -21.5v-49h-536v49l63 8q64 8 82 22t18 44q0 15 -3.5 32.5t-10.5 35.5l-125 341h-481
l-105 -284q-16 -44 -22 -70.5t-6 -46.5q0 -32 26 -49.5t91 -28.5l43 -6v-47h-381zM694 1712q0 40 30 70t70 30t69 -30t29 -70q0 -43 -28 -72t-70 -29t-71 29t-29 72zM344 1712q0 40 29 70t69 30t70 -30t30 -70q0 -43 -29 -72t-71 -29t-70 29t-28 72z" />
    <glyph glyph-name="Aring" unicode="&#xc5;" horiz-adv-x="1237" 
d="M451 1737q0 -60 42.5 -103t102.5 -43t102.5 43t42.5 103t-42.5 102.5t-102.5 42.5t-102.5 -42.5t-42.5 -102.5zM360 1737q0 98 69 166.5t167 68.5t166.5 -68.5t68.5 -166.5q0 -99 -68.5 -167.5t-166.5 -68.5t-167 68.5t-69 167.5zM315 592h439l-228 582zM-59 0v49l69 12
q60 11 125 202q31 90 51 145l301 788l2 4q7 21 7 31t-3.5 20.5t-9.5 20.5l-18 31q44 25 82 58t71 75h19l500 -1276q27 -70 57.5 -90.5t93.5 -20.5v-49h-536v49l63 8q64 8 82 22t18 44q0 15 -3.5 32.5t-10.5 35.5l-125 341h-481l-105 -284q-16 -44 -22 -70.5t-6 -46.5
q0 -32 26 -49.5t91 -28.5l43 -6v-47h-381z" />
    <glyph glyph-name="AE" unicode="&#xc6;" horiz-adv-x="1751" 
d="M1722 371l-77 -371h-977v47q90 2 119.5 28t29.5 134v418h-428l-231 -407l-2 -4q-35 -63 -35 -91q0 -40 39.5 -60t119.5 -22l1 -43h-400v43q104 8 216 199q9 16 14 25l559 954q11 19 17.5 39t6.5 34q0 40 -32.5 60t-98.5 20h-18v47h1024l102 -325l-43 -17
q-74 116 -114 162t-82 74q-49 32 -116.5 45.5t-240.5 13.5h-49v-624q17 0 35 -1l18 -1q151 0 215.5 57t83.5 205h37v-570h-37q-19 148 -83.5 204t-215.5 56h-53v-499q0 -93 32 -123.5t120 -30.5q187 0 284.5 64.5t220.5 271.5zM817 1350l-393 -668h393v668z" />
    <glyph glyph-name="Ccedilla" unicode="&#xc7;" horiz-adv-x="1458" 
d="M1300 500h39v-467h-41l-36 75q-4 7 -10.5 11t-12.5 4q-10 0 -53 -26q-201 -122 -406 -122q-119 0 -229 39t-203 113q-132 107 -196 250.5t-64 335.5q0 132 38.5 251t111.5 212q98 127 243.5 198.5t306.5 71.5q150 0 300.5 -66.5t152.5 -66.5q24 0 38 15t26 56h36v-475
h-43q-25 223 -153.5 356.5t-315.5 133.5q-222 0 -372 -194.5t-150 -493.5q0 -298 145 -490t361 -192q190 0 317 122.5t170 348.5zM520 -371l35 78q59 -34 118 -53t105 -19q63 0 93 22.5t30 70.5q0 41 -30 65.5t-81 24.5q-7 0 -30 -3.5t-35 -4.5v190h63v-112q23 2 40 3.5
t30 2.5q79 0 126.5 -45t47.5 -119q0 -82 -58.5 -129t-160.5 -47q-55 0 -118.5 15.5t-174.5 59.5z" />
    <glyph glyph-name="Egrave" unicode="&#xc8;" horiz-adv-x="1323" 
d="M113 0v47q95 3 122 23t27 112v27v1024q0 97 -25.5 118t-109.5 21h-14v49h1028l102 -325l-43 -17q-67 107 -110.5 158.5t-88.5 83.5q-41 29 -104 41t-217 12h-33h-176v-624q29 -1 55.5 -1.5t51.5 -0.5q185 0 251 54.5t86 207.5h35v-570h-35q-21 152 -86 206t-251 54h-107
v-499q0 -96 32 -125t136 -29h125q177 0 267 58.5t224 277.5l39 -12l-75 -371h-1106zM874 1556h-67l-330 205q-31 20 -46.5 41t-15.5 43q0 30 21 50t53 20q21 0 43 -13.5t53 -46.5z" />
    <glyph glyph-name="Eacute" unicode="&#xc9;" horiz-adv-x="1323" 
d="M113 0v47q95 3 122 23t27 112v27v1024q0 97 -25.5 118t-109.5 21h-14v49h1028l102 -325l-43 -17q-67 107 -110.5 158.5t-88.5 83.5q-41 29 -104 41t-217 12h-33h-176v-624q29 -1 55.5 -1.5t51.5 -0.5q185 0 251 54.5t86 207.5h35v-570h-35q-21 152 -86 206t-251 54h-107
v-499q0 -96 32 -125t136 -29h125q177 0 267 58.5t224 277.5l39 -12l-75 -371h-1106zM522 1556l289 299q31 33 53 46.5t43 13.5q32 0 53 -20t21 -50q0 -22 -15.5 -43t-46.5 -41l-330 -205h-67z" />
    <glyph glyph-name="Ecircumflex" unicode="&#xca;" horiz-adv-x="1323" 
d="M113 0v47q95 3 122 23t27 112v27v1024q0 97 -25.5 118t-109.5 21h-14v49h1028l102 -325l-43 -17q-67 107 -110.5 158.5t-88.5 83.5q-41 29 -104 41t-217 12h-33h-176v-624q29 -1 55.5 -1.5t51.5 -0.5q185 0 251 54.5t86 207.5h35v-570h-35q-21 152 -86 206t-251 54h-107
v-499q0 -96 32 -125t136 -29h125q177 0 267 58.5t224 277.5l39 -12l-75 -371h-1106zM407 1556l232 350h118l232 -350h-58l-233 211l-233 -211h-58z" />
    <glyph glyph-name="Edieresis" unicode="&#xcb;" horiz-adv-x="1323" 
d="M113 0v47q95 3 122 23t27 112v27v1024q0 97 -25.5 118t-109.5 21h-14v49h1028l102 -325l-43 -17q-67 107 -110.5 158.5t-88.5 83.5q-41 29 -104 41t-217 12h-33h-176v-624q29 -1 55.5 -1.5t51.5 -0.5q185 0 251 54.5t86 207.5h35v-570h-35q-21 152 -86 206t-251 54h-107
v-499q0 -96 32 -125t136 -29h125q177 0 267 58.5t224 277.5l39 -12l-75 -371h-1106zM774 1712q0 40 30 70t70 30t69 -30t29 -70q0 -43 -28 -72t-70 -29t-71 29t-29 72zM424 1712q0 40 29 70t69 30t70 -30t30 -70q0 -43 -29 -72t-71 -29t-70 29t-28 72z" />
    <glyph glyph-name="Igrave" unicode="&#xcc;" horiz-adv-x="772" 
d="M659 1421v-47h-41q-80 0 -103 -21t-23 -102v-1079q0 -85 22 -105t111 -20h34v-47h-546v47h28q91 0 115.5 21.5t24.5 103.5v1079q0 84 -21 103.5t-108 19.5h-39v47h546zM563 1556h-67l-330 205q-31 20 -46.5 41t-15.5 43q0 30 21 50t53 20q21 0 43 -13.5t53 -46.5z" />
    <glyph glyph-name="Iacute" unicode="&#xcd;" horiz-adv-x="772" 
d="M659 1421v-47h-41q-80 0 -103 -21t-23 -102v-1079q0 -85 22 -105t111 -20h34v-47h-546v47h28q91 0 115.5 21.5t24.5 103.5v1079q0 84 -21 103.5t-108 19.5h-39v47h546zM211 1556l289 299q31 33 53 46.5t43 13.5q32 0 53 -20t21 -50q0 -22 -15.5 -43t-46.5 -41l-330 -205
h-67z" />
    <glyph glyph-name="Icircumflex" unicode="&#xce;" horiz-adv-x="772" 
d="M659 1421v-47h-41q-80 0 -103 -21t-23 -102v-1079q0 -85 22 -105t111 -20h34v-47h-546v47h28q91 0 115.5 21.5t24.5 103.5v1079q0 84 -21 103.5t-108 19.5h-39v47h546zM96 1556l232 350h118l232 -350h-58l-233 211l-233 -211h-58z" />
    <glyph glyph-name="Idieresis" unicode="&#xcf;" horiz-adv-x="772" 
d="M659 1421v-47h-41q-80 0 -103 -21t-23 -102v-1079q0 -85 22 -105t111 -20h34v-47h-546v47h28q91 0 115.5 21.5t24.5 103.5v1079q0 84 -21 103.5t-108 19.5h-39v47h546zM463 1712q0 40 30 70t70 30t69 -30t29 -70q0 -43 -28 -72t-70 -29t-71 29t-29 72zM113 1712
q0 40 29 70t69 30t70 -30t30 -70q0 -43 -29 -72t-71 -29t-70 29t-28 72z" />
    <glyph glyph-name="Eth" unicode="&#xd0;" horiz-adv-x="1616" 
d="M113 0v49q91 4 120 28t29 120v55v442h-262v70h262v483q0 72 -28.5 96t-120.5 29v49h192q108 0 265.5 5.5t205.5 5.5q354 0 557 -193.5t203 -529.5q0 -191 -74 -344t-211 -246q-95 -65 -241 -97t-344 -32q-53 0 -194 5t-230 5h-129zM471 227q0 -114 42.5 -154t158.5 -40
q142 0 231 23t162 75q119 84 183.5 235t64.5 343q0 186 -61.5 335t-174.5 238q-71 57 -164.5 82t-244.5 25q-118 0 -157.5 -33.5t-39.5 -153.5v-438h403v-70h-403v-467z" />
    <glyph glyph-name="Ntilde" unicode="&#xd1;" horiz-adv-x="1657" 
d="M154 1343q-21 17 -46.5 25.5t-56.5 10.5v42h320l991 -1104v867q0 110 -33.5 152t-111.5 42h-43v43h432v-43h-41q-77 0 -110.5 -41.5t-33.5 -152.5v-1200h-41l-1077 1226v-938q0 -121 34.5 -175t111.5 -54h43v-43h-433v43h41q77 0 110.5 50.5t33.5 178.5v1002zM1149 1855
q-20 -105 -68.5 -157t-126.5 -52q-10 0 -25.5 2.5t-48.5 10.5l-108 28q-9 2 -19 3t-30 1q-39 0 -60 -18.5t-37 -67.5h-51q19 105 68 157t129 52q17 0 32.5 -2t30.5 -6l111 -29q16 -4 30 -6t25 -2q38 0 58.5 18.5t35.5 67.5h54z" />
    <glyph glyph-name="Ograve" unicode="&#xd2;" horiz-adv-x="1565" 
d="M305 696q0 -297 134.5 -484t342.5 -187q215 0 348.5 187.5t133.5 496.5q0 314 -131 501t-345 187q-215 0 -349 -192t-134 -509zM784 -25q-304 0 -500 208t-196 532q0 321 193.5 526t498.5 205q310 0 504.5 -205t194.5 -534q0 -326 -193.5 -529t-501.5 -203zM958 1556h-67
l-330 205q-31 20 -46.5 41t-15.5 43q0 30 21 50t53 20q21 0 43 -13.5t53 -46.5z" />
    <glyph glyph-name="Oacute" unicode="&#xd3;" horiz-adv-x="1565" 
d="M305 696q0 -297 134.5 -484t342.5 -187q215 0 348.5 187.5t133.5 496.5q0 314 -131 501t-345 187q-215 0 -349 -192t-134 -509zM784 -25q-304 0 -500 208t-196 532q0 321 193.5 526t498.5 205q310 0 504.5 -205t194.5 -534q0 -326 -193.5 -529t-501.5 -203zM606 1556
l289 299q31 33 53 46.5t43 13.5q32 0 53 -20t21 -50q0 -22 -15.5 -43t-46.5 -41l-330 -205h-67z" />
    <glyph glyph-name="Ocircumflex" unicode="&#xd4;" horiz-adv-x="1565" 
d="M305 696q0 -297 134.5 -484t342.5 -187q215 0 348.5 187.5t133.5 496.5q0 314 -131 501t-345 187q-215 0 -349 -192t-134 -509zM784 -25q-304 0 -500 208t-196 532q0 321 193.5 526t498.5 205q310 0 504.5 -205t194.5 -534q0 -326 -193.5 -529t-501.5 -203zM491 1556
l232 350h118l232 -350h-58l-233 211l-233 -211h-58z" />
    <glyph glyph-name="Otilde" unicode="&#xd5;" horiz-adv-x="1565" 
d="M305 696q0 -297 134.5 -484t342.5 -187q215 0 348.5 187.5t133.5 496.5q0 314 -131 501t-345 187q-215 0 -349 -192t-134 -509zM784 -25q-304 0 -500 208t-196 532q0 321 193.5 526t498.5 205q310 0 504.5 -205t194.5 -534q0 -326 -193.5 -529t-501.5 -203zM1069 1855
q-20 -105 -68.5 -157t-126.5 -52q-10 0 -25.5 2.5t-48.5 10.5l-108 28q-9 2 -19 3t-30 1q-39 0 -60 -18.5t-37 -67.5h-51q19 105 68 157t129 52q17 0 32.5 -2t30.5 -6l111 -29q16 -4 30 -6t25 -2q38 0 58.5 18.5t35.5 67.5h54z" />
    <glyph glyph-name="Odieresis" unicode="&#xd6;" horiz-adv-x="1565" 
d="M305 696q0 -297 134.5 -484t342.5 -187q215 0 348.5 187.5t133.5 496.5q0 314 -131 501t-345 187q-215 0 -349 -192t-134 -509zM784 -25q-304 0 -500 208t-196 532q0 321 193.5 526t498.5 205q310 0 504.5 -205t194.5 -534q0 -326 -193.5 -529t-501.5 -203zM858 1712
q0 40 30 70t70 30t69 -30t29 -70q0 -43 -28 -72t-70 -29t-71 29t-29 72zM508 1712q0 40 29 70t69 30t70 -30t30 -70q0 -43 -29 -72t-71 -29t-70 29t-28 72z" />
    <glyph glyph-name="multiply" unicode="&#xd7;" horiz-adv-x="1706" 
d="M381 1169l477 -477l475 477l82 -82l-475 -477l475 -475l-82 -82l-475 475l-477 -475l-80 82l475 475l-475 477z" />
    <glyph glyph-name="Oslash" unicode="&#xd8;" horiz-adv-x="1565" 
d="M1159 1169l-667 -1017q62 -63 136.5 -95t155.5 -32q214 0 347 188t133 500q0 142 -30 266t-75 190zM449 205l669 1030q-68 83 -149.5 124.5t-177.5 41.5q-217 0 -350.5 -193t-133.5 -512q0 -155 35 -277t107 -214zM270 -190h-77l188 290q-144 106 -218.5 261.5
t-74.5 351.5q0 322 192.5 527.5t495.5 205.5q113 0 217 -30.5t189 -88.5l153 236h78l-178 -277q120 -101 182 -248t62 -331q0 -325 -193.5 -529.5t-499.5 -204.5q-91 0 -178.5 22.5t-171.5 67.5z" />
    <glyph glyph-name="Ugrave" unicode="&#xd9;" horiz-adv-x="1546" 
d="M250 608v633q0 90 -27 110t-122 23l-1 47h527v-47h-52q-75 0 -95.5 -21.5t-20.5 -101.5v-850q0 -165 105 -268.5t272 -103.5q212 0 315.5 131t103.5 399v625q0 111 -32.5 150.5t-112.5 39.5h-43v47h418v-47h-37q-73 0 -103 -39.5t-30 -150.5v-647q0 -283 -131.5 -422.5
t-399.5 -139.5q-174 0 -297.5 58t-175.5 164q-33 67 -47 153.5t-14 257.5zM1014 1556h-67l-330 205q-31 20 -46.5 41t-15.5 43q0 30 21 50t53 20q21 0 43 -13.5t53 -46.5z" />
    <glyph glyph-name="Uacute" unicode="&#xda;" horiz-adv-x="1546" 
d="M250 608v633q0 90 -27 110t-122 23l-1 47h527v-47h-52q-75 0 -95.5 -21.5t-20.5 -101.5v-850q0 -165 105 -268.5t272 -103.5q212 0 315.5 131t103.5 399v625q0 111 -32.5 150.5t-112.5 39.5h-43v47h418v-47h-37q-73 0 -103 -39.5t-30 -150.5v-647q0 -283 -131.5 -422.5
t-399.5 -139.5q-174 0 -297.5 58t-175.5 164q-33 67 -47 153.5t-14 257.5zM662 1556l289 299q31 33 53 46.5t43 13.5q32 0 53 -20t21 -50q0 -22 -15.5 -43t-46.5 -41l-330 -205h-67z" />
    <glyph glyph-name="Ucircumflex" unicode="&#xdb;" horiz-adv-x="1546" 
d="M250 608v633q0 90 -27 110t-122 23l-1 47h527v-47h-52q-75 0 -95.5 -21.5t-20.5 -101.5v-850q0 -165 105 -268.5t272 -103.5q212 0 315.5 131t103.5 399v625q0 111 -32.5 150.5t-112.5 39.5h-43v47h418v-47h-37q-73 0 -103 -39.5t-30 -150.5v-647q0 -283 -131.5 -422.5
t-399.5 -139.5q-174 0 -297.5 58t-175.5 164q-33 67 -47 153.5t-14 257.5zM547 1556l232 350h118l232 -350h-58l-233 211l-233 -211h-58z" />
    <glyph glyph-name="Udieresis" unicode="&#xdc;" horiz-adv-x="1546" 
d="M250 608v633q0 90 -27 110t-122 23l-1 47h527v-47h-52q-75 0 -95.5 -21.5t-20.5 -101.5v-850q0 -165 105 -268.5t272 -103.5q212 0 315.5 131t103.5 399v625q0 111 -32.5 150.5t-112.5 39.5h-43v47h418v-47h-37q-73 0 -103 -39.5t-30 -150.5v-647q0 -283 -131.5 -422.5
t-399.5 -139.5q-174 0 -297.5 58t-175.5 164q-33 67 -47 153.5t-14 257.5zM914 1712q0 40 30 70t70 30t69 -30t29 -70q0 -43 -28 -72t-70 -29t-71 29t-29 72zM564 1712q0 40 29 70t69 30t70 -30t30 -70q0 -43 -29 -72t-71 -29t-70 29t-28 72z" />
    <glyph glyph-name="Yacute" unicode="&#xdd;" horiz-adv-x="1059" 
d="M643 209v-16q0 -101 27.5 -122.5t124.5 -21.5v-49h-514v49h14q85 0 111 21.5t26 128.5v10v434l-362 631q-32 55 -64.5 76.5t-83.5 24.5v46h510v-46q-79 -3 -110 -17t-31 -47q0 -11 4.5 -23.5t13.5 -25.5l309 -529l246 424q34 58 47 89.5t13 53.5q0 40 -26.5 57.5
t-96.5 23.5v40h362v-47q-110 -7 -200 -162q-8 -14 -13 -22l-307 -512v-469zM354 1556l289 299q31 33 53 46.5t43 13.5q32 0 53 -20t21 -50q0 -22 -15.5 -43t-46.5 -41l-330 -205h-67z" />
    <glyph glyph-name="Thorn" unicode="&#xde;" horiz-adv-x="1241" 
d="M471 946v-575q41 -3 60 -3.5t34 -0.5q215 0 308.5 85t93.5 279q0 174 -87 266.5t-251 92.5q-88 0 -123 -31.5t-35 -112.5zM113 0v49h14q84 0 109.5 21t25.5 120v19v1067q0 51 -26.5 73.5t-88.5 22.5h-34v49h510v-49h-35q-67 0 -92 -24.5t-25 -133.5v-81q22 1 47 1.5
t74 0.5q296 0 443 -101t147 -305q0 -217 -147 -315.5t-478 -98.5q-24 0 -44 0.5t-42 1.5v-145q0 -74 30.5 -98.5t149.5 -26.5v-47h-538z" />
    <glyph glyph-name="germandbls" unicode="&#xdf;" horiz-adv-x="1120" 
d="M51 0v39q88 6 113.5 33.5t25.5 165.5v741q0 225 98 342t285 117q163 0 266 -86t103 -219q0 -106 -70.5 -179t-199.5 -100v-14q178 -40 271 -145.5t93 -266.5q0 -193 -117 -323t-290 -130q-96 0 -161 47.5t-65 112.5q0 35 20.5 55.5t53.5 20.5q36 0 57.5 -23.5t34.5 -78.5
q12 -48 32 -68.5t54 -20.5q89 0 147 112t58 292q0 194 -92 296t-274 112v36h12q141 0 207.5 69t66.5 214q0 116 -57 182t-156 66q-126 0 -175.5 -105.5t-49.5 -496.5v-105v-692h-291z" />
    <glyph glyph-name="agrave" unicode="&#xe0;" horiz-adv-x="879" 
d="M551 172v309q-189 -72 -260.5 -126.5t-71.5 -121.5q0 -62 44.5 -102.5t111.5 -40.5q38 0 76.5 17.5t99.5 64.5zM545 121q-76 -72 -144 -108t-131 -36q-86 0 -139 50.5t-53 132.5q0 110 101 191t378 181v205q0 64 -27.5 93.5t-87.5 29.5q-75 0 -130.5 -33t-55.5 -82
q0 -92 -23 -129.5t-77 -37.5q-36 0 -57 20t-21 55q0 84 143 176.5t287 92.5q113 0 160 -57.5t47 -241.5v-494q0 -26 11 -40.5t30 -14.5q22 0 36 18.5t17 50.5h39q-9 -78 -50.5 -119.5t-111.5 -41.5q-61 0 -98 36t-43 103zM635 1030h-67l-330 205q-31 20 -46.5 41t-15.5 43
q0 30 21 50t53 20q21 0 43 -13.5t53 -46.5z" />
    <glyph glyph-name="aacute" unicode="&#xe1;" horiz-adv-x="879" 
d="M551 172v309q-189 -72 -260.5 -126.5t-71.5 -121.5q0 -62 44.5 -102.5t111.5 -40.5q38 0 76.5 17.5t99.5 64.5zM545 121q-76 -72 -144 -108t-131 -36q-86 0 -139 50.5t-53 132.5q0 110 101 191t378 181v205q0 64 -27.5 93.5t-87.5 29.5q-75 0 -130.5 -33t-55.5 -82
q0 -92 -23 -129.5t-77 -37.5q-36 0 -57 20t-21 55q0 84 143 176.5t287 92.5q113 0 160 -57.5t47 -241.5v-494q0 -26 11 -40.5t30 -14.5q22 0 36 18.5t17 50.5h39q-9 -78 -50.5 -119.5t-111.5 -41.5q-61 0 -98 36t-43 103zM283 1030l289 299q31 33 53 46.5t43 13.5
q32 0 53 -20t21 -50q0 -22 -15.5 -43t-46.5 -41l-330 -205h-67z" />
    <glyph glyph-name="acircumflex" unicode="&#xe2;" horiz-adv-x="879" 
d="M551 172v309q-189 -72 -260.5 -126.5t-71.5 -121.5q0 -62 44.5 -102.5t111.5 -40.5q38 0 76.5 17.5t99.5 64.5zM545 121q-76 -72 -144 -108t-131 -36q-86 0 -139 50.5t-53 132.5q0 110 101 191t378 181v205q0 64 -27.5 93.5t-87.5 29.5q-75 0 -130.5 -33t-55.5 -82
q0 -92 -23 -129.5t-77 -37.5q-36 0 -57 20t-21 55q0 84 143 176.5t287 92.5q113 0 160 -57.5t47 -241.5v-494q0 -26 11 -40.5t30 -14.5q22 0 36 18.5t17 50.5h39q-9 -78 -50.5 -119.5t-111.5 -41.5q-61 0 -98 36t-43 103zM168 1030l232 350h118l232 -350h-58l-233 211
l-233 -211h-58z" />
    <glyph glyph-name="atilde" unicode="&#xe3;" horiz-adv-x="879" 
d="M551 172v309q-189 -72 -260.5 -126.5t-71.5 -121.5q0 -62 44.5 -102.5t111.5 -40.5q38 0 76.5 17.5t99.5 64.5zM545 121q-76 -72 -144 -108t-131 -36q-86 0 -139 50.5t-53 132.5q0 110 101 191t378 181v205q0 64 -27.5 93.5t-87.5 29.5q-75 0 -130.5 -33t-55.5 -82
q0 -92 -23 -129.5t-77 -37.5q-36 0 -57 20t-21 55q0 84 143 176.5t287 92.5q113 0 160 -57.5t47 -241.5v-494q0 -26 11 -40.5t30 -14.5q22 0 36 18.5t17 50.5h39q-9 -78 -50.5 -119.5t-111.5 -41.5q-61 0 -98 36t-43 103zM746 1329q-20 -105 -68.5 -157t-126.5 -52
q-10 0 -25.5 2.5t-48.5 10.5l-108 28q-9 2 -19 3t-30 1q-39 0 -60 -18.5t-37 -67.5h-51q19 105 68 157t129 52q17 0 32.5 -2t30.5 -6l111 -29q16 -4 30 -6t25 -2q38 0 58.5 18.5t35.5 67.5h54z" />
    <glyph glyph-name="adieresis" unicode="&#xe4;" horiz-adv-x="879" 
d="M551 172v309q-189 -72 -260.5 -126.5t-71.5 -121.5q0 -62 44.5 -102.5t111.5 -40.5q38 0 76.5 17.5t99.5 64.5zM545 121q-76 -72 -144 -108t-131 -36q-86 0 -139 50.5t-53 132.5q0 110 101 191t378 181v205q0 64 -27.5 93.5t-87.5 29.5q-75 0 -130.5 -33t-55.5 -82
q0 -92 -23 -129.5t-77 -37.5q-36 0 -57 20t-21 55q0 84 143 176.5t287 92.5q113 0 160 -57.5t47 -241.5v-494q0 -26 11 -40.5t30 -14.5q22 0 36 18.5t17 50.5h39q-9 -78 -50.5 -119.5t-111.5 -41.5q-61 0 -98 36t-43 103zM535 1186q0 40 30 70t70 30t69 -30t29 -70
q0 -43 -28 -72t-70 -29t-71 29t-29 72zM185 1186q0 40 29 70t69 30t70 -30t30 -70q0 -43 -29 -72t-71 -29t-70 29t-28 72z" />
    <glyph glyph-name="aring" unicode="&#xe5;" horiz-adv-x="879" 
d="M297 1223q0 -60 42.5 -103t102.5 -43t103 43t43 103t-43 102.5t-103 42.5t-102.5 -42.5t-42.5 -102.5zM207 1223q0 98 68.5 166.5t166.5 68.5q99 0 167.5 -68.5t68.5 -166.5q0 -99 -68.5 -167.5t-167.5 -68.5q-98 0 -166.5 68.5t-68.5 167.5zM545 121q-76 -72 -144 -108
t-131 -36q-86 0 -139 50.5t-53 132.5q0 110 101 191t378 181v205q0 64 -27.5 93.5t-87.5 29.5q-75 0 -130.5 -33t-55.5 -82q0 -92 -23 -129.5t-77 -37.5q-36 0 -57 20t-21 55q0 84 143 176.5t287 92.5q113 0 160 -57.5t47 -241.5v-494q0 -26 11 -40.5t30 -14.5q22 0 36 18.5
t17 50.5h39q-9 -78 -50.5 -119.5t-111.5 -41.5q-61 0 -98 36t-43 103zM551 172v309q-189 -72 -260.5 -126.5t-71.5 -121.5q0 -62 44.5 -102.5t111.5 -40.5q38 0 76.5 17.5t99.5 64.5z" />
    <glyph glyph-name="ae" unicode="&#xe6;" horiz-adv-x="1458" 
d="M1081 657q36 0 54 15.5t18 46.5q0 64 -54.5 107.5t-137.5 43.5q-90 0 -155.5 -56t-92.5 -157h368zM1327 604h-625q-8 -51 -11 -80t-3 -51q0 -159 100 -265t248 -106q108 0 193 57.5t123 155.5l37 -12q-49 -154 -163.5 -243t-262.5 -89q-107 0 -199.5 51t-157.5 146
q-102 -99 -186.5 -148t-153.5 -49q-84 0 -138 52t-54 133q0 108 108 193t375 179v205q0 64 -27.5 93.5t-87.5 29.5q-59 0 -114.5 -26t-65.5 -58q-5 -18 -8 -64q-8 -135 -100 -135q-34 0 -55 21t-21 55q0 39 30.5 77t98.5 83q76 51 153.5 78.5t145.5 27.5q70 0 120 -27
t70 -77q58 51 132.5 77.5t160.5 26.5q147 0 261 -87t114 -183q0 -22 -8 -31.5t-29 -9.5zM551 477q-193 -74 -262.5 -128t-69.5 -122q0 -61 43 -101t109 -40q43 0 83 17.5t97 64.5v309z" />
    <glyph glyph-name="ccedilla" unicode="&#xe7;" horiz-adv-x="909" 
d="M850 268q-60 -140 -156 -215.5t-215 -75.5q-172 0 -287.5 133t-115.5 336q0 205 122.5 340.5t307.5 135.5q131 0 229.5 -70.5t98.5 -161.5q0 -30 -23.5 -52t-54.5 -22q-61 0 -91 118q-4 15 -6 22q-17 64 -48.5 91t-86.5 27q-123 0 -203.5 -104t-80.5 -264q0 -178 90 -294
t223 -116q84 0 151 47t115 140zM211 -371l35 78q59 -34 118 -53t105 -19q63 0 93 22.5t30 70.5q0 41 -30 65.5t-81 24.5q-7 0 -30 -3.5t-35 -4.5v190h63v-112q23 2 40 3.5t30 2.5q79 0 126.5 -45t47.5 -119q0 -82 -58.5 -129t-160.5 -47q-55 0 -118.5 15.5t-174.5 59.5z" />
    <glyph glyph-name="egrave" unicode="&#xe8;" horiz-adv-x="995" 
d="M618 662q36 0 53 15t17 46q0 65 -53.5 108t-136.5 43q-90 0 -155.5 -56t-92.5 -156h368zM864 608h-622q-8 -58 -11.5 -92t-3.5 -59q0 -152 100 -252.5t248 -100.5q108 0 192 57.5t122 155.5l39 -12q-49 -154 -163.5 -243t-264.5 -89q-183 0 -304.5 127.5t-121.5 321.5
q0 226 122.5 362t329.5 136q148 0 261.5 -87t113.5 -184q0 -22 -8 -31.5t-29 -9.5zM686 1030h-67l-330 205q-31 20 -46.5 41t-15.5 43q0 30 21 50t53 20q21 0 43 -13.5t53 -46.5z" />
    <glyph glyph-name="eacute" unicode="&#xe9;" horiz-adv-x="995" 
d="M618 662q36 0 53 15t17 46q0 65 -53.5 108t-136.5 43q-90 0 -155.5 -56t-92.5 -156h368zM864 608h-622q-8 -58 -11.5 -92t-3.5 -59q0 -152 100 -252.5t248 -100.5q108 0 192 57.5t122 155.5l39 -12q-49 -154 -163.5 -243t-264.5 -89q-183 0 -304.5 127.5t-121.5 321.5
q0 226 122.5 362t329.5 136q148 0 261.5 -87t113.5 -184q0 -22 -8 -31.5t-29 -9.5zM334 1030l289 299q31 33 53 46.5t43 13.5q32 0 53 -20t21 -50q0 -22 -15.5 -43t-46.5 -41l-330 -205h-67z" />
    <glyph glyph-name="ecircumflex" unicode="&#xea;" horiz-adv-x="995" 
d="M618 662q36 0 53 15t17 46q0 65 -53.5 108t-136.5 43q-90 0 -155.5 -56t-92.5 -156h368zM864 608h-622q-8 -58 -11.5 -92t-3.5 -59q0 -152 100 -252.5t248 -100.5q108 0 192 57.5t122 155.5l39 -12q-49 -154 -163.5 -243t-264.5 -89q-183 0 -304.5 127.5t-121.5 321.5
q0 226 122.5 362t329.5 136q148 0 261.5 -87t113.5 -184q0 -22 -8 -31.5t-29 -9.5zM219 1030l232 350h118l232 -350h-58l-233 211l-233 -211h-58z" />
    <glyph glyph-name="edieresis" unicode="&#xeb;" horiz-adv-x="995" 
d="M618 662q36 0 53 15t17 46q0 65 -53.5 108t-136.5 43q-90 0 -155.5 -56t-92.5 -156h368zM864 608h-622q-8 -58 -11.5 -92t-3.5 -59q0 -152 100 -252.5t248 -100.5q108 0 192 57.5t122 155.5l39 -12q-49 -154 -163.5 -243t-264.5 -89q-183 0 -304.5 127.5t-121.5 321.5
q0 226 122.5 362t329.5 136q148 0 261.5 -87t113.5 -184q0 -22 -8 -31.5t-29 -9.5zM586 1186q0 40 30 70t70 30t69 -30t29 -70q0 -43 -28 -72t-70 -29t-71 29t-29 72zM236 1186q0 40 29 70t69 30t70 -30t30 -70q0 -43 -29 -72t-71 -29t-70 29t-28 72z" />
    <glyph glyph-name="igrave" unicode="&#xec;" horiz-adv-x="561" 
d="M365 920v-762q0 -80 22 -99.5t90 -19.5v-39h-387l1 39q68 3 89 27t21 124v461q0 67 -19 94.5t-76 51.5v24q61 18 119.5 42.5t116.5 56.5h23zM440 1030h-67l-330 205q-31 20 -46.5 41t-15.5 43q0 30 21 50t53 20q21 0 43 -13.5t53 -46.5z" />
    <glyph glyph-name="iacute" unicode="&#xed;" horiz-adv-x="561" 
d="M365 920v-762q0 -80 22 -99.5t90 -19.5v-39h-387l1 39q68 3 89 27t21 124v461q0 67 -19 94.5t-76 51.5v24q61 18 119.5 42.5t116.5 56.5h23zM88 1030l289 299q31 33 53 46.5t43 13.5q32 0 53 -20t21 -50q0 -22 -15.5 -43t-46.5 -41l-330 -205h-67z" />
    <glyph glyph-name="icircumflex" unicode="&#xee;" horiz-adv-x="561" 
d="M365 920v-762q0 -80 22 -99.5t90 -19.5v-39h-387l1 39q68 3 89 27t21 124v461q0 67 -19 94.5t-76 51.5v24q61 18 119.5 42.5t116.5 56.5h23zM-27 1030l232 350h118l232 -350h-58l-233 211l-233 -211h-58z" />
    <glyph glyph-name="idieresis" unicode="&#xef;" horiz-adv-x="561" 
d="M365 920v-762q0 -80 22 -99.5t90 -19.5v-39h-387l1 39q68 3 89 27t21 124v461q0 67 -19 94.5t-76 51.5v24q61 18 119.5 42.5t116.5 56.5h23zM340 1186q0 40 30 70t70 30t69 -30t29 -70q0 -43 -28 -72t-70 -29t-71 29t-29 72zM-10 1186q0 40 29 70t69 30t70 -30t30 -70
q0 -43 -29 -72t-71 -29t-70 29t-28 72z" />
    <glyph glyph-name="eth" unicode="&#xf0;" horiz-adv-x="983" 
d="M657 889q-20 51 -51 109.5t-82 140.5l-317 -148l-23 49l308 146q-35 54 -77.5 108t-95.5 111l41 31q65 -58 119.5 -110.5t102.5 -100.5l282 133l25 -49l-268 -125q153 -186 222.5 -354t69.5 -351q0 -236 -112.5 -370t-308.5 -134q-189 0 -304.5 130t-115.5 344
q0 212 115.5 341.5t304.5 129.5q49 0 88 -7.5t77 -23.5zM492 25q116 0 182.5 112.5t66.5 311.5t-66 310t-183 111q-118 0 -184 -112.5t-66 -315.5q0 -194 67 -305.5t183 -111.5z" />
    <glyph glyph-name="ntilde" unicode="&#xf1;" horiz-adv-x="1114" 
d="M90 39q80 6 96.5 23.5t16.5 103.5v24l-2 461q0 67 -19 94.5t-76 51.5v24q64 20 121.5 44t114.5 55h18l-4 -162q77 90 143.5 127t147.5 37q149 0 218 -100t69 -318v-389q0 -43 16.5 -57t97.5 -19l1 -39h-375v39q73 5 89.5 17.5t16.5 58.5v61v377q0 142 -47 209t-147 67
q-72 0 -129 -36t-101 -109v-526q0 -82 22 -100.5t89 -18.5v-39h-377v39zM844 1329q-20 -105 -68.5 -157t-126.5 -52q-10 0 -25.5 2.5t-48.5 10.5l-108 28q-9 2 -19 3t-30 1q-39 0 -60 -18.5t-37 -67.5h-51q19 105 68 157t129 52q17 0 32.5 -2t30.5 -6l111 -29q16 -4 30 -6
t25 -2q38 0 58.5 18.5t35.5 67.5h54z" />
    <glyph glyph-name="ograve" unicode="&#xf2;" horiz-adv-x="983" 
d="M492 25q116 0 182.5 113t66.5 311q0 199 -66 310t-183 111t-183.5 -112t-66.5 -309q0 -200 66.5 -312t183.5 -112zM913 449q0 -213 -116.5 -343.5t-304.5 -130.5q-189 0 -304.5 130t-115.5 344q0 213 115 342t305 129q189 0 305 -129.5t116 -341.5zM647 1030h-67
l-330 205q-31 20 -46.5 41t-15.5 43q0 30 21 50t53 20q21 0 43 -13.5t53 -46.5z" />
    <glyph glyph-name="oacute" unicode="&#xf3;" horiz-adv-x="983" 
d="M492 25q116 0 182.5 113t66.5 311q0 199 -66 310t-183 111t-183.5 -112t-66.5 -309q0 -200 66.5 -312t183.5 -112zM913 449q0 -213 -116.5 -343.5t-304.5 -130.5q-189 0 -304.5 130t-115.5 344q0 213 115 342t305 129q189 0 305 -129.5t116 -341.5zM295 1030l289 299
q31 33 53 46.5t43 13.5q32 0 53 -20t21 -50q0 -22 -15.5 -43t-46.5 -41l-330 -205h-67z" />
    <glyph glyph-name="ocircumflex" unicode="&#xf4;" horiz-adv-x="983" 
d="M492 25q116 0 182.5 113t66.5 311q0 199 -66 310t-183 111t-183.5 -112t-66.5 -309q0 -200 66.5 -312t183.5 -112zM913 449q0 -213 -116.5 -343.5t-304.5 -130.5q-189 0 -304.5 130t-115.5 344q0 213 115 342t305 129q189 0 305 -129.5t116 -341.5zM180 1030l232 350h118
l232 -350h-58l-233 211l-233 -211h-58z" />
    <glyph glyph-name="otilde" unicode="&#xf5;" horiz-adv-x="983" 
d="M492 25q116 0 182.5 113t66.5 311q0 199 -66 310t-183 111t-183.5 -112t-66.5 -309q0 -200 66.5 -312t183.5 -112zM913 449q0 -213 -116.5 -343.5t-304.5 -130.5q-189 0 -304.5 130t-115.5 344q0 213 115 342t305 129q189 0 305 -129.5t116 -341.5zM758 1329
q-20 -105 -68.5 -157t-126.5 -52q-10 0 -25.5 2.5t-48.5 10.5l-108 28q-9 2 -19 3t-30 1q-39 0 -60 -18.5t-37 -67.5h-51q19 105 68 157t129 52q17 0 32.5 -2t30.5 -6l111 -29q16 -4 30 -6t25 -2q38 0 58.5 18.5t35.5 67.5h54z" />
    <glyph glyph-name="odieresis" unicode="&#xf6;" horiz-adv-x="983" 
d="M492 25q116 0 182.5 113t66.5 311q0 199 -66 310t-183 111t-183.5 -112t-66.5 -309q0 -200 66.5 -312t183.5 -112zM913 449q0 -213 -116.5 -343.5t-304.5 -130.5q-189 0 -304.5 130t-115.5 344q0 213 115 342t305 129q189 0 305 -129.5t116 -341.5zM547 1186q0 40 30 70
t70 30t69 -30t29 -70q0 -43 -28 -72t-70 -29t-71 29t-29 72zM197 1186q0 40 29 70t69 30t70 -30t30 -70q0 -43 -29 -72t-71 -29t-70 29t-28 72z" />
    <glyph glyph-name="divide" unicode="&#xf7;" horiz-adv-x="1706" 
d="M854 365q47 0 81 -34t34 -81t-33.5 -81t-81.5 -34t-81.5 33.5t-33.5 81.5t34 81.5t81 33.5zM254 670h1198v-117h-1198v117zM854 1085q48 0 81.5 -33.5t33.5 -80.5q0 -48 -33.5 -81.5t-81.5 -33.5q-49 0 -82 33.5t-33 81.5q0 47 34 80.5t81 33.5z" />
    <glyph glyph-name="oslash" unicode="&#xf8;" horiz-adv-x="983" 
d="M303 135l348 666q-30 35 -73.5 54t-90.5 19q-117 0 -184 -115.5t-67 -320.5q0 -97 16 -170.5t51 -132.5zM748 838q82 -69 123.5 -167t41.5 -222q0 -214 -115.5 -343t-305.5 -129q-44 0 -87 9t-88 26l-116 -231h-80l133 266q-91 66 -136.5 167t-45.5 235q0 214 116 342.5
t310 128.5q48 0 95 -11.5t97 -36.5l105 205h77zM694 731l-342 -655q29 -26 65.5 -39.5t76.5 -13.5q121 0 186 110t65 318q0 98 -12.5 166.5t-38.5 113.5z" />
    <glyph glyph-name="ugrave" unicode="&#xf9;" horiz-adv-x="1102" 
d="M915 895v-694q0 -66 17.5 -81.5t77.5 -19.5v-24q-53 -18 -110.5 -40t-125.5 -50h-14v153q-75 -92 -140.5 -128t-152.5 -36t-153 40t-99 112q-18 39 -25.5 87.5t-7.5 145.5v33v383q0 47 -20 62.5t-94 19.5v37h268v-512q0 -187 45 -251t156 -64q67 0 125.5 41.5t97.5 117.5
v510q0 77 -20 99t-81 22h-10v37h266zM700 1030h-67l-330 205q-31 20 -46.5 41t-15.5 43q0 30 21 50t53 20q21 0 43 -13.5t53 -46.5z" />
    <glyph glyph-name="uacute" unicode="&#xfa;" horiz-adv-x="1102" 
d="M915 895v-694q0 -66 17.5 -81.5t77.5 -19.5v-24q-53 -18 -110.5 -40t-125.5 -50h-14v153q-75 -92 -140.5 -128t-152.5 -36t-153 40t-99 112q-18 39 -25.5 87.5t-7.5 145.5v33v383q0 47 -20 62.5t-94 19.5v37h268v-512q0 -187 45 -251t156 -64q67 0 125.5 41.5t97.5 117.5
v510q0 77 -20 99t-81 22h-10v37h266zM348 1030l289 299q31 33 53 46.5t43 13.5q32 0 53 -20t21 -50q0 -22 -15.5 -43t-46.5 -41l-330 -205h-67z" />
    <glyph glyph-name="ucircumflex" unicode="&#xfb;" horiz-adv-x="1102" 
d="M915 895v-694q0 -66 17.5 -81.5t77.5 -19.5v-24q-53 -18 -110.5 -40t-125.5 -50h-14v153q-75 -92 -140.5 -128t-152.5 -36t-153 40t-99 112q-18 39 -25.5 87.5t-7.5 145.5v33v383q0 47 -20 62.5t-94 19.5v37h268v-512q0 -187 45 -251t156 -64q67 0 125.5 41.5t97.5 117.5
v510q0 77 -20 99t-81 22h-10v37h266zM233 1030l232 350h118l232 -350h-58l-233 211l-233 -211h-58z" />
    <glyph glyph-name="udieresis" unicode="&#xfc;" horiz-adv-x="1102" 
d="M915 895v-694q0 -66 17.5 -81.5t77.5 -19.5v-24q-53 -18 -110.5 -40t-125.5 -50h-14v153q-75 -92 -140.5 -128t-152.5 -36t-153 40t-99 112q-18 39 -25.5 87.5t-7.5 145.5v33v383q0 47 -20 62.5t-94 19.5v37h268v-512q0 -187 45 -251t156 -64q67 0 125.5 41.5t97.5 117.5
v510q0 77 -20 99t-81 22h-10v37h266zM600 1186q0 40 30 70t70 30t69 -30t29 -70q0 -43 -28 -72t-70 -29t-71 29t-29 72zM250 1186q0 40 29 70t69 30t70 -30t30 -70q0 -43 -29 -72t-71 -29t-70 29t-28 72z" />
    <glyph glyph-name="yacute" unicode="&#xfd;" horiz-adv-x="934" 
d="M-24 858l-1 37h437v-37l-49 -4q-55 -3 -76 -15t-21 -38q0 -8 4 -19t13 -27l286 -538l172 514q5 15 8 31t3 31q0 37 -29.5 51t-118.5 14v37h346v-37q-65 -6 -93 -26.5t-56 -98.5l-334 -944l-2 -6q-79 -225 -184 -225q-41 0 -64.5 24.5t-23.5 65.5q0 34 23.5 57t59.5 23
q11 0 34.5 -5.5t35.5 -5.5q26 0 42 13.5t28 46.5l86 246l-396 725q-35 65 -62 86t-68 24zM291 1030l289 299q31 33 53 46.5t43 13.5q32 0 53 -20t21 -50q0 -22 -15.5 -43t-46.5 -41l-330 -205h-67z" />
    <glyph glyph-name="thorn" unicode="&#xfe;" horiz-adv-x="1114" 
d="M346 766v-346q0 -222 50.5 -306.5t170.5 -84.5q125 0 211 111t86 276q0 183 -94 303.5t-233 120.5q-48 0 -94 -18t-97 -56zM498 -403v-37h-420v37q79 8 94.5 22t15.5 70q0 2 1 9q1 27 1 52v1417q0 67 -19.5 94t-76.5 52v24q60 18 119 42.5t119 56.5h14v-619
q66 49 133.5 72.5t141.5 23.5q184 0 294.5 -121t110.5 -325q0 -209 -137 -349.5t-342 -140.5q-51 0 -101.5 9t-99.5 26v-295q0 -75 26.5 -97.5t125.5 -22.5z" />
    <glyph glyph-name="ydieresis" unicode="&#xff;" horiz-adv-x="934" 
d="M-24 858l-1 37h437v-37l-49 -4q-55 -3 -76 -15t-21 -38q0 -8 4 -19t13 -27l286 -538l172 514q5 15 8 31t3 31q0 37 -29.5 51t-118.5 14v37h346v-37q-65 -6 -93 -26.5t-56 -98.5l-334 -944l-2 -6q-79 -225 -184 -225q-41 0 -64.5 24.5t-23.5 65.5q0 34 23.5 57t59.5 23
q11 0 34.5 -5.5t35.5 -5.5q26 0 42 13.5t28 46.5l86 246l-396 725q-35 65 -62 86t-68 24zM543 1186q0 40 30 70t70 30t69 -30t29 -70q0 -43 -28 -72t-70 -29t-71 29t-29 72zM193 1186q0 40 29 70t69 30t70 -30t30 -70q0 -43 -29 -72t-71 -29t-70 29t-28 72z" />
    <glyph glyph-name="Cacute" unicode="&#x106;" horiz-adv-x="1458" 
d="M1300 500h39v-467h-41l-36 75q-4 7 -10.5 11t-12.5 4q-10 0 -53 -26q-201 -122 -406 -122q-119 0 -229 39t-203 113q-132 107 -196 250.5t-64 335.5q0 132 38.5 251t111.5 212q98 127 243.5 198.5t306.5 71.5q150 0 300.5 -66.5t152.5 -66.5q24 0 38 15t26 56h36v-475
h-43q-25 223 -153.5 356.5t-315.5 133.5q-222 0 -372 -194.5t-150 -493.5q0 -298 145 -490t361 -192q190 0 317 122.5t170 348.5zM617 1556l289 299q31 33 53 46.5t43 13.5q32 0 53 -20t21 -50q0 -22 -15.5 -43t-46.5 -41l-330 -205h-67z" />
    <glyph glyph-name="cacute" unicode="&#x107;" horiz-adv-x="909" 
d="M850 268q-60 -140 -156 -215.5t-215 -75.5q-172 0 -287.5 133t-115.5 336q0 205 122.5 340.5t307.5 135.5q131 0 229.5 -70.5t98.5 -161.5q0 -30 -23.5 -52t-54.5 -22q-61 0 -91 118q-4 15 -6 22q-17 64 -48.5 91t-86.5 27q-123 0 -203.5 -104t-80.5 -264q0 -178 90 -294
t223 -116q84 0 151 47t115 140zM307 1030l289 299q31 33 53 46.5t43 13.5q32 0 53 -20t21 -50q0 -22 -15.5 -43t-46.5 -41l-330 -205h-67z" />
    <glyph glyph-name="Ccaron" unicode="&#x10c;" horiz-adv-x="1458" 
d="M1300 500h39v-467h-41l-36 75q-4 7 -10.5 11t-12.5 4q-10 0 -53 -26q-201 -122 -406 -122q-119 0 -229 39t-203 113q-132 107 -196 250.5t-64 335.5q0 132 38.5 251t111.5 212q98 127 243.5 198.5t306.5 71.5q150 0 300.5 -66.5t152.5 -66.5q24 0 38 15t26 56h36v-475
h-43q-25 223 -153.5 356.5t-315.5 133.5q-222 0 -372 -194.5t-150 -493.5q0 -298 145 -490t361 -192q190 0 317 122.5t170 348.5zM502 1906h58l233 -211l233 211h58l-232 -350h-118z" />
    <glyph glyph-name="ccaron" unicode="&#x10d;" horiz-adv-x="909" 
d="M850 268q-60 -140 -156 -215.5t-215 -75.5q-172 0 -287.5 133t-115.5 336q0 205 122.5 340.5t307.5 135.5q131 0 229.5 -70.5t98.5 -161.5q0 -30 -23.5 -52t-54.5 -22q-61 0 -91 118q-4 15 -6 22q-17 64 -48.5 91t-86.5 27q-123 0 -203.5 -104t-80.5 -264q0 -178 90 -294
t223 -116q84 0 151 47t115 140zM192 1380h58l233 -211l233 211h58l-232 -350h-118z" />
    <glyph glyph-name="dcroat" unicode="&#x111;" horiz-adv-x="1114" 
d="M770 1044h-328v66h328v57q0 72 -23 100.5t-85 41.5v26q66 19 128 44t121 57h19v-326h182v-66h-182v-874q0 -35 15.5 -51t78.5 -33v-23q-79 -23 -133.5 -41.5t-99.5 -35.5h-19v135q-65 -73 -138.5 -109.5t-154.5 -36.5q-164 0 -276.5 134t-112.5 333q0 217 120.5 345
t319.5 128q50 0 109 -10.5t131 -32.5v172zM770 174v330q0 181 -60.5 272.5t-181.5 91.5t-195.5 -109.5t-74.5 -287.5q0 -169 87 -280t216 -111q61 0 113 23.5t96 70.5z" />
    <glyph glyph-name="Gbreve" unicode="&#x11e;" horiz-adv-x="1505" 
d="M1126 506q0 79 -23.5 102t-98.5 23q-6 0 -21.5 -1t-24.5 -1v49h529v-51h-14q-86 0 -112 -21.5t-26 -126.5v-10v-311q-167 -96 -300.5 -139.5t-258.5 -43.5q-118 0 -226 38.5t-202 113.5q-132 107 -196 250.5t-64 335.5q0 160 54.5 297t158.5 237q100 97 225 148t262 51
q148 0 297.5 -66.5t155.5 -66.5q27 0 39.5 13t24.5 58h32l17 -401h-45q-27 188 -158 302t-317 114q-225 0 -376 -194.5t-151 -491.5q0 -304 139.5 -495t358.5 -191q138 0 229.5 91t91.5 234v154zM461 1867h51q19 -74 76 -107.5t166 -33.5t166 33.5t74 107.5h51
q-20 -133 -94 -202.5t-197 -69.5q-122 0 -196.5 69.5t-96.5 202.5z" />
    <glyph glyph-name="gbreve" unicode="&#x11f;" horiz-adv-x="965" 
d="M272 -39q-46 -28 -71 -71.5t-25 -98.5q0 -98 73.5 -148.5t217.5 -50.5q195 0 293 48t98 143q0 80 -58 116t-190 38h-172q-62 0 -97 5.5t-69 18.5zM471 365q83 0 129.5 67t46.5 186q0 120 -47 188t-129 68q-84 0 -131 -67.5t-47 -188.5q0 -119 47 -186t131 -67zM309 340
q-44 -24 -65 -54.5t-21 -70.5q0 -66 57.5 -93.5t223.5 -29.5l111 -2q177 -3 263.5 -64t86.5 -184q0 -147 -127.5 -222t-380.5 -75q-196 0 -301 56.5t-105 160.5q0 69 46 123.5t141 98.5q-58 34 -85.5 74t-27.5 89q0 57 36 108.5t113 104.5q-66 47 -99.5 109.5t-33.5 140.5
q0 136 89.5 223t230.5 87q78 0 139.5 -20t122.5 -64q38 32 76.5 49.5t70.5 17.5q41 0 64.5 -21t23.5 -57q0 -23 -16.5 -40t-40.5 -17q-22 0 -58 25.5t-59 25.5q-12 0 -21.5 -2t-19.5 -6q32 -49 47 -95.5t15 -97.5q0 -135 -92.5 -219t-241.5 -84q-34 0 -73 6t-89 19z
M190 1341h51q19 -74 76 -107.5t166 -33.5t166 33.5t74 107.5h51q-20 -133 -94 -202.5t-197 -69.5q-122 0 -196.5 69.5t-96.5 202.5z" />
    <glyph glyph-name="Idotaccent" unicode="&#x130;" horiz-adv-x="772" 
d="M659 1421v-47h-41q-80 0 -103 -21t-23 -102v-1079q0 -85 22 -105t111 -20h34v-47h-546v47h28q91 0 115.5 21.5t24.5 103.5v1079q0 84 -21 103.5t-108 19.5h-39v47h546zM287 1712q0 41 29.5 70.5t70.5 29.5q40 0 70 -30t30 -70q0 -42 -29.5 -71.5t-70.5 -29.5t-70.5 29.5
t-29.5 71.5z" />
    <glyph glyph-name="dotlessi" unicode="&#x131;" horiz-adv-x="561" 
d="M365 920v-762q0 -80 22 -99.5t90 -19.5v-39h-387l1 39q68 3 89 27t21 124v461q0 67 -19 94.5t-76 51.5v24q61 18 119.5 42.5t116.5 56.5h23z" />
    <glyph glyph-name="Lslash" unicode="&#x141;" horiz-adv-x="1372" 
d="M113 0v49h14q84 0 109.5 21t25.5 120v19v346l-231 -162v78l231 164v598q0 97 -25.5 118t-109.5 21h-14v49h540v-47q-119 -3 -150.5 -30.5t-31.5 -141.5v-461l348 242v-82l-348 -239v-461q0 -96 32.5 -125t145.5 -29h135q191 0 297.5 75.5t249.5 334.5h45l-114 -457h-1149
z" />
    <glyph glyph-name="lslash" unicode="&#x142;" horiz-adv-x="555" 
d="M358 766l197 137v-72l-197 -137v-536q0 -81 22 -100t89 -19v-39h-379l1 39q69 3 90.5 27t21.5 124v428l-203 -143v72l203 143v477q0 69 -19.5 95t-74.5 51v24q60 18 118.5 42.5t116.5 56.5h14v-670z" />
    <glyph glyph-name="OE" unicode="&#x152;" horiz-adv-x="2193" 
d="M1130 379v751q0 132 -89.5 198.5t-268.5 66.5q-228 0 -345.5 -177t-117.5 -522q0 -338 123 -508t367 -170q179 0 255 79.5t76 281.5zM1198 0q-129 0 -276 -11.5t-166 -11.5q-311 0 -489.5 199t-178.5 545q0 330 174.5 523.5t472.5 193.5q74 0 211.5 -8.5t200.5 -8.5h864
l100 -325l-40 -17q-74 116 -114 162t-83 74q-49 32 -117 45.5t-241 13.5h-175v-624h105q188 0 252 54t86 206h37v-570h-37q-22 152 -86.5 206t-251.5 54h-105v-499q0 -96 32 -125t136 -29h125q174 0 270.5 64.5t221.5 271.5l37 -12l-76 -371h-889z" />
    <glyph glyph-name="oe" unicode="&#x153;" horiz-adv-x="1661" 
d="M1284 657q35 0 52.5 15.5t17.5 46.5q0 65 -53.5 108t-137.5 43q-88 0 -154 -56.5t-94 -156.5h369zM827 143q-65 -83 -149 -125.5t-186 -42.5q-189 0 -304.5 130t-115.5 344q0 213 115 342t305 129q110 0 197.5 -45.5t146.5 -133.5q62 88 152.5 133.5t203.5 45.5
q146 0 260.5 -89.5t114.5 -185.5q0 -23 -8.5 -33t-28.5 -10h-626q-6 -29 -8.5 -60t-2.5 -69q0 -159 99 -264t247 -105q109 0 193.5 56.5t121.5 154.5l39 -12q-48 -152 -162.5 -240t-263.5 -88q-102 0 -190.5 44t-149.5 124zM492 25q116 0 182.5 112.5t66.5 311.5t-66 310
t-183 111q-118 0 -184 -112.5t-66 -315.5q0 -194 67 -305.5t183 -111.5z" />
    <glyph glyph-name="Scedilla" unicode="&#x15e;" horiz-adv-x="1114" 
d="M188 78l-65 -74h-27v438h45q14 -191 119 -301t272 -110q131 0 221.5 84.5t90.5 206.5q0 168 -302 279q-46 17 -69 26q-181 69 -258.5 163t-77.5 238q0 179 121.5 298.5t300.5 119.5q146 0 289 -89q38 -24 49 -24t26 10.5t33 30.5h29v-418h-41q-31 211 -125.5 325
t-236.5 114q-115 0 -194 -81.5t-79 -199.5q0 -110 61.5 -177t241.5 -132q245 -89 326.5 -178t81.5 -234q0 -183 -129.5 -299.5t-335.5 -116.5q-94 0 -185 25t-182 76zM291 -371l35 78q59 -34 118 -53t105 -19q63 0 93 22.5t30 70.5q0 41 -30 65.5t-81 24.5q-7 0 -30 -3.5
t-35 -4.5v190h63v-112q23 2 40 3.5t30 2.5q79 0 126.5 -45t47.5 -119q0 -82 -58.5 -129t-160.5 -47q-55 0 -118.5 15.5t-174.5 59.5z" />
    <glyph glyph-name="scedilla" unicode="&#x15f;" horiz-adv-x="793" 
d="M102 45v252h41q29 -146 81 -210t138 -64q79 0 129 51.5t50 130.5q0 60 -36 104t-140 99q-164 83 -208 137.5t-44 132.5q0 106 80.5 174t209.5 68q65 0 127.5 -17.5t122.5 -52.5v-217h-41q-14 112 -76 180t-147 68q-68 0 -109.5 -36t-41.5 -95q0 -85 126 -154q9 -5 15 -8
q16 -9 50 -27q263 -141 263 -299q0 -125 -96 -205t-246 -80q-65 0 -127.5 17.5t-120.5 50.5zM131 -371l35 78q59 -34 118 -53t105 -19q63 0 93 22.5t30 70.5q0 41 -30 65.5t-81 24.5q-7 0 -30 -3.5t-35 -4.5v190h63v-112q23 2 40 3.5t30 2.5q79 0 126.5 -45t47.5 -119
q0 -82 -58.5 -129t-160.5 -47q-55 0 -118.5 15.5t-174.5 59.5z" />
    <glyph glyph-name="Scaron" unicode="&#x160;" horiz-adv-x="1114" 
d="M188 78l-65 -74h-27v438h45q14 -191 119 -301t272 -110q131 0 221.5 84.5t90.5 206.5q0 168 -302 279q-46 17 -69 26q-181 69 -258.5 163t-77.5 238q0 179 121.5 298.5t300.5 119.5q146 0 289 -89q38 -24 49 -24t26 10.5t33 30.5h29v-418h-41q-31 211 -125.5 325
t-236.5 114q-115 0 -194 -81.5t-79 -199.5q0 -110 61.5 -177t241.5 -132q245 -89 326.5 -178t81.5 -234q0 -183 -129.5 -299.5t-335.5 -116.5q-94 0 -185 25t-182 76zM266 1906h58l233 -211l233 211h58l-232 -350h-118z" />
    <glyph glyph-name="scaron" unicode="&#x161;" horiz-adv-x="793" 
d="M102 45v252h41q29 -146 81 -210t138 -64q79 0 129 51.5t50 130.5q0 60 -36 104t-140 99q-164 83 -208 137.5t-44 132.5q0 106 80.5 174t209.5 68q65 0 127.5 -17.5t122.5 -52.5v-217h-41q-14 112 -76 180t-147 68q-68 0 -109.5 -36t-41.5 -95q0 -85 126 -154q9 -5 15 -8
q16 -9 50 -27q263 -141 263 -299q0 -125 -96 -205t-246 -80q-65 0 -127.5 17.5t-120.5 50.5zM106 1380h58l233 -211l233 211h58l-232 -350h-118z" />
    <glyph glyph-name="Ydieresis" unicode="&#x178;" horiz-adv-x="1059" 
d="M643 209v-16q0 -101 27.5 -122.5t124.5 -21.5v-49h-514v49h14q85 0 111 21.5t26 128.5v10v434l-362 631q-32 55 -64.5 76.5t-83.5 24.5v46h510v-46q-79 -3 -110 -17t-31 -47q0 -11 4.5 -23.5t13.5 -25.5l309 -529l246 424q34 58 47 89.5t13 53.5q0 40 -26.5 57.5
t-96.5 23.5v40h362v-47q-110 -7 -200 -162q-8 -14 -13 -22l-307 -512v-469zM606 1712q0 40 30 70t70 30t69 -30t29 -70q0 -43 -28 -72t-70 -29t-71 29t-29 72zM256 1712q0 40 29 70t69 30t70 -30t30 -70q0 -43 -29 -72t-71 -29t-70 29t-28 72z" />
    <glyph glyph-name="Zcaron" unicode="&#x17d;" horiz-adv-x="1311" 
d="M-6 0l964 1372q-32 4 -67 6t-98 2h-185q-133 0 -207 -44.5t-239 -268.5l-45 -61l-37 14l137 401h1012l-955 -1374h197q242 0 351.5 12.5t144.5 40.5q50 44 122 139t144 216h37l-137 -455h-1139zM364 1906h58l233 -211l233 211h58l-232 -350h-118z" />
    <glyph glyph-name="zcaron" unicode="&#x17e;" horiz-adv-x="913" 
d="M57 0v12l553 842h-176h-18q-139 0 -189 -39.5t-112 -159.5l-43 9l67 231h680v-12l-551 -838h193q120 0 162.5 8t60.5 29q32 35 71 93t72 122l31 -14l-63 -283h-738zM166 1380h58l233 -211l233 211h58l-232 -350h-118z" />
    <glyph glyph-name="florin" unicode="&#x192;" horiz-adv-x="1034" 
d="M790 670q-54 7 -113 10.5t-122 3.5l-49 -469q-30 -286 -123 -424.5t-256 -138.5q-92 0 -166 55.5t-74 120.5q0 28 16 45.5t40 17.5q39 0 64 -61q7 -17 11 -26q23 -52 58 -79.5t76 -27.5q155 0 210 600q8 88 13 136l22 247h-37q-45 0 -91.5 -3t-98.5 -9l27 102
q38 -6 76 -9t75 -3q22 0 33 0.5t20 1.5q23 309 130 471t288 162q100 0 176 -57t76 -122q0 -26 -17 -43.5t-42 -17.5q-40 0 -71 68q-6 13 -9 20q-25 52 -61 79.5t-80 27.5q-79 0 -127.5 -78.5t-67.5 -237.5l-33 -272h62q54 0 100.5 2t89.5 6z" />
    <glyph glyph-name="circumflex" unicode="&#x2c6;" 
d="M221 1030l232 350h118l232 -350h-58l-233 211l-233 -211h-58z" />
    <glyph glyph-name="caron" unicode="&#x2c7;" 
d="M221 1380h58l233 -211l233 211h58l-232 -350h-118z" />
    <glyph glyph-name="breve" unicode="&#x2d8;" 
d="M219 1341h51q19 -74 76 -107.5t166 -33.5t166 33.5t74 107.5h51q-20 -133 -94 -202.5t-197 -69.5q-122 0 -196.5 69.5t-96.5 202.5z" />
    <glyph glyph-name="dotaccent" unicode="&#x2d9;" 
d="M412 1186q0 41 29.5 70.5t70.5 29.5q40 0 70 -30t30 -70q0 -42 -29.5 -71.5t-70.5 -29.5t-70.5 29.5t-29.5 71.5z" />
    <glyph glyph-name="ring" unicode="&#x2da;" 
d="M362 1253q0 -62 44 -106.5t106 -44.5t107 44.5t45 106.5q0 61 -45 105.5t-107 44.5q-61 0 -105.5 -44t-44.5 -106zM272 1253q0 101 69.5 170.5t170.5 69.5q100 0 171 -70t71 -170q0 -99 -71 -170t-171 -71t-170 70.5t-70 170.5z" />
    <glyph glyph-name="ogonek" unicode="&#x2db;" 
d="M672 31q-92 -72 -136 -137.5t-44 -129.5q0 -54 27 -86t73 -32q40 0 69.5 17.5t49.5 53.5l28 -18q-36 -71 -90.5 -109.5t-120.5 -38.5q-69 0 -113 41t-44 103q0 88 62 170.5t190 165.5h49z" />
    <glyph glyph-name="tilde" unicode="&#x2dc;" 
d="M799 1329q-20 -105 -68.5 -157t-126.5 -52q-10 0 -25.5 2.5t-48.5 10.5l-108 28q-9 2 -19 3t-30 1q-39 0 -60 -18.5t-37 -67.5h-51q19 105 68 157t129 52q17 0 32.5 -2t30.5 -6l111 -29q16 -4 30 -6t25 -2q38 0 58.5 18.5t35.5 67.5h54z" />
    <glyph glyph-name="hungarumlaut" unicode="&#x2dd;" 
d="M594 1030l143 281q23 42 44.5 61t47.5 19q28 0 48 -19.5t20 -46.5q0 -16 -11 -36.5t-30 -41.5l-203 -217h-59zM319 1030l144 281q23 42 44.5 61t47.5 19q28 0 48 -19.5t20 -46.5q0 -16 -11 -36.5t-30 -41.5l-205 -217h-58z" />
    <glyph glyph-name="uni03A9" unicode="&#x3a9;" horiz-adv-x="1567" 
d="M1100 188v-26h313l66 203h61l-108 -365h-500q134 233 202 451t68 413q0 271 -107.5 416t-308.5 145t-309 -145t-108 -416q0 -195 68 -411t204 -453h-500l-110 365h61l68 -203h311v26q-165 203 -234 361.5t-69 327.5q0 272 174.5 446t443.5 174t443 -174.5t174 -445.5
q0 -169 -69 -327.5t-234 -361.5z" />
    <glyph glyph-name="pi" unicode="&#x3c0;" horiz-adv-x="1354" 
d="M1329 885l-35 -162h-329q-34 -179 -54 -452q-23 -314 -120 -314q-38 0 -58 24.5t-20 69.5q0 58 77 280.5t117 391.5h-375q-33 -177 -53 -448q-25 -318 -123 -318q-37 0 -57 25t-20 71q0 56 77.5 277t118.5 393h-133q-136 0 -180 -43.5t-72 -171.5h-59q37 207 117.5 292
t238.5 85h942z" />
    <glyph glyph-name="endash" unicode="&#x2013;" 
d="M0 379v137h1024v-137h-1024z" />
    <glyph glyph-name="emdash" unicode="&#x2014;" horiz-adv-x="2048" 
d="M2048 516v-137h-2048v137h2048z" />
    <glyph glyph-name="quoteleft" unicode="&#x2018;" horiz-adv-x="516" 
d="M352 1411q-82 -74 -116.5 -124t-34.5 -93q0 -40 63 -61q15 -5 25 -9q52 -19 77 -47.5t25 -68.5q0 -45 -30.5 -73t-79.5 -28q-71 0 -118.5 60t-47.5 151q0 90 50.5 170.5t156.5 157.5z" />
    <glyph glyph-name="quoteright" unicode="&#x2019;" horiz-adv-x="516" 
d="M174 944q80 72 115 122.5t35 94.5q0 40 -63 61q-17 6 -26 9q-52 19 -76 46.5t-24 68.5q0 44 31 72t80 28q70 0 117 -59.5t47 -151.5q0 -90 -51 -171t-154 -157z" />
    <glyph glyph-name="quotesinglbase" unicode="&#x201a;" horiz-adv-x="516" 
d="M166 -274q82 73 116.5 123.5t34.5 93.5q0 38 -65 61q-14 5 -22 8q-53 19 -77 47t-24 68q0 44 31 72t80 28q69 0 114 -59.5t45 -153.5t-45.5 -169t-154.5 -154z" />
    <glyph glyph-name="quotedblleft" unicode="&#x201c;" horiz-adv-x="901" 
d="M735 1411q-82 -74 -116.5 -124t-34.5 -93q0 -40 63 -61q15 -5 25 -9q52 -19 77 -47.5t25 -68.5q0 -45 -30.5 -73t-79.5 -28q-71 0 -118.5 60t-47.5 151q0 89 51 170t156 158zM350 1411q-80 -72 -114.5 -122.5t-34.5 -94.5q0 -40 63 -61q15 -5 25 -9q52 -19 77 -47.5
t25 -68.5q0 -45 -30.5 -73t-79.5 -28q-71 0 -118.5 60t-47.5 151q0 90 50.5 171t153.5 157z" />
    <glyph glyph-name="quotedblright" unicode="&#x201d;" horiz-adv-x="901" 
d="M557 944q82 74 117 124t35 93q0 40 -63 61q-17 6 -26 9q-52 19 -77 47t-25 68q0 44 31 72t80 28q71 0 118.5 -60t47.5 -151q0 -89 -51.5 -170t-155.5 -158zM174 944q80 72 115 122.5t35 94.5q0 40 -63 61q-17 6 -26 9q-52 19 -76 46.5t-24 68.5q0 44 31 72t80 28
q70 0 117 -59.5t47 -151.5q0 -90 -51 -171t-154 -157z" />
    <glyph glyph-name="quotedblbase" unicode="&#x201e;" horiz-adv-x="901" 
d="M551 -274q82 73 116.5 123.5t34.5 93.5q0 38 -65 61q-14 5 -22 8q-53 19 -77 47t-24 68q0 44 30.5 72t78.5 28q69 0 114 -59.5t45 -153.5t-45.5 -169t-154.5 -154zM172 -274q80 72 115 122.5t35 94.5q0 39 -66 62q-14 5 -20 7q-53 19 -77 47t-24 68q0 44 30.5 72t78.5 28
q69 0 114 -59.5t45 -153.5t-45.5 -169t-154.5 -154z" />
    <glyph glyph-name="dagger" unicode="&#x2020;" 
d="M397 578q48 81 69 160t21 173v31q-71 -1 -161.5 -37.5t-120.5 -36.5q-50 0 -78.5 25.5t-28.5 71.5q0 40 29.5 67t73.5 27q31 0 118 -34t152 -34h14q1 8 1.5 18.5t0.5 30.5q0 98 -36.5 193.5t-36.5 109.5q0 46 27.5 74.5t72.5 28.5q42 0 69 -29t27 -74q0 -14 -36.5 -109.5
t-36.5 -193.5v-24q0 -10 0.5 -15.5t1.5 -9.5h32q53 0 137 35t111 35q47 0 77 -27t30 -69q0 -46 -28.5 -71.5t-78.5 -25.5q-28 0 -115.5 38t-166.5 38q0 -122 21.5 -209.5t68.5 -156.5q-38 -155 -57.5 -334t-27.5 -533h-55v26q-12 533 -90 841z" />
    <glyph glyph-name="daggerdbl" unicode="&#x2021;" 
d="M397 578q48 81 69 160t21 173v4q-2 14 -2 27q-71 -1 -160.5 -37.5t-119.5 -36.5q-50 0 -78.5 25.5t-28.5 71.5q0 40 28.5 67t72.5 27q31 0 119 -34t153 -34h14q1 8 1.5 18.5t0.5 30.5q0 98 -36.5 193.5t-36.5 109.5q0 46 27.5 74.5t72.5 28.5q42 0 69 -29t27 -74
q0 -14 -37.5 -109.5t-37.5 -193.5q0 -20 0.5 -30.5t1.5 -18.5h34q53 0 137 35t111 35q47 0 77 -27t30 -69q0 -46 -28.5 -71.5t-78.5 -25.5q-28 0 -116 38t-168 38q1 -128 23 -215t69 -156q-48 -81 -69 -160t-21 -173v-31q72 0 162.5 37t119.5 37q50 0 78.5 -25.5t28.5 -71.5
q0 -40 -28.5 -67t-72.5 -27q-31 0 -119 34t-153 34h-14q-1 -8 -1.5 -18.5t-0.5 -30.5q0 -98 36.5 -193.5t36.5 -110.5q0 -45 -27.5 -73.5t-72.5 -28.5q-42 0 -69 29t-27 73q0 15 37.5 110.5t37.5 193.5q0 20 -0.5 30.5t-1.5 18.5h-34q-53 0 -137 -35t-111 -35q-47 0 -77 27
t-30 69q0 46 28.5 71.5t78.5 25.5q28 0 116 -37t168 -37q-1 126 -23 213t-69 156z" />
    <glyph glyph-name="bullet" unicode="&#x2022;" horiz-adv-x="1208" 
d="M307 762q0 123 87 209t210 86q122 0 208.5 -86.5t86.5 -208.5t-87.5 -209.5t-209.5 -87.5q-123 0 -209 87t-86 210z" />
    <glyph glyph-name="ellipsis" unicode="&#x2026;" horiz-adv-x="2048" 
d="M221 109q0 52 34.5 86t86.5 34q51 0 86 -35t35 -85t-36 -85.5t-85 -35.5q-50 0 -85.5 35.5t-35.5 85.5zM903 109q0 52 34.5 86t86.5 34q51 0 86 -35t35 -85t-36 -85.5t-85 -35.5q-50 0 -85.5 35.5t-35.5 85.5zM1587 109q0 52 34.5 86t86.5 34q51 0 86 -35t35 -85
t-36 -85.5t-85 -35.5q-50 0 -85.5 35.5t-35.5 85.5z" />
    <glyph glyph-name="perthousand" unicode="&#x2030;" horiz-adv-x="2324" 
d="M2075 672q-52 0 -106 -40.5t-107 -117.5q-72 -104 -111 -198t-39 -160q0 -56 36 -93.5t89 -37.5q63 0 124 47t126 145q56 85 82 158.5t26 144.5t-32 111.5t-88 40.5zM1581 244q0 93 48 192.5t130 173.5q65 60 139.5 92.5t147.5 32.5q96 0 150.5 -58.5t54.5 -162.5
q0 -77 -29.5 -162t-85.5 -170q-69 -103 -149 -154t-172 -51q-100 0 -167 75.5t-67 191.5zM1325 672q-52 0 -107 -40.5t-108 -117.5q-72 -104 -110.5 -198t-38.5 -160q0 -56 36.5 -93.5t89.5 -37.5q63 0 124 47t126 145q56 85 82.5 158.5t26.5 144.5t-32.5 111.5t-88.5 40.5z
M831 244q0 94 47.5 193t129.5 173q64 60 139 92.5t147 32.5q96 0 150.5 -58.5t54.5 -162.5q0 -77 -29.5 -162t-85.5 -170q-69 -103 -148 -154t-171 -51q-100 0 -167 75.5t-67 191.5zM690 1192q-30 31 -45.5 62.5t-21.5 70.5h-25q-49 0 -92 -16.5t-86 -51.5
q-83 -70 -145 -200t-62 -230q0 -61 36 -101t91 -40q117 0 229.5 155t120.5 351zM203 -66l907 1285q-50 -43 -113.5 -66t-132.5 -23q-30 0 -60 7t-63 22q-23 -225 -145.5 -374.5t-276.5 -149.5q-103 0 -170 76t-67 194q0 82 34 164t99 156q68 77 152 120.5t165 43.5
q88 0 144.5 -43t66.5 -117q29 -18 58 -26.5t63 -8.5q106 0 202.5 53.5t201.5 171.5h84l-1045 -1485h-104z" />
    <glyph glyph-name="guilsinglleft" unicode="&#x2039;" horiz-adv-x="692" 
d="M477 166l-28 31q-75 77 -146 141.5t-147 124.5q79 63 152 129t141 137l28 31q5 4 13.5 7t17.5 3q10 0 14 -4t4 -16q0 -13 -18.5 -44t-93.5 -137l-78 -106l78 -107q75 -105 93.5 -136t18.5 -44t-4 -17.5t-14 -4.5q-8 0 -16.5 3t-14.5 9z" />
    <glyph glyph-name="guilsinglright" unicode="&#x203a;" horiz-adv-x="692" 
d="M215 166q-6 -6 -14 -9t-17 -3q-11 0 -15.5 5t-4.5 17q0 13 18.5 44t93.5 136l78 107l-78 106q-75 106 -93.5 137t-18.5 44q0 11 4.5 15.5t15.5 4.5q9 0 18 -3t13 -7l29 -31q67 -71 140 -137t153 -129q-76 -60 -147 -124.5t-146 -141.5z" />
    <glyph glyph-name="franc" unicode="&#x20a3;" horiz-adv-x="1929" 
d="M113 0v47q95 3 122 23t27 112v27v1024q0 97 -25.5 118t-109.5 21h-14v49h1028l102 -325l-43 -17q-74 116 -114 162t-82 74q-49 32 -116.5 45.5t-240.5 13.5h-176v-624h107q190 0 256 59t81 219h35v-616h-35q-13 167 -79 227.5t-258 60.5h-107v-528q0 -85 22 -105t111 -20
h35v-47h-526zM1332 39q70 3 91 27.5t21 123.5v461q0 67 -20 94t-77 52v24q69 23 127 47t109 52h14v-148q47 74 103 114t112 40q49 0 77 -27t28 -74q0 -33 -20 -54t-50 -21q-21 0 -64.5 17t-68.5 17q-36 0 -68.5 -24t-48.5 -64v-538q0 -82 24.5 -100.5t119.5 -18.5v-39h-410z
" />
    <glyph glyph-name="trademark" unicode="&#x2122;" horiz-adv-x="1683" 
d="M788 1438h183l141 -400l148 400h174v-25l-30 -2q-22 -2 -34 -15.5t-12 -37.5v-373q0 -24 12 -37.5t34 -15.5l30 -2v-27h-236v27l31 2q21 2 33 16t12 37v395l-178 -479h-15l-174 479v-395q0 -23 12.5 -37t34.5 -16l31 -2v-27h-197v27l34 2q21 2 32.5 16t11.5 37v371
q0 23 -12.5 37t-34.5 16l-31 2v27zM256 1438h440l11 -178h-25q-8 79 -40.5 115t-96.5 36h-21v-426q0 -23 12 -37t33 -16l31 -2v-27h-248v27l31 2q21 1 33 15.5t12 37.5v426h-20q-64 0 -97 -36t-41 -115h-26z" />
    <glyph glyph-name="partialdiff" unicode="&#x2202;" horiz-adv-x="1044" 
d="M754 604q13 81 19.5 161.5t6.5 158.5q0 140 -39.5 216.5t-111.5 76.5q-53 0 -117 -63.5t-109 -63.5q-29 0 -51 21.5t-22 51.5q0 59 68 105.5t163 46.5q171 0 273 -152.5t102 -412.5q0 -335 -139 -555t-344 -220q-147 0 -241.5 106.5t-94.5 272.5q0 189 108.5 316
t266.5 127q99 0 162.5 -47t99.5 -146zM709 483q0 117 -45 180.5t-127 63.5q-113 0 -184.5 -127.5t-71.5 -333.5q0 -117 44 -178t128 -61q111 0 183.5 128t72.5 328z" />
    <glyph glyph-name="Delta" unicode="&#x2206;" horiz-adv-x="1208" 
d="M555 1212l-389 -1042h768zM596 1497h29l555 -1497h-1151z" />
    <glyph glyph-name="product" unicode="&#x220f;" horiz-adv-x="1595" 
d="M57 1473h1479v-70h-186v-1727h186v-69h-555v69h197v1727h-762v-1727h196v-69h-555v69h187v1727h-187v70z" />
    <glyph glyph-name="summation" unicode="&#x2211;" horiz-adv-x="1434" 
d="M12 1473h1135l98 -340h-74l-67 219q-8 27 -32 39t-73 12h-741l864 -850v-37l-858 -756h893q60 0 77.5 13t29.5 51l71 229h74l-135 -446h-1260v28l959 838l-961 950v50z" />
    <glyph glyph-name="minus" unicode="&#x2212;" horiz-adv-x="1706" 
d="M254 670h1198v-119h-1198v119z" />
    <glyph glyph-name="uni2215" unicode="&#x2215;" horiz-adv-x="342" 
d="M-342 -68l920 1483h104l-920 -1483h-104z" />
    <glyph glyph-name="uni2219" unicode="&#x2219;" horiz-adv-x="516" 
d="M137 682q0 52 35 87.5t86 35.5q50 0 85.5 -36t35.5 -87q0 -47 -36.5 -83t-84.5 -36q-49 0 -85 35t-36 84z" />
    <glyph glyph-name="radical" unicode="&#x221a;" horiz-adv-x="1288" 
d="M1106 1647h182v-82h-119l-594 -1606h-53l-323 893l-119 -43l-23 68l262 92l265 -729z" />
    <glyph glyph-name="infinity" unicode="&#x221e;" horiz-adv-x="1706" 
d="M905 559q51 -95 119 -141.5t156 -46.5q102 0 168.5 71t66.5 181q0 108 -61 179.5t-152 71.5q-85 0 -153.5 -72.5t-143.5 -242.5zM803 666q-51 95 -119 142.5t-154 47.5q-105 0 -171 -71t-66 -183q0 -108 61 -179t152 -71q85 0 152 69t145 245zM866 494
q-71 -138 -148 -201.5t-173 -63.5q-134 0 -226 109t-92 272q0 172 82.5 277.5t214.5 105.5q97 0 172 -63t144 -203q67 138 146 204t175 66q134 0 226 -108.5t92 -272.5q0 -171 -82 -277t-213 -106q-96 0 -169 60t-149 201z" />
    <glyph glyph-name="integral" unicode="&#x222b;" horiz-adv-x="1020" 
d="M301 -268q103 0 116 664q3 141 5 216q12 503 102 719.5t281 216.5q76 0 122 -39t46 -104q0 -48 -31 -77.5t-82 -29.5q-53 0 -85 35t-32 92q0 8 -6 15.5t-14 7.5q-105 0 -119 -634q-3 -157 -6 -245q-10 -308 -31.5 -461t-62.5 -247q-49 -114 -123 -173t-168 -59
q-73 0 -119.5 38t-46.5 97q0 53 31.5 84t83.5 31q47 0 79.5 -29t32.5 -67q0 -24 7.5 -37.5t19.5 -13.5z" />
    <glyph glyph-name="approxequal" unicode="&#x2248;" horiz-adv-x="1706" 
d="M1530 584v-131q-107 -75 -202 -110.5t-187 -35.5q-98 0 -288 69.5t-290 69.5q-82 0 -169.5 -35.5t-215.5 -123.5v131q108 74 203.5 110.5t183.5 36.5q111 0 301.5 -69.5t276.5 -69.5q85 0 173.5 35.5t213.5 122.5zM1530 934v-131q-104 -73 -200 -108.5t-187 -35.5
q-100 0 -290 69t-290 69q-83 0 -171.5 -36t-213.5 -122v131q106 73 202 109t185 36q111 0 300.5 -68.5t277.5 -68.5q87 0 175 35t212 121z" />
    <glyph glyph-name="notequal" unicode="&#x2260;" horiz-adv-x="1706" 
d="M1210 1180l88 -70l-196 -250h350v-115h-424l-211 -270h635v-115h-709l-251 -319l-89 70l197 249h-346v115h420l211 270h-631v115h704z" />
    <glyph glyph-name="lessequal" unicode="&#x2264;" horiz-adv-x="1706" 
d="M262 150h1182v-117h-1182v117zM1444 1192v-125l-977 -324l977 -323v-125l-1182 399v101z" />
    <glyph glyph-name="greaterequal" unicode="&#x2265;" horiz-adv-x="1706" 
d="M262 150h1182v-117h-1182v117zM262 1192l1182 -397v-101l-1182 -399v125l979 323l-979 324v125z" />
    <glyph glyph-name="lozenge" unicode="&#x25ca;" horiz-adv-x="1012" 
d="M506 1409l-385 -817l385 -825l385 825zM506 1653l500 -1061l-500 -1069l-500 1069z" />
    <glyph glyph-name="uniF000" unicode="&#xf000;" horiz-adv-x="1618" 
d="M836 1216q-1 6 -1.5 14t-0.5 23q0 124 95 229.5t236 131.5q1 -10 1.5 -23t0.5 -39q0 -131 -103.5 -234.5t-203.5 -103.5h-8q-3 0 -7.5 1t-8.5 1zM1505 403q-114 -247 -205 -342.5t-204 -95.5q-50 0 -131.5 33t-122.5 33q-45 0 -131 -33t-127 -33q-64 0 -128.5 44
t-129.5 132q-102 140 -157.5 295.5t-55.5 300.5q0 219 125 356.5t323 137.5q68 0 155 -34t124 -34q34 0 121.5 35t152.5 35q110 0 198 -40t161 -124q-102 -65 -151.5 -145.5t-49.5 -182.5q0 -113 60 -200t173 -138z" />
    <glyph glyph-name="uniF001" unicode="&#xf001;" horiz-adv-x="1176" 
d="M383 158q0 -79 24 -98t95 -19h41v-41h-445l1 41q85 3 107.5 24.5t22.5 124.5v590h-147l22 84h125v105q0 218 117 342.5t318 124.5q115 0 189.5 -47.5t74.5 -114.5q0 -36 -25 -60t-61 -24q-48 0 -88 65q-7 11 -11 17q-31 51 -72 74.5t-100 23.5q-107 0 -148.5 -72
t-41.5 -294v-140h317q95 0 150 9t108 28h23v-743q0 -80 22 -99.5t91 -19.5v-39h-387v39q69 3 90.5 27t21.5 124v476q0 73 -26.5 93.5t-108.5 20.5h-299v-622z" />
    <glyph glyph-name="uniF001" unicode="&#xfb01;" horiz-adv-x="1176" 
d="M383 158q0 -79 24 -98t95 -19h41v-41h-445l1 41q85 3 107.5 24.5t22.5 124.5v590h-147l22 84h125v105q0 218 117 342.5t318 124.5q115 0 189.5 -47.5t74.5 -114.5q0 -36 -25 -60t-61 -24q-48 0 -88 65q-7 11 -11 17q-31 51 -72 74.5t-100 23.5q-107 0 -148.5 -72
t-41.5 -294v-140h317q95 0 150 9t108 28h23v-743q0 -80 22 -99.5t91 -19.5v-39h-387v39q69 3 90.5 27t21.5 124v476q0 73 -26.5 93.5t-108.5 20.5h-299v-622z" />
    <glyph glyph-name="uniF002" unicode="&#xf002;" horiz-adv-x="1176" 
d="M543 0h-445l1 41q82 1 106 21.5t24 127.5v590h-147l22 84h125v99q0 224 123.5 348.5t343.5 124.5q69 0 140 -13.5t149 -40.5v-1224q0 -74 17.5 -95.5t68.5 -21.5h25v-41h-377v41h10q62 0 82 22.5t20 126.5v590h-448v-622q0 -76 22.5 -96.5t96.5 -20.5h41v-41zM383 864
h446v320q0 4 -20.5 30t-34.5 56q-30 60 -67 79t-101 19q-121 0 -172 -82t-51 -289v-133z" />
    <glyph glyph-name="uniF002" unicode="&#xfb02;" horiz-adv-x="1176" 
d="M543 0h-445l1 41q82 1 106 21.5t24 127.5v590h-147l22 84h125v99q0 224 123.5 348.5t343.5 124.5q69 0 140 -13.5t149 -40.5v-1224q0 -74 17.5 -95.5t68.5 -21.5h25v-41h-377v41h10q62 0 82 22.5t20 126.5v590h-448v-622q0 -76 22.5 -96.5t96.5 -20.5h41v-41zM383 864
h446v320q0 4 -20.5 30t-34.5 56q-30 60 -67 79t-101 19q-121 0 -172 -82t-51 -289v-133z" />
    </font>
</defs>
</svg>
